G75*
%MOIN*%
%OFA0B0*%
%FSLAX25Y25*%
%IPPOS*%
%LPD*%
%AMOC8*
5,1,8,0,0,1.08239X$1,22.5*
%
%ADD10C,0.00000*%
%ADD11C,0.00600*%
%ADD12C,0.07400*%
%ADD13OC8,0.07400*%
%ADD14C,0.06000*%
%ADD15OC8,0.06300*%
%ADD16C,0.06600*%
%ADD17C,0.05543*%
%ADD18OC8,0.05200*%
%ADD19C,0.05200*%
%ADD20OC8,0.05600*%
%ADD21C,0.01040*%
%ADD22C,0.06600*%
%ADD23C,0.02400*%
%ADD24C,0.01600*%
D10*
X0000000Y0000000D02*
X0359921Y0000000D01*
X0359921Y0228701D01*
X0000000Y0228701D01*
X0000000Y0000000D01*
X0013701Y0210000D02*
X0013703Y0210158D01*
X0013709Y0210316D01*
X0013719Y0210474D01*
X0013733Y0210632D01*
X0013751Y0210789D01*
X0013772Y0210946D01*
X0013798Y0211102D01*
X0013828Y0211258D01*
X0013861Y0211413D01*
X0013899Y0211566D01*
X0013940Y0211719D01*
X0013985Y0211871D01*
X0014034Y0212022D01*
X0014087Y0212171D01*
X0014143Y0212319D01*
X0014203Y0212465D01*
X0014267Y0212610D01*
X0014335Y0212753D01*
X0014406Y0212895D01*
X0014480Y0213035D01*
X0014558Y0213172D01*
X0014640Y0213308D01*
X0014724Y0213442D01*
X0014813Y0213573D01*
X0014904Y0213702D01*
X0014999Y0213829D01*
X0015096Y0213954D01*
X0015197Y0214076D01*
X0015301Y0214195D01*
X0015408Y0214312D01*
X0015518Y0214426D01*
X0015631Y0214537D01*
X0015746Y0214646D01*
X0015864Y0214751D01*
X0015985Y0214853D01*
X0016108Y0214953D01*
X0016234Y0215049D01*
X0016362Y0215142D01*
X0016492Y0215232D01*
X0016625Y0215318D01*
X0016760Y0215402D01*
X0016896Y0215481D01*
X0017035Y0215558D01*
X0017176Y0215630D01*
X0017318Y0215700D01*
X0017462Y0215765D01*
X0017608Y0215827D01*
X0017755Y0215885D01*
X0017904Y0215940D01*
X0018054Y0215991D01*
X0018205Y0216038D01*
X0018357Y0216081D01*
X0018510Y0216120D01*
X0018665Y0216156D01*
X0018820Y0216187D01*
X0018976Y0216215D01*
X0019132Y0216239D01*
X0019289Y0216259D01*
X0019447Y0216275D01*
X0019604Y0216287D01*
X0019763Y0216295D01*
X0019921Y0216299D01*
X0020079Y0216299D01*
X0020237Y0216295D01*
X0020396Y0216287D01*
X0020553Y0216275D01*
X0020711Y0216259D01*
X0020868Y0216239D01*
X0021024Y0216215D01*
X0021180Y0216187D01*
X0021335Y0216156D01*
X0021490Y0216120D01*
X0021643Y0216081D01*
X0021795Y0216038D01*
X0021946Y0215991D01*
X0022096Y0215940D01*
X0022245Y0215885D01*
X0022392Y0215827D01*
X0022538Y0215765D01*
X0022682Y0215700D01*
X0022824Y0215630D01*
X0022965Y0215558D01*
X0023104Y0215481D01*
X0023240Y0215402D01*
X0023375Y0215318D01*
X0023508Y0215232D01*
X0023638Y0215142D01*
X0023766Y0215049D01*
X0023892Y0214953D01*
X0024015Y0214853D01*
X0024136Y0214751D01*
X0024254Y0214646D01*
X0024369Y0214537D01*
X0024482Y0214426D01*
X0024592Y0214312D01*
X0024699Y0214195D01*
X0024803Y0214076D01*
X0024904Y0213954D01*
X0025001Y0213829D01*
X0025096Y0213702D01*
X0025187Y0213573D01*
X0025276Y0213442D01*
X0025360Y0213308D01*
X0025442Y0213172D01*
X0025520Y0213035D01*
X0025594Y0212895D01*
X0025665Y0212753D01*
X0025733Y0212610D01*
X0025797Y0212465D01*
X0025857Y0212319D01*
X0025913Y0212171D01*
X0025966Y0212022D01*
X0026015Y0211871D01*
X0026060Y0211719D01*
X0026101Y0211566D01*
X0026139Y0211413D01*
X0026172Y0211258D01*
X0026202Y0211102D01*
X0026228Y0210946D01*
X0026249Y0210789D01*
X0026267Y0210632D01*
X0026281Y0210474D01*
X0026291Y0210316D01*
X0026297Y0210158D01*
X0026299Y0210000D01*
X0026297Y0209842D01*
X0026291Y0209684D01*
X0026281Y0209526D01*
X0026267Y0209368D01*
X0026249Y0209211D01*
X0026228Y0209054D01*
X0026202Y0208898D01*
X0026172Y0208742D01*
X0026139Y0208587D01*
X0026101Y0208434D01*
X0026060Y0208281D01*
X0026015Y0208129D01*
X0025966Y0207978D01*
X0025913Y0207829D01*
X0025857Y0207681D01*
X0025797Y0207535D01*
X0025733Y0207390D01*
X0025665Y0207247D01*
X0025594Y0207105D01*
X0025520Y0206965D01*
X0025442Y0206828D01*
X0025360Y0206692D01*
X0025276Y0206558D01*
X0025187Y0206427D01*
X0025096Y0206298D01*
X0025001Y0206171D01*
X0024904Y0206046D01*
X0024803Y0205924D01*
X0024699Y0205805D01*
X0024592Y0205688D01*
X0024482Y0205574D01*
X0024369Y0205463D01*
X0024254Y0205354D01*
X0024136Y0205249D01*
X0024015Y0205147D01*
X0023892Y0205047D01*
X0023766Y0204951D01*
X0023638Y0204858D01*
X0023508Y0204768D01*
X0023375Y0204682D01*
X0023240Y0204598D01*
X0023104Y0204519D01*
X0022965Y0204442D01*
X0022824Y0204370D01*
X0022682Y0204300D01*
X0022538Y0204235D01*
X0022392Y0204173D01*
X0022245Y0204115D01*
X0022096Y0204060D01*
X0021946Y0204009D01*
X0021795Y0203962D01*
X0021643Y0203919D01*
X0021490Y0203880D01*
X0021335Y0203844D01*
X0021180Y0203813D01*
X0021024Y0203785D01*
X0020868Y0203761D01*
X0020711Y0203741D01*
X0020553Y0203725D01*
X0020396Y0203713D01*
X0020237Y0203705D01*
X0020079Y0203701D01*
X0019921Y0203701D01*
X0019763Y0203705D01*
X0019604Y0203713D01*
X0019447Y0203725D01*
X0019289Y0203741D01*
X0019132Y0203761D01*
X0018976Y0203785D01*
X0018820Y0203813D01*
X0018665Y0203844D01*
X0018510Y0203880D01*
X0018357Y0203919D01*
X0018205Y0203962D01*
X0018054Y0204009D01*
X0017904Y0204060D01*
X0017755Y0204115D01*
X0017608Y0204173D01*
X0017462Y0204235D01*
X0017318Y0204300D01*
X0017176Y0204370D01*
X0017035Y0204442D01*
X0016896Y0204519D01*
X0016760Y0204598D01*
X0016625Y0204682D01*
X0016492Y0204768D01*
X0016362Y0204858D01*
X0016234Y0204951D01*
X0016108Y0205047D01*
X0015985Y0205147D01*
X0015864Y0205249D01*
X0015746Y0205354D01*
X0015631Y0205463D01*
X0015518Y0205574D01*
X0015408Y0205688D01*
X0015301Y0205805D01*
X0015197Y0205924D01*
X0015096Y0206046D01*
X0014999Y0206171D01*
X0014904Y0206298D01*
X0014813Y0206427D01*
X0014724Y0206558D01*
X0014640Y0206692D01*
X0014558Y0206828D01*
X0014480Y0206965D01*
X0014406Y0207105D01*
X0014335Y0207247D01*
X0014267Y0207390D01*
X0014203Y0207535D01*
X0014143Y0207681D01*
X0014087Y0207829D01*
X0014034Y0207978D01*
X0013985Y0208129D01*
X0013940Y0208281D01*
X0013899Y0208434D01*
X0013861Y0208587D01*
X0013828Y0208742D01*
X0013798Y0208898D01*
X0013772Y0209054D01*
X0013751Y0209211D01*
X0013733Y0209368D01*
X0013719Y0209526D01*
X0013709Y0209684D01*
X0013703Y0209842D01*
X0013701Y0210000D01*
X0008701Y0020000D02*
X0008703Y0020158D01*
X0008709Y0020316D01*
X0008719Y0020474D01*
X0008733Y0020632D01*
X0008751Y0020789D01*
X0008772Y0020946D01*
X0008798Y0021102D01*
X0008828Y0021258D01*
X0008861Y0021413D01*
X0008899Y0021566D01*
X0008940Y0021719D01*
X0008985Y0021871D01*
X0009034Y0022022D01*
X0009087Y0022171D01*
X0009143Y0022319D01*
X0009203Y0022465D01*
X0009267Y0022610D01*
X0009335Y0022753D01*
X0009406Y0022895D01*
X0009480Y0023035D01*
X0009558Y0023172D01*
X0009640Y0023308D01*
X0009724Y0023442D01*
X0009813Y0023573D01*
X0009904Y0023702D01*
X0009999Y0023829D01*
X0010096Y0023954D01*
X0010197Y0024076D01*
X0010301Y0024195D01*
X0010408Y0024312D01*
X0010518Y0024426D01*
X0010631Y0024537D01*
X0010746Y0024646D01*
X0010864Y0024751D01*
X0010985Y0024853D01*
X0011108Y0024953D01*
X0011234Y0025049D01*
X0011362Y0025142D01*
X0011492Y0025232D01*
X0011625Y0025318D01*
X0011760Y0025402D01*
X0011896Y0025481D01*
X0012035Y0025558D01*
X0012176Y0025630D01*
X0012318Y0025700D01*
X0012462Y0025765D01*
X0012608Y0025827D01*
X0012755Y0025885D01*
X0012904Y0025940D01*
X0013054Y0025991D01*
X0013205Y0026038D01*
X0013357Y0026081D01*
X0013510Y0026120D01*
X0013665Y0026156D01*
X0013820Y0026187D01*
X0013976Y0026215D01*
X0014132Y0026239D01*
X0014289Y0026259D01*
X0014447Y0026275D01*
X0014604Y0026287D01*
X0014763Y0026295D01*
X0014921Y0026299D01*
X0015079Y0026299D01*
X0015237Y0026295D01*
X0015396Y0026287D01*
X0015553Y0026275D01*
X0015711Y0026259D01*
X0015868Y0026239D01*
X0016024Y0026215D01*
X0016180Y0026187D01*
X0016335Y0026156D01*
X0016490Y0026120D01*
X0016643Y0026081D01*
X0016795Y0026038D01*
X0016946Y0025991D01*
X0017096Y0025940D01*
X0017245Y0025885D01*
X0017392Y0025827D01*
X0017538Y0025765D01*
X0017682Y0025700D01*
X0017824Y0025630D01*
X0017965Y0025558D01*
X0018104Y0025481D01*
X0018240Y0025402D01*
X0018375Y0025318D01*
X0018508Y0025232D01*
X0018638Y0025142D01*
X0018766Y0025049D01*
X0018892Y0024953D01*
X0019015Y0024853D01*
X0019136Y0024751D01*
X0019254Y0024646D01*
X0019369Y0024537D01*
X0019482Y0024426D01*
X0019592Y0024312D01*
X0019699Y0024195D01*
X0019803Y0024076D01*
X0019904Y0023954D01*
X0020001Y0023829D01*
X0020096Y0023702D01*
X0020187Y0023573D01*
X0020276Y0023442D01*
X0020360Y0023308D01*
X0020442Y0023172D01*
X0020520Y0023035D01*
X0020594Y0022895D01*
X0020665Y0022753D01*
X0020733Y0022610D01*
X0020797Y0022465D01*
X0020857Y0022319D01*
X0020913Y0022171D01*
X0020966Y0022022D01*
X0021015Y0021871D01*
X0021060Y0021719D01*
X0021101Y0021566D01*
X0021139Y0021413D01*
X0021172Y0021258D01*
X0021202Y0021102D01*
X0021228Y0020946D01*
X0021249Y0020789D01*
X0021267Y0020632D01*
X0021281Y0020474D01*
X0021291Y0020316D01*
X0021297Y0020158D01*
X0021299Y0020000D01*
X0021297Y0019842D01*
X0021291Y0019684D01*
X0021281Y0019526D01*
X0021267Y0019368D01*
X0021249Y0019211D01*
X0021228Y0019054D01*
X0021202Y0018898D01*
X0021172Y0018742D01*
X0021139Y0018587D01*
X0021101Y0018434D01*
X0021060Y0018281D01*
X0021015Y0018129D01*
X0020966Y0017978D01*
X0020913Y0017829D01*
X0020857Y0017681D01*
X0020797Y0017535D01*
X0020733Y0017390D01*
X0020665Y0017247D01*
X0020594Y0017105D01*
X0020520Y0016965D01*
X0020442Y0016828D01*
X0020360Y0016692D01*
X0020276Y0016558D01*
X0020187Y0016427D01*
X0020096Y0016298D01*
X0020001Y0016171D01*
X0019904Y0016046D01*
X0019803Y0015924D01*
X0019699Y0015805D01*
X0019592Y0015688D01*
X0019482Y0015574D01*
X0019369Y0015463D01*
X0019254Y0015354D01*
X0019136Y0015249D01*
X0019015Y0015147D01*
X0018892Y0015047D01*
X0018766Y0014951D01*
X0018638Y0014858D01*
X0018508Y0014768D01*
X0018375Y0014682D01*
X0018240Y0014598D01*
X0018104Y0014519D01*
X0017965Y0014442D01*
X0017824Y0014370D01*
X0017682Y0014300D01*
X0017538Y0014235D01*
X0017392Y0014173D01*
X0017245Y0014115D01*
X0017096Y0014060D01*
X0016946Y0014009D01*
X0016795Y0013962D01*
X0016643Y0013919D01*
X0016490Y0013880D01*
X0016335Y0013844D01*
X0016180Y0013813D01*
X0016024Y0013785D01*
X0015868Y0013761D01*
X0015711Y0013741D01*
X0015553Y0013725D01*
X0015396Y0013713D01*
X0015237Y0013705D01*
X0015079Y0013701D01*
X0014921Y0013701D01*
X0014763Y0013705D01*
X0014604Y0013713D01*
X0014447Y0013725D01*
X0014289Y0013741D01*
X0014132Y0013761D01*
X0013976Y0013785D01*
X0013820Y0013813D01*
X0013665Y0013844D01*
X0013510Y0013880D01*
X0013357Y0013919D01*
X0013205Y0013962D01*
X0013054Y0014009D01*
X0012904Y0014060D01*
X0012755Y0014115D01*
X0012608Y0014173D01*
X0012462Y0014235D01*
X0012318Y0014300D01*
X0012176Y0014370D01*
X0012035Y0014442D01*
X0011896Y0014519D01*
X0011760Y0014598D01*
X0011625Y0014682D01*
X0011492Y0014768D01*
X0011362Y0014858D01*
X0011234Y0014951D01*
X0011108Y0015047D01*
X0010985Y0015147D01*
X0010864Y0015249D01*
X0010746Y0015354D01*
X0010631Y0015463D01*
X0010518Y0015574D01*
X0010408Y0015688D01*
X0010301Y0015805D01*
X0010197Y0015924D01*
X0010096Y0016046D01*
X0009999Y0016171D01*
X0009904Y0016298D01*
X0009813Y0016427D01*
X0009724Y0016558D01*
X0009640Y0016692D01*
X0009558Y0016828D01*
X0009480Y0016965D01*
X0009406Y0017105D01*
X0009335Y0017247D01*
X0009267Y0017390D01*
X0009203Y0017535D01*
X0009143Y0017681D01*
X0009087Y0017829D01*
X0009034Y0017978D01*
X0008985Y0018129D01*
X0008940Y0018281D01*
X0008899Y0018434D01*
X0008861Y0018587D01*
X0008828Y0018742D01*
X0008798Y0018898D01*
X0008772Y0019054D01*
X0008751Y0019211D01*
X0008733Y0019368D01*
X0008719Y0019526D01*
X0008709Y0019684D01*
X0008703Y0019842D01*
X0008701Y0020000D01*
X0213701Y0150000D02*
X0213703Y0150158D01*
X0213709Y0150316D01*
X0213719Y0150474D01*
X0213733Y0150632D01*
X0213751Y0150789D01*
X0213772Y0150946D01*
X0213798Y0151102D01*
X0213828Y0151258D01*
X0213861Y0151413D01*
X0213899Y0151566D01*
X0213940Y0151719D01*
X0213985Y0151871D01*
X0214034Y0152022D01*
X0214087Y0152171D01*
X0214143Y0152319D01*
X0214203Y0152465D01*
X0214267Y0152610D01*
X0214335Y0152753D01*
X0214406Y0152895D01*
X0214480Y0153035D01*
X0214558Y0153172D01*
X0214640Y0153308D01*
X0214724Y0153442D01*
X0214813Y0153573D01*
X0214904Y0153702D01*
X0214999Y0153829D01*
X0215096Y0153954D01*
X0215197Y0154076D01*
X0215301Y0154195D01*
X0215408Y0154312D01*
X0215518Y0154426D01*
X0215631Y0154537D01*
X0215746Y0154646D01*
X0215864Y0154751D01*
X0215985Y0154853D01*
X0216108Y0154953D01*
X0216234Y0155049D01*
X0216362Y0155142D01*
X0216492Y0155232D01*
X0216625Y0155318D01*
X0216760Y0155402D01*
X0216896Y0155481D01*
X0217035Y0155558D01*
X0217176Y0155630D01*
X0217318Y0155700D01*
X0217462Y0155765D01*
X0217608Y0155827D01*
X0217755Y0155885D01*
X0217904Y0155940D01*
X0218054Y0155991D01*
X0218205Y0156038D01*
X0218357Y0156081D01*
X0218510Y0156120D01*
X0218665Y0156156D01*
X0218820Y0156187D01*
X0218976Y0156215D01*
X0219132Y0156239D01*
X0219289Y0156259D01*
X0219447Y0156275D01*
X0219604Y0156287D01*
X0219763Y0156295D01*
X0219921Y0156299D01*
X0220079Y0156299D01*
X0220237Y0156295D01*
X0220396Y0156287D01*
X0220553Y0156275D01*
X0220711Y0156259D01*
X0220868Y0156239D01*
X0221024Y0156215D01*
X0221180Y0156187D01*
X0221335Y0156156D01*
X0221490Y0156120D01*
X0221643Y0156081D01*
X0221795Y0156038D01*
X0221946Y0155991D01*
X0222096Y0155940D01*
X0222245Y0155885D01*
X0222392Y0155827D01*
X0222538Y0155765D01*
X0222682Y0155700D01*
X0222824Y0155630D01*
X0222965Y0155558D01*
X0223104Y0155481D01*
X0223240Y0155402D01*
X0223375Y0155318D01*
X0223508Y0155232D01*
X0223638Y0155142D01*
X0223766Y0155049D01*
X0223892Y0154953D01*
X0224015Y0154853D01*
X0224136Y0154751D01*
X0224254Y0154646D01*
X0224369Y0154537D01*
X0224482Y0154426D01*
X0224592Y0154312D01*
X0224699Y0154195D01*
X0224803Y0154076D01*
X0224904Y0153954D01*
X0225001Y0153829D01*
X0225096Y0153702D01*
X0225187Y0153573D01*
X0225276Y0153442D01*
X0225360Y0153308D01*
X0225442Y0153172D01*
X0225520Y0153035D01*
X0225594Y0152895D01*
X0225665Y0152753D01*
X0225733Y0152610D01*
X0225797Y0152465D01*
X0225857Y0152319D01*
X0225913Y0152171D01*
X0225966Y0152022D01*
X0226015Y0151871D01*
X0226060Y0151719D01*
X0226101Y0151566D01*
X0226139Y0151413D01*
X0226172Y0151258D01*
X0226202Y0151102D01*
X0226228Y0150946D01*
X0226249Y0150789D01*
X0226267Y0150632D01*
X0226281Y0150474D01*
X0226291Y0150316D01*
X0226297Y0150158D01*
X0226299Y0150000D01*
X0226297Y0149842D01*
X0226291Y0149684D01*
X0226281Y0149526D01*
X0226267Y0149368D01*
X0226249Y0149211D01*
X0226228Y0149054D01*
X0226202Y0148898D01*
X0226172Y0148742D01*
X0226139Y0148587D01*
X0226101Y0148434D01*
X0226060Y0148281D01*
X0226015Y0148129D01*
X0225966Y0147978D01*
X0225913Y0147829D01*
X0225857Y0147681D01*
X0225797Y0147535D01*
X0225733Y0147390D01*
X0225665Y0147247D01*
X0225594Y0147105D01*
X0225520Y0146965D01*
X0225442Y0146828D01*
X0225360Y0146692D01*
X0225276Y0146558D01*
X0225187Y0146427D01*
X0225096Y0146298D01*
X0225001Y0146171D01*
X0224904Y0146046D01*
X0224803Y0145924D01*
X0224699Y0145805D01*
X0224592Y0145688D01*
X0224482Y0145574D01*
X0224369Y0145463D01*
X0224254Y0145354D01*
X0224136Y0145249D01*
X0224015Y0145147D01*
X0223892Y0145047D01*
X0223766Y0144951D01*
X0223638Y0144858D01*
X0223508Y0144768D01*
X0223375Y0144682D01*
X0223240Y0144598D01*
X0223104Y0144519D01*
X0222965Y0144442D01*
X0222824Y0144370D01*
X0222682Y0144300D01*
X0222538Y0144235D01*
X0222392Y0144173D01*
X0222245Y0144115D01*
X0222096Y0144060D01*
X0221946Y0144009D01*
X0221795Y0143962D01*
X0221643Y0143919D01*
X0221490Y0143880D01*
X0221335Y0143844D01*
X0221180Y0143813D01*
X0221024Y0143785D01*
X0220868Y0143761D01*
X0220711Y0143741D01*
X0220553Y0143725D01*
X0220396Y0143713D01*
X0220237Y0143705D01*
X0220079Y0143701D01*
X0219921Y0143701D01*
X0219763Y0143705D01*
X0219604Y0143713D01*
X0219447Y0143725D01*
X0219289Y0143741D01*
X0219132Y0143761D01*
X0218976Y0143785D01*
X0218820Y0143813D01*
X0218665Y0143844D01*
X0218510Y0143880D01*
X0218357Y0143919D01*
X0218205Y0143962D01*
X0218054Y0144009D01*
X0217904Y0144060D01*
X0217755Y0144115D01*
X0217608Y0144173D01*
X0217462Y0144235D01*
X0217318Y0144300D01*
X0217176Y0144370D01*
X0217035Y0144442D01*
X0216896Y0144519D01*
X0216760Y0144598D01*
X0216625Y0144682D01*
X0216492Y0144768D01*
X0216362Y0144858D01*
X0216234Y0144951D01*
X0216108Y0145047D01*
X0215985Y0145147D01*
X0215864Y0145249D01*
X0215746Y0145354D01*
X0215631Y0145463D01*
X0215518Y0145574D01*
X0215408Y0145688D01*
X0215301Y0145805D01*
X0215197Y0145924D01*
X0215096Y0146046D01*
X0214999Y0146171D01*
X0214904Y0146298D01*
X0214813Y0146427D01*
X0214724Y0146558D01*
X0214640Y0146692D01*
X0214558Y0146828D01*
X0214480Y0146965D01*
X0214406Y0147105D01*
X0214335Y0147247D01*
X0214267Y0147390D01*
X0214203Y0147535D01*
X0214143Y0147681D01*
X0214087Y0147829D01*
X0214034Y0147978D01*
X0213985Y0148129D01*
X0213940Y0148281D01*
X0213899Y0148434D01*
X0213861Y0148587D01*
X0213828Y0148742D01*
X0213798Y0148898D01*
X0213772Y0149054D01*
X0213751Y0149211D01*
X0213733Y0149368D01*
X0213719Y0149526D01*
X0213709Y0149684D01*
X0213703Y0149842D01*
X0213701Y0150000D01*
X0213701Y0040000D02*
X0213703Y0040158D01*
X0213709Y0040316D01*
X0213719Y0040474D01*
X0213733Y0040632D01*
X0213751Y0040789D01*
X0213772Y0040946D01*
X0213798Y0041102D01*
X0213828Y0041258D01*
X0213861Y0041413D01*
X0213899Y0041566D01*
X0213940Y0041719D01*
X0213985Y0041871D01*
X0214034Y0042022D01*
X0214087Y0042171D01*
X0214143Y0042319D01*
X0214203Y0042465D01*
X0214267Y0042610D01*
X0214335Y0042753D01*
X0214406Y0042895D01*
X0214480Y0043035D01*
X0214558Y0043172D01*
X0214640Y0043308D01*
X0214724Y0043442D01*
X0214813Y0043573D01*
X0214904Y0043702D01*
X0214999Y0043829D01*
X0215096Y0043954D01*
X0215197Y0044076D01*
X0215301Y0044195D01*
X0215408Y0044312D01*
X0215518Y0044426D01*
X0215631Y0044537D01*
X0215746Y0044646D01*
X0215864Y0044751D01*
X0215985Y0044853D01*
X0216108Y0044953D01*
X0216234Y0045049D01*
X0216362Y0045142D01*
X0216492Y0045232D01*
X0216625Y0045318D01*
X0216760Y0045402D01*
X0216896Y0045481D01*
X0217035Y0045558D01*
X0217176Y0045630D01*
X0217318Y0045700D01*
X0217462Y0045765D01*
X0217608Y0045827D01*
X0217755Y0045885D01*
X0217904Y0045940D01*
X0218054Y0045991D01*
X0218205Y0046038D01*
X0218357Y0046081D01*
X0218510Y0046120D01*
X0218665Y0046156D01*
X0218820Y0046187D01*
X0218976Y0046215D01*
X0219132Y0046239D01*
X0219289Y0046259D01*
X0219447Y0046275D01*
X0219604Y0046287D01*
X0219763Y0046295D01*
X0219921Y0046299D01*
X0220079Y0046299D01*
X0220237Y0046295D01*
X0220396Y0046287D01*
X0220553Y0046275D01*
X0220711Y0046259D01*
X0220868Y0046239D01*
X0221024Y0046215D01*
X0221180Y0046187D01*
X0221335Y0046156D01*
X0221490Y0046120D01*
X0221643Y0046081D01*
X0221795Y0046038D01*
X0221946Y0045991D01*
X0222096Y0045940D01*
X0222245Y0045885D01*
X0222392Y0045827D01*
X0222538Y0045765D01*
X0222682Y0045700D01*
X0222824Y0045630D01*
X0222965Y0045558D01*
X0223104Y0045481D01*
X0223240Y0045402D01*
X0223375Y0045318D01*
X0223508Y0045232D01*
X0223638Y0045142D01*
X0223766Y0045049D01*
X0223892Y0044953D01*
X0224015Y0044853D01*
X0224136Y0044751D01*
X0224254Y0044646D01*
X0224369Y0044537D01*
X0224482Y0044426D01*
X0224592Y0044312D01*
X0224699Y0044195D01*
X0224803Y0044076D01*
X0224904Y0043954D01*
X0225001Y0043829D01*
X0225096Y0043702D01*
X0225187Y0043573D01*
X0225276Y0043442D01*
X0225360Y0043308D01*
X0225442Y0043172D01*
X0225520Y0043035D01*
X0225594Y0042895D01*
X0225665Y0042753D01*
X0225733Y0042610D01*
X0225797Y0042465D01*
X0225857Y0042319D01*
X0225913Y0042171D01*
X0225966Y0042022D01*
X0226015Y0041871D01*
X0226060Y0041719D01*
X0226101Y0041566D01*
X0226139Y0041413D01*
X0226172Y0041258D01*
X0226202Y0041102D01*
X0226228Y0040946D01*
X0226249Y0040789D01*
X0226267Y0040632D01*
X0226281Y0040474D01*
X0226291Y0040316D01*
X0226297Y0040158D01*
X0226299Y0040000D01*
X0226297Y0039842D01*
X0226291Y0039684D01*
X0226281Y0039526D01*
X0226267Y0039368D01*
X0226249Y0039211D01*
X0226228Y0039054D01*
X0226202Y0038898D01*
X0226172Y0038742D01*
X0226139Y0038587D01*
X0226101Y0038434D01*
X0226060Y0038281D01*
X0226015Y0038129D01*
X0225966Y0037978D01*
X0225913Y0037829D01*
X0225857Y0037681D01*
X0225797Y0037535D01*
X0225733Y0037390D01*
X0225665Y0037247D01*
X0225594Y0037105D01*
X0225520Y0036965D01*
X0225442Y0036828D01*
X0225360Y0036692D01*
X0225276Y0036558D01*
X0225187Y0036427D01*
X0225096Y0036298D01*
X0225001Y0036171D01*
X0224904Y0036046D01*
X0224803Y0035924D01*
X0224699Y0035805D01*
X0224592Y0035688D01*
X0224482Y0035574D01*
X0224369Y0035463D01*
X0224254Y0035354D01*
X0224136Y0035249D01*
X0224015Y0035147D01*
X0223892Y0035047D01*
X0223766Y0034951D01*
X0223638Y0034858D01*
X0223508Y0034768D01*
X0223375Y0034682D01*
X0223240Y0034598D01*
X0223104Y0034519D01*
X0222965Y0034442D01*
X0222824Y0034370D01*
X0222682Y0034300D01*
X0222538Y0034235D01*
X0222392Y0034173D01*
X0222245Y0034115D01*
X0222096Y0034060D01*
X0221946Y0034009D01*
X0221795Y0033962D01*
X0221643Y0033919D01*
X0221490Y0033880D01*
X0221335Y0033844D01*
X0221180Y0033813D01*
X0221024Y0033785D01*
X0220868Y0033761D01*
X0220711Y0033741D01*
X0220553Y0033725D01*
X0220396Y0033713D01*
X0220237Y0033705D01*
X0220079Y0033701D01*
X0219921Y0033701D01*
X0219763Y0033705D01*
X0219604Y0033713D01*
X0219447Y0033725D01*
X0219289Y0033741D01*
X0219132Y0033761D01*
X0218976Y0033785D01*
X0218820Y0033813D01*
X0218665Y0033844D01*
X0218510Y0033880D01*
X0218357Y0033919D01*
X0218205Y0033962D01*
X0218054Y0034009D01*
X0217904Y0034060D01*
X0217755Y0034115D01*
X0217608Y0034173D01*
X0217462Y0034235D01*
X0217318Y0034300D01*
X0217176Y0034370D01*
X0217035Y0034442D01*
X0216896Y0034519D01*
X0216760Y0034598D01*
X0216625Y0034682D01*
X0216492Y0034768D01*
X0216362Y0034858D01*
X0216234Y0034951D01*
X0216108Y0035047D01*
X0215985Y0035147D01*
X0215864Y0035249D01*
X0215746Y0035354D01*
X0215631Y0035463D01*
X0215518Y0035574D01*
X0215408Y0035688D01*
X0215301Y0035805D01*
X0215197Y0035924D01*
X0215096Y0036046D01*
X0214999Y0036171D01*
X0214904Y0036298D01*
X0214813Y0036427D01*
X0214724Y0036558D01*
X0214640Y0036692D01*
X0214558Y0036828D01*
X0214480Y0036965D01*
X0214406Y0037105D01*
X0214335Y0037247D01*
X0214267Y0037390D01*
X0214203Y0037535D01*
X0214143Y0037681D01*
X0214087Y0037829D01*
X0214034Y0037978D01*
X0213985Y0038129D01*
X0213940Y0038281D01*
X0213899Y0038434D01*
X0213861Y0038587D01*
X0213828Y0038742D01*
X0213798Y0038898D01*
X0213772Y0039054D01*
X0213751Y0039211D01*
X0213733Y0039368D01*
X0213719Y0039526D01*
X0213709Y0039684D01*
X0213703Y0039842D01*
X0213701Y0040000D01*
X0308701Y0210000D02*
X0308703Y0210158D01*
X0308709Y0210316D01*
X0308719Y0210474D01*
X0308733Y0210632D01*
X0308751Y0210789D01*
X0308772Y0210946D01*
X0308798Y0211102D01*
X0308828Y0211258D01*
X0308861Y0211413D01*
X0308899Y0211566D01*
X0308940Y0211719D01*
X0308985Y0211871D01*
X0309034Y0212022D01*
X0309087Y0212171D01*
X0309143Y0212319D01*
X0309203Y0212465D01*
X0309267Y0212610D01*
X0309335Y0212753D01*
X0309406Y0212895D01*
X0309480Y0213035D01*
X0309558Y0213172D01*
X0309640Y0213308D01*
X0309724Y0213442D01*
X0309813Y0213573D01*
X0309904Y0213702D01*
X0309999Y0213829D01*
X0310096Y0213954D01*
X0310197Y0214076D01*
X0310301Y0214195D01*
X0310408Y0214312D01*
X0310518Y0214426D01*
X0310631Y0214537D01*
X0310746Y0214646D01*
X0310864Y0214751D01*
X0310985Y0214853D01*
X0311108Y0214953D01*
X0311234Y0215049D01*
X0311362Y0215142D01*
X0311492Y0215232D01*
X0311625Y0215318D01*
X0311760Y0215402D01*
X0311896Y0215481D01*
X0312035Y0215558D01*
X0312176Y0215630D01*
X0312318Y0215700D01*
X0312462Y0215765D01*
X0312608Y0215827D01*
X0312755Y0215885D01*
X0312904Y0215940D01*
X0313054Y0215991D01*
X0313205Y0216038D01*
X0313357Y0216081D01*
X0313510Y0216120D01*
X0313665Y0216156D01*
X0313820Y0216187D01*
X0313976Y0216215D01*
X0314132Y0216239D01*
X0314289Y0216259D01*
X0314447Y0216275D01*
X0314604Y0216287D01*
X0314763Y0216295D01*
X0314921Y0216299D01*
X0315079Y0216299D01*
X0315237Y0216295D01*
X0315396Y0216287D01*
X0315553Y0216275D01*
X0315711Y0216259D01*
X0315868Y0216239D01*
X0316024Y0216215D01*
X0316180Y0216187D01*
X0316335Y0216156D01*
X0316490Y0216120D01*
X0316643Y0216081D01*
X0316795Y0216038D01*
X0316946Y0215991D01*
X0317096Y0215940D01*
X0317245Y0215885D01*
X0317392Y0215827D01*
X0317538Y0215765D01*
X0317682Y0215700D01*
X0317824Y0215630D01*
X0317965Y0215558D01*
X0318104Y0215481D01*
X0318240Y0215402D01*
X0318375Y0215318D01*
X0318508Y0215232D01*
X0318638Y0215142D01*
X0318766Y0215049D01*
X0318892Y0214953D01*
X0319015Y0214853D01*
X0319136Y0214751D01*
X0319254Y0214646D01*
X0319369Y0214537D01*
X0319482Y0214426D01*
X0319592Y0214312D01*
X0319699Y0214195D01*
X0319803Y0214076D01*
X0319904Y0213954D01*
X0320001Y0213829D01*
X0320096Y0213702D01*
X0320187Y0213573D01*
X0320276Y0213442D01*
X0320360Y0213308D01*
X0320442Y0213172D01*
X0320520Y0213035D01*
X0320594Y0212895D01*
X0320665Y0212753D01*
X0320733Y0212610D01*
X0320797Y0212465D01*
X0320857Y0212319D01*
X0320913Y0212171D01*
X0320966Y0212022D01*
X0321015Y0211871D01*
X0321060Y0211719D01*
X0321101Y0211566D01*
X0321139Y0211413D01*
X0321172Y0211258D01*
X0321202Y0211102D01*
X0321228Y0210946D01*
X0321249Y0210789D01*
X0321267Y0210632D01*
X0321281Y0210474D01*
X0321291Y0210316D01*
X0321297Y0210158D01*
X0321299Y0210000D01*
X0321297Y0209842D01*
X0321291Y0209684D01*
X0321281Y0209526D01*
X0321267Y0209368D01*
X0321249Y0209211D01*
X0321228Y0209054D01*
X0321202Y0208898D01*
X0321172Y0208742D01*
X0321139Y0208587D01*
X0321101Y0208434D01*
X0321060Y0208281D01*
X0321015Y0208129D01*
X0320966Y0207978D01*
X0320913Y0207829D01*
X0320857Y0207681D01*
X0320797Y0207535D01*
X0320733Y0207390D01*
X0320665Y0207247D01*
X0320594Y0207105D01*
X0320520Y0206965D01*
X0320442Y0206828D01*
X0320360Y0206692D01*
X0320276Y0206558D01*
X0320187Y0206427D01*
X0320096Y0206298D01*
X0320001Y0206171D01*
X0319904Y0206046D01*
X0319803Y0205924D01*
X0319699Y0205805D01*
X0319592Y0205688D01*
X0319482Y0205574D01*
X0319369Y0205463D01*
X0319254Y0205354D01*
X0319136Y0205249D01*
X0319015Y0205147D01*
X0318892Y0205047D01*
X0318766Y0204951D01*
X0318638Y0204858D01*
X0318508Y0204768D01*
X0318375Y0204682D01*
X0318240Y0204598D01*
X0318104Y0204519D01*
X0317965Y0204442D01*
X0317824Y0204370D01*
X0317682Y0204300D01*
X0317538Y0204235D01*
X0317392Y0204173D01*
X0317245Y0204115D01*
X0317096Y0204060D01*
X0316946Y0204009D01*
X0316795Y0203962D01*
X0316643Y0203919D01*
X0316490Y0203880D01*
X0316335Y0203844D01*
X0316180Y0203813D01*
X0316024Y0203785D01*
X0315868Y0203761D01*
X0315711Y0203741D01*
X0315553Y0203725D01*
X0315396Y0203713D01*
X0315237Y0203705D01*
X0315079Y0203701D01*
X0314921Y0203701D01*
X0314763Y0203705D01*
X0314604Y0203713D01*
X0314447Y0203725D01*
X0314289Y0203741D01*
X0314132Y0203761D01*
X0313976Y0203785D01*
X0313820Y0203813D01*
X0313665Y0203844D01*
X0313510Y0203880D01*
X0313357Y0203919D01*
X0313205Y0203962D01*
X0313054Y0204009D01*
X0312904Y0204060D01*
X0312755Y0204115D01*
X0312608Y0204173D01*
X0312462Y0204235D01*
X0312318Y0204300D01*
X0312176Y0204370D01*
X0312035Y0204442D01*
X0311896Y0204519D01*
X0311760Y0204598D01*
X0311625Y0204682D01*
X0311492Y0204768D01*
X0311362Y0204858D01*
X0311234Y0204951D01*
X0311108Y0205047D01*
X0310985Y0205147D01*
X0310864Y0205249D01*
X0310746Y0205354D01*
X0310631Y0205463D01*
X0310518Y0205574D01*
X0310408Y0205688D01*
X0310301Y0205805D01*
X0310197Y0205924D01*
X0310096Y0206046D01*
X0309999Y0206171D01*
X0309904Y0206298D01*
X0309813Y0206427D01*
X0309724Y0206558D01*
X0309640Y0206692D01*
X0309558Y0206828D01*
X0309480Y0206965D01*
X0309406Y0207105D01*
X0309335Y0207247D01*
X0309267Y0207390D01*
X0309203Y0207535D01*
X0309143Y0207681D01*
X0309087Y0207829D01*
X0309034Y0207978D01*
X0308985Y0208129D01*
X0308940Y0208281D01*
X0308899Y0208434D01*
X0308861Y0208587D01*
X0308828Y0208742D01*
X0308798Y0208898D01*
X0308772Y0209054D01*
X0308751Y0209211D01*
X0308733Y0209368D01*
X0308719Y0209526D01*
X0308709Y0209684D01*
X0308703Y0209842D01*
X0308701Y0210000D01*
X0333701Y0020000D02*
X0333703Y0020158D01*
X0333709Y0020316D01*
X0333719Y0020474D01*
X0333733Y0020632D01*
X0333751Y0020789D01*
X0333772Y0020946D01*
X0333798Y0021102D01*
X0333828Y0021258D01*
X0333861Y0021413D01*
X0333899Y0021566D01*
X0333940Y0021719D01*
X0333985Y0021871D01*
X0334034Y0022022D01*
X0334087Y0022171D01*
X0334143Y0022319D01*
X0334203Y0022465D01*
X0334267Y0022610D01*
X0334335Y0022753D01*
X0334406Y0022895D01*
X0334480Y0023035D01*
X0334558Y0023172D01*
X0334640Y0023308D01*
X0334724Y0023442D01*
X0334813Y0023573D01*
X0334904Y0023702D01*
X0334999Y0023829D01*
X0335096Y0023954D01*
X0335197Y0024076D01*
X0335301Y0024195D01*
X0335408Y0024312D01*
X0335518Y0024426D01*
X0335631Y0024537D01*
X0335746Y0024646D01*
X0335864Y0024751D01*
X0335985Y0024853D01*
X0336108Y0024953D01*
X0336234Y0025049D01*
X0336362Y0025142D01*
X0336492Y0025232D01*
X0336625Y0025318D01*
X0336760Y0025402D01*
X0336896Y0025481D01*
X0337035Y0025558D01*
X0337176Y0025630D01*
X0337318Y0025700D01*
X0337462Y0025765D01*
X0337608Y0025827D01*
X0337755Y0025885D01*
X0337904Y0025940D01*
X0338054Y0025991D01*
X0338205Y0026038D01*
X0338357Y0026081D01*
X0338510Y0026120D01*
X0338665Y0026156D01*
X0338820Y0026187D01*
X0338976Y0026215D01*
X0339132Y0026239D01*
X0339289Y0026259D01*
X0339447Y0026275D01*
X0339604Y0026287D01*
X0339763Y0026295D01*
X0339921Y0026299D01*
X0340079Y0026299D01*
X0340237Y0026295D01*
X0340396Y0026287D01*
X0340553Y0026275D01*
X0340711Y0026259D01*
X0340868Y0026239D01*
X0341024Y0026215D01*
X0341180Y0026187D01*
X0341335Y0026156D01*
X0341490Y0026120D01*
X0341643Y0026081D01*
X0341795Y0026038D01*
X0341946Y0025991D01*
X0342096Y0025940D01*
X0342245Y0025885D01*
X0342392Y0025827D01*
X0342538Y0025765D01*
X0342682Y0025700D01*
X0342824Y0025630D01*
X0342965Y0025558D01*
X0343104Y0025481D01*
X0343240Y0025402D01*
X0343375Y0025318D01*
X0343508Y0025232D01*
X0343638Y0025142D01*
X0343766Y0025049D01*
X0343892Y0024953D01*
X0344015Y0024853D01*
X0344136Y0024751D01*
X0344254Y0024646D01*
X0344369Y0024537D01*
X0344482Y0024426D01*
X0344592Y0024312D01*
X0344699Y0024195D01*
X0344803Y0024076D01*
X0344904Y0023954D01*
X0345001Y0023829D01*
X0345096Y0023702D01*
X0345187Y0023573D01*
X0345276Y0023442D01*
X0345360Y0023308D01*
X0345442Y0023172D01*
X0345520Y0023035D01*
X0345594Y0022895D01*
X0345665Y0022753D01*
X0345733Y0022610D01*
X0345797Y0022465D01*
X0345857Y0022319D01*
X0345913Y0022171D01*
X0345966Y0022022D01*
X0346015Y0021871D01*
X0346060Y0021719D01*
X0346101Y0021566D01*
X0346139Y0021413D01*
X0346172Y0021258D01*
X0346202Y0021102D01*
X0346228Y0020946D01*
X0346249Y0020789D01*
X0346267Y0020632D01*
X0346281Y0020474D01*
X0346291Y0020316D01*
X0346297Y0020158D01*
X0346299Y0020000D01*
X0346297Y0019842D01*
X0346291Y0019684D01*
X0346281Y0019526D01*
X0346267Y0019368D01*
X0346249Y0019211D01*
X0346228Y0019054D01*
X0346202Y0018898D01*
X0346172Y0018742D01*
X0346139Y0018587D01*
X0346101Y0018434D01*
X0346060Y0018281D01*
X0346015Y0018129D01*
X0345966Y0017978D01*
X0345913Y0017829D01*
X0345857Y0017681D01*
X0345797Y0017535D01*
X0345733Y0017390D01*
X0345665Y0017247D01*
X0345594Y0017105D01*
X0345520Y0016965D01*
X0345442Y0016828D01*
X0345360Y0016692D01*
X0345276Y0016558D01*
X0345187Y0016427D01*
X0345096Y0016298D01*
X0345001Y0016171D01*
X0344904Y0016046D01*
X0344803Y0015924D01*
X0344699Y0015805D01*
X0344592Y0015688D01*
X0344482Y0015574D01*
X0344369Y0015463D01*
X0344254Y0015354D01*
X0344136Y0015249D01*
X0344015Y0015147D01*
X0343892Y0015047D01*
X0343766Y0014951D01*
X0343638Y0014858D01*
X0343508Y0014768D01*
X0343375Y0014682D01*
X0343240Y0014598D01*
X0343104Y0014519D01*
X0342965Y0014442D01*
X0342824Y0014370D01*
X0342682Y0014300D01*
X0342538Y0014235D01*
X0342392Y0014173D01*
X0342245Y0014115D01*
X0342096Y0014060D01*
X0341946Y0014009D01*
X0341795Y0013962D01*
X0341643Y0013919D01*
X0341490Y0013880D01*
X0341335Y0013844D01*
X0341180Y0013813D01*
X0341024Y0013785D01*
X0340868Y0013761D01*
X0340711Y0013741D01*
X0340553Y0013725D01*
X0340396Y0013713D01*
X0340237Y0013705D01*
X0340079Y0013701D01*
X0339921Y0013701D01*
X0339763Y0013705D01*
X0339604Y0013713D01*
X0339447Y0013725D01*
X0339289Y0013741D01*
X0339132Y0013761D01*
X0338976Y0013785D01*
X0338820Y0013813D01*
X0338665Y0013844D01*
X0338510Y0013880D01*
X0338357Y0013919D01*
X0338205Y0013962D01*
X0338054Y0014009D01*
X0337904Y0014060D01*
X0337755Y0014115D01*
X0337608Y0014173D01*
X0337462Y0014235D01*
X0337318Y0014300D01*
X0337176Y0014370D01*
X0337035Y0014442D01*
X0336896Y0014519D01*
X0336760Y0014598D01*
X0336625Y0014682D01*
X0336492Y0014768D01*
X0336362Y0014858D01*
X0336234Y0014951D01*
X0336108Y0015047D01*
X0335985Y0015147D01*
X0335864Y0015249D01*
X0335746Y0015354D01*
X0335631Y0015463D01*
X0335518Y0015574D01*
X0335408Y0015688D01*
X0335301Y0015805D01*
X0335197Y0015924D01*
X0335096Y0016046D01*
X0334999Y0016171D01*
X0334904Y0016298D01*
X0334813Y0016427D01*
X0334724Y0016558D01*
X0334640Y0016692D01*
X0334558Y0016828D01*
X0334480Y0016965D01*
X0334406Y0017105D01*
X0334335Y0017247D01*
X0334267Y0017390D01*
X0334203Y0017535D01*
X0334143Y0017681D01*
X0334087Y0017829D01*
X0334034Y0017978D01*
X0333985Y0018129D01*
X0333940Y0018281D01*
X0333899Y0018434D01*
X0333861Y0018587D01*
X0333828Y0018742D01*
X0333798Y0018898D01*
X0333772Y0019054D01*
X0333751Y0019211D01*
X0333733Y0019368D01*
X0333719Y0019526D01*
X0333709Y0019684D01*
X0333703Y0019842D01*
X0333701Y0020000D01*
X0238500Y0184000D02*
X0238502Y0184161D01*
X0238508Y0184321D01*
X0238518Y0184482D01*
X0238532Y0184642D01*
X0238550Y0184802D01*
X0238571Y0184961D01*
X0238597Y0185120D01*
X0238627Y0185278D01*
X0238660Y0185435D01*
X0238698Y0185592D01*
X0238739Y0185747D01*
X0238784Y0185901D01*
X0238833Y0186054D01*
X0238886Y0186206D01*
X0238942Y0186357D01*
X0239003Y0186506D01*
X0239066Y0186654D01*
X0239134Y0186800D01*
X0239205Y0186944D01*
X0239279Y0187086D01*
X0239357Y0187227D01*
X0239439Y0187365D01*
X0239524Y0187502D01*
X0239612Y0187636D01*
X0239704Y0187768D01*
X0239799Y0187898D01*
X0239897Y0188026D01*
X0239998Y0188151D01*
X0240102Y0188273D01*
X0240209Y0188393D01*
X0240319Y0188510D01*
X0240432Y0188625D01*
X0240548Y0188736D01*
X0240667Y0188845D01*
X0240788Y0188950D01*
X0240912Y0189053D01*
X0241038Y0189153D01*
X0241166Y0189249D01*
X0241297Y0189342D01*
X0241431Y0189432D01*
X0241566Y0189519D01*
X0241704Y0189602D01*
X0241843Y0189682D01*
X0241985Y0189758D01*
X0242128Y0189831D01*
X0242273Y0189900D01*
X0242420Y0189966D01*
X0242568Y0190028D01*
X0242718Y0190086D01*
X0242869Y0190141D01*
X0243022Y0190192D01*
X0243176Y0190239D01*
X0243331Y0190282D01*
X0243487Y0190321D01*
X0243643Y0190357D01*
X0243801Y0190388D01*
X0243959Y0190416D01*
X0244118Y0190440D01*
X0244278Y0190460D01*
X0244438Y0190476D01*
X0244598Y0190488D01*
X0244759Y0190496D01*
X0244920Y0190500D01*
X0245080Y0190500D01*
X0245241Y0190496D01*
X0245402Y0190488D01*
X0245562Y0190476D01*
X0245722Y0190460D01*
X0245882Y0190440D01*
X0246041Y0190416D01*
X0246199Y0190388D01*
X0246357Y0190357D01*
X0246513Y0190321D01*
X0246669Y0190282D01*
X0246824Y0190239D01*
X0246978Y0190192D01*
X0247131Y0190141D01*
X0247282Y0190086D01*
X0247432Y0190028D01*
X0247580Y0189966D01*
X0247727Y0189900D01*
X0247872Y0189831D01*
X0248015Y0189758D01*
X0248157Y0189682D01*
X0248296Y0189602D01*
X0248434Y0189519D01*
X0248569Y0189432D01*
X0248703Y0189342D01*
X0248834Y0189249D01*
X0248962Y0189153D01*
X0249088Y0189053D01*
X0249212Y0188950D01*
X0249333Y0188845D01*
X0249452Y0188736D01*
X0249568Y0188625D01*
X0249681Y0188510D01*
X0249791Y0188393D01*
X0249898Y0188273D01*
X0250002Y0188151D01*
X0250103Y0188026D01*
X0250201Y0187898D01*
X0250296Y0187768D01*
X0250388Y0187636D01*
X0250476Y0187502D01*
X0250561Y0187365D01*
X0250643Y0187227D01*
X0250721Y0187086D01*
X0250795Y0186944D01*
X0250866Y0186800D01*
X0250934Y0186654D01*
X0250997Y0186506D01*
X0251058Y0186357D01*
X0251114Y0186206D01*
X0251167Y0186054D01*
X0251216Y0185901D01*
X0251261Y0185747D01*
X0251302Y0185592D01*
X0251340Y0185435D01*
X0251373Y0185278D01*
X0251403Y0185120D01*
X0251429Y0184961D01*
X0251450Y0184802D01*
X0251468Y0184642D01*
X0251482Y0184482D01*
X0251492Y0184321D01*
X0251498Y0184161D01*
X0251500Y0184000D01*
X0251498Y0183839D01*
X0251492Y0183679D01*
X0251482Y0183518D01*
X0251468Y0183358D01*
X0251450Y0183198D01*
X0251429Y0183039D01*
X0251403Y0182880D01*
X0251373Y0182722D01*
X0251340Y0182565D01*
X0251302Y0182408D01*
X0251261Y0182253D01*
X0251216Y0182099D01*
X0251167Y0181946D01*
X0251114Y0181794D01*
X0251058Y0181643D01*
X0250997Y0181494D01*
X0250934Y0181346D01*
X0250866Y0181200D01*
X0250795Y0181056D01*
X0250721Y0180914D01*
X0250643Y0180773D01*
X0250561Y0180635D01*
X0250476Y0180498D01*
X0250388Y0180364D01*
X0250296Y0180232D01*
X0250201Y0180102D01*
X0250103Y0179974D01*
X0250002Y0179849D01*
X0249898Y0179727D01*
X0249791Y0179607D01*
X0249681Y0179490D01*
X0249568Y0179375D01*
X0249452Y0179264D01*
X0249333Y0179155D01*
X0249212Y0179050D01*
X0249088Y0178947D01*
X0248962Y0178847D01*
X0248834Y0178751D01*
X0248703Y0178658D01*
X0248569Y0178568D01*
X0248434Y0178481D01*
X0248296Y0178398D01*
X0248157Y0178318D01*
X0248015Y0178242D01*
X0247872Y0178169D01*
X0247727Y0178100D01*
X0247580Y0178034D01*
X0247432Y0177972D01*
X0247282Y0177914D01*
X0247131Y0177859D01*
X0246978Y0177808D01*
X0246824Y0177761D01*
X0246669Y0177718D01*
X0246513Y0177679D01*
X0246357Y0177643D01*
X0246199Y0177612D01*
X0246041Y0177584D01*
X0245882Y0177560D01*
X0245722Y0177540D01*
X0245562Y0177524D01*
X0245402Y0177512D01*
X0245241Y0177504D01*
X0245080Y0177500D01*
X0244920Y0177500D01*
X0244759Y0177504D01*
X0244598Y0177512D01*
X0244438Y0177524D01*
X0244278Y0177540D01*
X0244118Y0177560D01*
X0243959Y0177584D01*
X0243801Y0177612D01*
X0243643Y0177643D01*
X0243487Y0177679D01*
X0243331Y0177718D01*
X0243176Y0177761D01*
X0243022Y0177808D01*
X0242869Y0177859D01*
X0242718Y0177914D01*
X0242568Y0177972D01*
X0242420Y0178034D01*
X0242273Y0178100D01*
X0242128Y0178169D01*
X0241985Y0178242D01*
X0241843Y0178318D01*
X0241704Y0178398D01*
X0241566Y0178481D01*
X0241431Y0178568D01*
X0241297Y0178658D01*
X0241166Y0178751D01*
X0241038Y0178847D01*
X0240912Y0178947D01*
X0240788Y0179050D01*
X0240667Y0179155D01*
X0240548Y0179264D01*
X0240432Y0179375D01*
X0240319Y0179490D01*
X0240209Y0179607D01*
X0240102Y0179727D01*
X0239998Y0179849D01*
X0239897Y0179974D01*
X0239799Y0180102D01*
X0239704Y0180232D01*
X0239612Y0180364D01*
X0239524Y0180498D01*
X0239439Y0180635D01*
X0239357Y0180773D01*
X0239279Y0180914D01*
X0239205Y0181056D01*
X0239134Y0181200D01*
X0239066Y0181346D01*
X0239003Y0181494D01*
X0238942Y0181643D01*
X0238886Y0181794D01*
X0238833Y0181946D01*
X0238784Y0182099D01*
X0238739Y0182253D01*
X0238698Y0182408D01*
X0238660Y0182565D01*
X0238627Y0182722D01*
X0238597Y0182880D01*
X0238571Y0183039D01*
X0238550Y0183198D01*
X0238532Y0183358D01*
X0238518Y0183518D01*
X0238508Y0183679D01*
X0238502Y0183839D01*
X0238500Y0184000D01*
X0143500Y0174000D02*
X0143502Y0174161D01*
X0143508Y0174321D01*
X0143518Y0174482D01*
X0143532Y0174642D01*
X0143550Y0174802D01*
X0143571Y0174961D01*
X0143597Y0175120D01*
X0143627Y0175278D01*
X0143660Y0175435D01*
X0143698Y0175592D01*
X0143739Y0175747D01*
X0143784Y0175901D01*
X0143833Y0176054D01*
X0143886Y0176206D01*
X0143942Y0176357D01*
X0144003Y0176506D01*
X0144066Y0176654D01*
X0144134Y0176800D01*
X0144205Y0176944D01*
X0144279Y0177086D01*
X0144357Y0177227D01*
X0144439Y0177365D01*
X0144524Y0177502D01*
X0144612Y0177636D01*
X0144704Y0177768D01*
X0144799Y0177898D01*
X0144897Y0178026D01*
X0144998Y0178151D01*
X0145102Y0178273D01*
X0145209Y0178393D01*
X0145319Y0178510D01*
X0145432Y0178625D01*
X0145548Y0178736D01*
X0145667Y0178845D01*
X0145788Y0178950D01*
X0145912Y0179053D01*
X0146038Y0179153D01*
X0146166Y0179249D01*
X0146297Y0179342D01*
X0146431Y0179432D01*
X0146566Y0179519D01*
X0146704Y0179602D01*
X0146843Y0179682D01*
X0146985Y0179758D01*
X0147128Y0179831D01*
X0147273Y0179900D01*
X0147420Y0179966D01*
X0147568Y0180028D01*
X0147718Y0180086D01*
X0147869Y0180141D01*
X0148022Y0180192D01*
X0148176Y0180239D01*
X0148331Y0180282D01*
X0148487Y0180321D01*
X0148643Y0180357D01*
X0148801Y0180388D01*
X0148959Y0180416D01*
X0149118Y0180440D01*
X0149278Y0180460D01*
X0149438Y0180476D01*
X0149598Y0180488D01*
X0149759Y0180496D01*
X0149920Y0180500D01*
X0150080Y0180500D01*
X0150241Y0180496D01*
X0150402Y0180488D01*
X0150562Y0180476D01*
X0150722Y0180460D01*
X0150882Y0180440D01*
X0151041Y0180416D01*
X0151199Y0180388D01*
X0151357Y0180357D01*
X0151513Y0180321D01*
X0151669Y0180282D01*
X0151824Y0180239D01*
X0151978Y0180192D01*
X0152131Y0180141D01*
X0152282Y0180086D01*
X0152432Y0180028D01*
X0152580Y0179966D01*
X0152727Y0179900D01*
X0152872Y0179831D01*
X0153015Y0179758D01*
X0153157Y0179682D01*
X0153296Y0179602D01*
X0153434Y0179519D01*
X0153569Y0179432D01*
X0153703Y0179342D01*
X0153834Y0179249D01*
X0153962Y0179153D01*
X0154088Y0179053D01*
X0154212Y0178950D01*
X0154333Y0178845D01*
X0154452Y0178736D01*
X0154568Y0178625D01*
X0154681Y0178510D01*
X0154791Y0178393D01*
X0154898Y0178273D01*
X0155002Y0178151D01*
X0155103Y0178026D01*
X0155201Y0177898D01*
X0155296Y0177768D01*
X0155388Y0177636D01*
X0155476Y0177502D01*
X0155561Y0177365D01*
X0155643Y0177227D01*
X0155721Y0177086D01*
X0155795Y0176944D01*
X0155866Y0176800D01*
X0155934Y0176654D01*
X0155997Y0176506D01*
X0156058Y0176357D01*
X0156114Y0176206D01*
X0156167Y0176054D01*
X0156216Y0175901D01*
X0156261Y0175747D01*
X0156302Y0175592D01*
X0156340Y0175435D01*
X0156373Y0175278D01*
X0156403Y0175120D01*
X0156429Y0174961D01*
X0156450Y0174802D01*
X0156468Y0174642D01*
X0156482Y0174482D01*
X0156492Y0174321D01*
X0156498Y0174161D01*
X0156500Y0174000D01*
X0156498Y0173839D01*
X0156492Y0173679D01*
X0156482Y0173518D01*
X0156468Y0173358D01*
X0156450Y0173198D01*
X0156429Y0173039D01*
X0156403Y0172880D01*
X0156373Y0172722D01*
X0156340Y0172565D01*
X0156302Y0172408D01*
X0156261Y0172253D01*
X0156216Y0172099D01*
X0156167Y0171946D01*
X0156114Y0171794D01*
X0156058Y0171643D01*
X0155997Y0171494D01*
X0155934Y0171346D01*
X0155866Y0171200D01*
X0155795Y0171056D01*
X0155721Y0170914D01*
X0155643Y0170773D01*
X0155561Y0170635D01*
X0155476Y0170498D01*
X0155388Y0170364D01*
X0155296Y0170232D01*
X0155201Y0170102D01*
X0155103Y0169974D01*
X0155002Y0169849D01*
X0154898Y0169727D01*
X0154791Y0169607D01*
X0154681Y0169490D01*
X0154568Y0169375D01*
X0154452Y0169264D01*
X0154333Y0169155D01*
X0154212Y0169050D01*
X0154088Y0168947D01*
X0153962Y0168847D01*
X0153834Y0168751D01*
X0153703Y0168658D01*
X0153569Y0168568D01*
X0153434Y0168481D01*
X0153296Y0168398D01*
X0153157Y0168318D01*
X0153015Y0168242D01*
X0152872Y0168169D01*
X0152727Y0168100D01*
X0152580Y0168034D01*
X0152432Y0167972D01*
X0152282Y0167914D01*
X0152131Y0167859D01*
X0151978Y0167808D01*
X0151824Y0167761D01*
X0151669Y0167718D01*
X0151513Y0167679D01*
X0151357Y0167643D01*
X0151199Y0167612D01*
X0151041Y0167584D01*
X0150882Y0167560D01*
X0150722Y0167540D01*
X0150562Y0167524D01*
X0150402Y0167512D01*
X0150241Y0167504D01*
X0150080Y0167500D01*
X0149920Y0167500D01*
X0149759Y0167504D01*
X0149598Y0167512D01*
X0149438Y0167524D01*
X0149278Y0167540D01*
X0149118Y0167560D01*
X0148959Y0167584D01*
X0148801Y0167612D01*
X0148643Y0167643D01*
X0148487Y0167679D01*
X0148331Y0167718D01*
X0148176Y0167761D01*
X0148022Y0167808D01*
X0147869Y0167859D01*
X0147718Y0167914D01*
X0147568Y0167972D01*
X0147420Y0168034D01*
X0147273Y0168100D01*
X0147128Y0168169D01*
X0146985Y0168242D01*
X0146843Y0168318D01*
X0146704Y0168398D01*
X0146566Y0168481D01*
X0146431Y0168568D01*
X0146297Y0168658D01*
X0146166Y0168751D01*
X0146038Y0168847D01*
X0145912Y0168947D01*
X0145788Y0169050D01*
X0145667Y0169155D01*
X0145548Y0169264D01*
X0145432Y0169375D01*
X0145319Y0169490D01*
X0145209Y0169607D01*
X0145102Y0169727D01*
X0144998Y0169849D01*
X0144897Y0169974D01*
X0144799Y0170102D01*
X0144704Y0170232D01*
X0144612Y0170364D01*
X0144524Y0170498D01*
X0144439Y0170635D01*
X0144357Y0170773D01*
X0144279Y0170914D01*
X0144205Y0171056D01*
X0144134Y0171200D01*
X0144066Y0171346D01*
X0144003Y0171494D01*
X0143942Y0171643D01*
X0143886Y0171794D01*
X0143833Y0171946D01*
X0143784Y0172099D01*
X0143739Y0172253D01*
X0143698Y0172408D01*
X0143660Y0172565D01*
X0143627Y0172722D01*
X0143597Y0172880D01*
X0143571Y0173039D01*
X0143550Y0173198D01*
X0143532Y0173358D01*
X0143518Y0173518D01*
X0143508Y0173679D01*
X0143502Y0173839D01*
X0143500Y0174000D01*
D11*
X0025632Y0003049D02*
X0026700Y0004116D01*
X0026700Y0005184D01*
X0025632Y0006251D01*
X0020295Y0006251D01*
X0020295Y0005184D02*
X0020295Y0007319D01*
X0022430Y0009494D02*
X0025632Y0009494D01*
X0026700Y0010562D01*
X0026700Y0013764D01*
X0022430Y0013764D01*
X0022430Y0017007D02*
X0022430Y0019142D01*
X0023497Y0020210D01*
X0026700Y0020210D01*
X0026700Y0017007D01*
X0025632Y0015940D01*
X0024565Y0017007D01*
X0024565Y0020210D01*
X0026700Y0022385D02*
X0022430Y0022385D01*
X0022430Y0025588D01*
X0023497Y0026655D01*
X0026700Y0026655D01*
X0026700Y0035276D02*
X0020295Y0035276D01*
X0022430Y0037411D01*
X0020295Y0039546D01*
X0026700Y0039546D01*
X0022430Y0042789D02*
X0022430Y0044924D01*
X0023497Y0045992D01*
X0026700Y0045992D01*
X0026700Y0042789D01*
X0025632Y0041721D01*
X0024565Y0042789D01*
X0024565Y0045992D01*
X0026700Y0048167D02*
X0022430Y0048167D01*
X0022430Y0051370D01*
X0023497Y0052437D01*
X0026700Y0052437D01*
X0022430Y0054612D02*
X0025632Y0054612D01*
X0026700Y0055680D01*
X0026700Y0058883D01*
X0022430Y0058883D01*
X0026700Y0064261D02*
X0026700Y0062126D01*
X0025632Y0061058D01*
X0023497Y0061058D01*
X0022430Y0062126D01*
X0022430Y0064261D01*
X0023497Y0065328D01*
X0024565Y0065328D01*
X0024565Y0061058D01*
X0020295Y0067503D02*
X0020295Y0068571D01*
X0026700Y0068571D01*
X0026700Y0067503D02*
X0026700Y0069639D01*
X0020295Y0078246D02*
X0026700Y0078246D01*
X0026700Y0082516D01*
X0026700Y0085759D02*
X0026700Y0087894D01*
X0025632Y0088962D01*
X0023497Y0088962D01*
X0022430Y0087894D01*
X0022430Y0085759D01*
X0023497Y0084691D01*
X0025632Y0084691D01*
X0026700Y0085759D01*
X0022430Y0091137D02*
X0026700Y0093272D01*
X0022430Y0095407D01*
X0026700Y0100785D02*
X0026700Y0098650D01*
X0025632Y0097582D01*
X0023497Y0097582D01*
X0022430Y0098650D01*
X0022430Y0100785D01*
X0023497Y0101853D01*
X0024565Y0101853D01*
X0024565Y0097582D01*
X0026700Y0104028D02*
X0022430Y0104028D01*
X0024565Y0104028D02*
X0022430Y0106163D01*
X0022430Y0107231D01*
X0022430Y0110467D02*
X0022430Y0112602D01*
X0023497Y0113670D01*
X0026700Y0113670D01*
X0026700Y0110467D01*
X0025632Y0109399D01*
X0024565Y0110467D01*
X0024565Y0113670D01*
X0026700Y0126561D02*
X0026700Y0122290D01*
X0022430Y0126561D01*
X0021362Y0126561D01*
X0020295Y0125493D01*
X0020295Y0123358D01*
X0021362Y0122290D01*
X0025632Y0128736D02*
X0021362Y0128736D01*
X0020295Y0129803D01*
X0020295Y0131938D01*
X0021362Y0133006D01*
X0025632Y0133006D01*
X0026700Y0131938D01*
X0026700Y0129803D01*
X0025632Y0128736D01*
X0021362Y0133006D01*
X0022430Y0135181D02*
X0020295Y0137316D01*
X0026700Y0137316D01*
X0026700Y0135181D02*
X0026700Y0139452D01*
X0026700Y0144829D02*
X0020295Y0144829D01*
X0023497Y0141627D01*
X0023497Y0145897D01*
X0026700Y0152343D02*
X0026700Y0148072D01*
X0022430Y0152343D01*
X0021362Y0152343D01*
X0020295Y0151275D01*
X0020295Y0149140D01*
X0021362Y0148072D01*
X0021362Y0154518D02*
X0020295Y0155585D01*
X0020295Y0157720D01*
X0021362Y0158788D01*
X0022430Y0158788D01*
X0023497Y0157720D01*
X0023497Y0156653D01*
X0023497Y0157720D02*
X0024565Y0158788D01*
X0025632Y0158788D01*
X0026700Y0157720D01*
X0026700Y0155585D01*
X0025632Y0154518D01*
X0020295Y0160963D02*
X0020295Y0165234D01*
X0021362Y0165234D01*
X0025632Y0160963D01*
X0026700Y0160963D01*
X0025632Y0167409D02*
X0026700Y0168476D01*
X0026700Y0170611D01*
X0025632Y0171679D01*
X0021362Y0171679D01*
X0020295Y0170611D01*
X0020295Y0168476D01*
X0021362Y0167409D01*
X0022430Y0167409D01*
X0023497Y0168476D01*
X0023497Y0171679D01*
X0020295Y0178124D02*
X0020295Y0173854D01*
X0023497Y0173854D01*
X0022430Y0175989D01*
X0022430Y0177057D01*
X0023497Y0178124D01*
X0025632Y0178124D01*
X0026700Y0177057D01*
X0026700Y0174922D01*
X0025632Y0173854D01*
D12*
X0260000Y0020000D03*
X0270000Y0020000D03*
X0280000Y0020000D03*
X0290000Y0020000D03*
X0300000Y0020000D03*
X0310000Y0020000D03*
X0320000Y0020000D03*
X0250000Y0020000D03*
X0240000Y0210000D03*
X0250000Y0210000D03*
X0260000Y0210000D03*
X0270000Y0210000D03*
X0280000Y0210000D03*
X0290000Y0210000D03*
X0300000Y0210000D03*
X0230000Y0210000D03*
X0170000Y0020000D03*
X0180000Y0020000D03*
X0190000Y0020000D03*
X0200000Y0020000D03*
X0210000Y0020000D03*
X0220000Y0020000D03*
X0230000Y0020000D03*
X0160000Y0020000D03*
X0150000Y0210000D03*
X0160000Y0210000D03*
X0170000Y0210000D03*
X0180000Y0210000D03*
X0190000Y0210000D03*
X0200000Y0210000D03*
X0210000Y0210000D03*
X0140000Y0210000D03*
X0064000Y0210000D03*
X0074000Y0210000D03*
X0084000Y0210000D03*
X0094000Y0210000D03*
X0104000Y0210000D03*
X0114000Y0210000D03*
X0124000Y0210000D03*
X0054000Y0210000D03*
X0330000Y0040000D03*
X0340000Y0040000D03*
X0330000Y0210000D03*
X0340000Y0210000D03*
X0090000Y0020000D03*
X0100000Y0020000D03*
X0110000Y0020000D03*
X0120000Y0020000D03*
X0130000Y0020000D03*
X0140000Y0020000D03*
D13*
X0340000Y0130000D03*
X0330000Y0130000D03*
X0340000Y0140000D03*
X0330000Y0140000D03*
X0340000Y0150000D03*
X0330000Y0150000D03*
X0340000Y0160000D03*
X0330000Y0160000D03*
X0340000Y0170000D03*
X0330000Y0170000D03*
X0340000Y0180000D03*
X0330000Y0180000D03*
X0340000Y0190000D03*
X0330000Y0190000D03*
X0340000Y0200000D03*
X0330000Y0200000D03*
X0340000Y0050000D03*
X0330000Y0050000D03*
X0340000Y0060000D03*
X0330000Y0060000D03*
X0340000Y0070000D03*
X0330000Y0070000D03*
X0340000Y0080000D03*
X0330000Y0080000D03*
X0340000Y0090000D03*
X0330000Y0090000D03*
X0340000Y0100000D03*
X0330000Y0100000D03*
X0340000Y0110000D03*
X0330000Y0110000D03*
X0340000Y0120000D03*
X0330000Y0120000D03*
D14*
X0210000Y0068000D02*
X0210000Y0062000D01*
X0200000Y0062000D02*
X0200000Y0068000D01*
X0190000Y0068000D02*
X0190000Y0062000D01*
X0180000Y0062000D02*
X0180000Y0068000D01*
X0095000Y0172000D02*
X0095000Y0178000D01*
X0105000Y0178000D02*
X0105000Y0172000D01*
X0115000Y0172000D02*
X0115000Y0178000D01*
X0130000Y0053000D02*
X0130000Y0047000D01*
X0120000Y0047000D02*
X0120000Y0053000D01*
X0110000Y0053000D02*
X0110000Y0047000D01*
X0100000Y0047000D02*
X0100000Y0053000D01*
D15*
X0255000Y0085000D03*
X0245000Y0085000D03*
X0160000Y0085000D03*
X0150000Y0085000D03*
X0235000Y0110000D03*
X0245000Y0110000D03*
X0140000Y0100000D03*
X0150000Y0100000D03*
D16*
X0315000Y0130000D03*
X0275000Y0130000D03*
D17*
X0216811Y0178937D03*
X0216811Y0171063D03*
X0208937Y0178937D03*
X0208937Y0171063D03*
X0201063Y0178937D03*
X0201063Y0171063D03*
X0193189Y0178937D03*
X0193189Y0171063D03*
X0291063Y0155000D03*
X0298937Y0155000D03*
X0290000Y0083937D03*
X0290000Y0076063D03*
D18*
X0180000Y0100000D03*
X0187500Y0095000D03*
X0180000Y0090000D03*
X0045000Y0065000D03*
X0045000Y0105000D03*
X0105000Y0065000D03*
X0105000Y0105000D03*
X0045000Y0120000D03*
X0045000Y0160000D03*
X0105000Y0120000D03*
X0105000Y0160000D03*
X0160000Y0045000D03*
X0200000Y0045000D03*
X0290000Y0100000D03*
X0300000Y0100000D03*
X0300000Y0110000D03*
D19*
X0060000Y0100000D03*
X0060000Y0110000D03*
X0090000Y0110000D03*
X0090000Y0100000D03*
X0060000Y0120000D03*
X0060000Y0130000D03*
X0090000Y0120000D03*
X0090000Y0130000D03*
D20*
X0179921Y0125000D03*
X0190079Y0125000D03*
D21*
X0261555Y0044754D02*
X0262075Y0044234D01*
X0260850Y0043021D01*
X0259129Y0043030D01*
X0257916Y0044255D01*
X0257925Y0045976D01*
X0259150Y0047189D01*
X0260871Y0047180D01*
X0262084Y0045955D01*
X0262075Y0044234D01*
X0261297Y0044561D01*
X0260531Y0043803D01*
X0259456Y0043808D01*
X0258698Y0044574D01*
X0258703Y0045649D01*
X0259469Y0046407D01*
X0260544Y0046402D01*
X0261302Y0045636D01*
X0261297Y0044561D01*
X0260518Y0044888D01*
X0260212Y0044584D01*
X0259783Y0044587D01*
X0259479Y0044893D01*
X0259482Y0045322D01*
X0259788Y0045626D01*
X0260217Y0045623D01*
X0260521Y0045317D01*
X0260518Y0044888D01*
X0301555Y0044544D02*
X0302075Y0044024D01*
X0300850Y0042811D01*
X0299129Y0042820D01*
X0297916Y0044045D01*
X0297925Y0045766D01*
X0299150Y0046979D01*
X0300871Y0046970D01*
X0302084Y0045745D01*
X0302075Y0044024D01*
X0301297Y0044351D01*
X0300531Y0043593D01*
X0299456Y0043598D01*
X0298698Y0044364D01*
X0298703Y0045439D01*
X0299469Y0046197D01*
X0300544Y0046192D01*
X0301302Y0045426D01*
X0301297Y0044351D01*
X0300518Y0044678D01*
X0300212Y0044374D01*
X0299783Y0044377D01*
X0299479Y0044683D01*
X0299482Y0045112D01*
X0299788Y0045416D01*
X0300217Y0045413D01*
X0300521Y0045107D01*
X0300518Y0044678D01*
D22*
X0255000Y0121700D02*
X0255000Y0128300D01*
X0245000Y0128300D02*
X0245000Y0121700D01*
X0235000Y0121700D02*
X0235000Y0128300D01*
X0160000Y0118300D02*
X0160000Y0111700D01*
X0150000Y0111700D02*
X0150000Y0118300D01*
X0140000Y0118300D02*
X0140000Y0111700D01*
D23*
X0186500Y0094000D02*
X0186500Y0071500D01*
X0185000Y0070000D01*
X0185000Y0044500D01*
X0161000Y0020500D01*
X0186500Y0094000D02*
X0187500Y0095000D01*
X0161000Y0020500D02*
X0160000Y0020000D01*
X0105500Y0119500D02*
X0105500Y0106000D01*
X0105000Y0105000D01*
X0105500Y0119500D02*
X0105000Y0120000D01*
X0060500Y0109000D02*
X0084500Y0109000D01*
X0089000Y0104500D01*
X0104000Y0104500D01*
X0060500Y0109000D02*
X0060000Y0110000D01*
X0104000Y0104500D02*
X0105000Y0105000D01*
X0104000Y0065500D02*
X0101000Y0065500D01*
X0045500Y0065500D01*
X0045000Y0065000D01*
X0104000Y0065500D02*
X0105000Y0065000D01*
X0101000Y0065500D02*
X0101000Y0050500D01*
X0100000Y0050000D01*
X0290000Y0154000D02*
X0290000Y0145000D01*
X0275000Y0130000D01*
X0290000Y0154000D02*
X0291063Y0155000D01*
X0179000Y0065500D02*
X0179000Y0083500D01*
X0174500Y0088000D01*
X0174500Y0095500D01*
X0179000Y0100000D01*
X0179000Y0065500D02*
X0180000Y0065000D01*
X0180000Y0100000D02*
X0179000Y0100000D01*
X0275000Y0131500D02*
X0260000Y0131500D01*
X0257000Y0134500D01*
X0189500Y0134500D01*
X0180500Y0125500D01*
X0275000Y0130000D02*
X0275000Y0131500D01*
X0180500Y0125500D02*
X0179921Y0125000D01*
X0045500Y0119500D02*
X0045500Y0106000D01*
X0045000Y0105000D01*
X0045500Y0119500D02*
X0045000Y0120000D01*
X0045500Y0121000D02*
X0059000Y0121000D01*
X0060000Y0120000D01*
X0045500Y0121000D02*
X0045000Y0120000D01*
X0110000Y0050000D02*
X0110000Y0029500D01*
X0119000Y0020500D01*
X0120000Y0020000D01*
X0290000Y0100000D02*
X0290000Y0091000D01*
X0296000Y0085000D01*
X0296000Y0082000D01*
X0290000Y0076000D01*
X0200000Y0076000D01*
X0189500Y0065500D01*
X0290000Y0076000D02*
X0290000Y0076063D01*
X0190000Y0065000D02*
X0189500Y0065500D01*
X0120000Y0020000D02*
X0144500Y0044500D01*
X0159500Y0044500D01*
X0160000Y0045000D01*
X0045500Y0160000D02*
X0045500Y0143500D01*
X0059000Y0130000D01*
X0045500Y0160000D02*
X0045000Y0160000D01*
X0059000Y0130000D02*
X0060000Y0130000D01*
X0150500Y0100000D02*
X0150500Y0085000D01*
X0150000Y0085000D01*
X0216500Y0170500D02*
X0170000Y0124000D01*
X0158000Y0124000D01*
X0149000Y0115000D02*
X0157250Y0123250D01*
X0158000Y0124000D01*
X0216500Y0170500D02*
X0216811Y0171063D01*
X0150000Y0115000D02*
X0149000Y0115000D01*
X0116000Y0164500D02*
X0116000Y0175000D01*
X0157250Y0123250D02*
X0116750Y0163750D01*
X0116000Y0164500D01*
X0116000Y0175000D02*
X0115000Y0175000D01*
X0150500Y0115000D02*
X0150500Y0100000D01*
X0150000Y0100000D01*
X0150000Y0115000D02*
X0150500Y0115000D01*
X0060000Y0130000D02*
X0083000Y0130000D01*
X0116750Y0163750D01*
X0095000Y0175000D02*
X0123500Y0203500D01*
X0134000Y0203500D01*
X0140000Y0209500D01*
X0140000Y0210000D01*
X0200000Y0065000D02*
X0200000Y0052000D01*
X0191000Y0043000D01*
X0191000Y0020500D01*
X0190000Y0020000D01*
X0209000Y0064000D02*
X0209000Y0044500D01*
X0200000Y0035500D01*
X0200000Y0020000D01*
X0209000Y0064000D02*
X0210000Y0065000D01*
X0161000Y0115000D02*
X0161000Y0104500D01*
X0161000Y0085000D01*
X0160000Y0085000D01*
X0160000Y0115000D02*
X0161000Y0115000D01*
X0255500Y0085000D02*
X0290000Y0085000D01*
X0290000Y0083937D01*
X0255500Y0085000D02*
X0255500Y0124000D01*
X0255000Y0125000D01*
X0255000Y0085000D02*
X0255500Y0085000D01*
X0161000Y0104500D02*
X0218000Y0104500D01*
X0243500Y0079000D01*
X0248000Y0079000D01*
X0254000Y0085000D01*
X0255000Y0085000D01*
X0200000Y0179500D02*
X0194000Y0179500D01*
X0193189Y0178937D01*
X0200000Y0179500D02*
X0201063Y0178937D01*
X0201500Y0179500D02*
X0207500Y0179500D01*
X0208937Y0178937D01*
X0201500Y0179500D02*
X0201063Y0178937D01*
X0236000Y0124000D02*
X0236000Y0110500D01*
X0235000Y0110000D01*
X0236000Y0124000D02*
X0235000Y0125000D01*
X0245000Y0085000D02*
X0245000Y0110000D01*
X0245000Y0125000D01*
X0300500Y0100000D02*
X0300500Y0046000D01*
X0300000Y0044895D01*
X0300000Y0100000D02*
X0300500Y0100000D01*
X0260000Y0044500D02*
X0245000Y0044500D01*
X0221000Y0020500D01*
X0260000Y0044500D02*
X0260000Y0045105D01*
X0221000Y0020500D02*
X0220000Y0020000D01*
X0300500Y0110500D02*
X0300500Y0116500D01*
X0314000Y0130000D01*
X0300500Y0110500D02*
X0300000Y0110000D01*
X0314000Y0130000D02*
X0315000Y0130000D01*
X0299000Y0154000D02*
X0299000Y0143500D01*
X0312500Y0130000D01*
X0299000Y0154000D02*
X0298937Y0155000D01*
X0312500Y0130000D02*
X0315000Y0130000D01*
X0218000Y0179500D02*
X0222500Y0179500D01*
X0243500Y0200500D01*
X0251000Y0200500D01*
X0260000Y0209500D01*
X0218000Y0179500D02*
X0216811Y0178937D01*
X0260000Y0209500D02*
X0260000Y0210000D01*
X0192500Y0172000D02*
X0188000Y0176500D01*
X0188000Y0181000D01*
X0210500Y0203500D01*
X0243500Y0203500D01*
X0250000Y0210000D01*
X0193189Y0171063D02*
X0192500Y0172000D01*
D24*
X0005000Y0225000D02*
X0005000Y0005000D01*
X0355000Y0005000D01*
X0355000Y0225000D01*
X0005000Y0225000D01*
X0188500Y0056885D02*
X0188946Y0056700D01*
X0191054Y0056700D01*
X0193002Y0057507D01*
X0194493Y0058998D01*
X0195000Y0060222D01*
X0195507Y0058998D01*
X0196500Y0058005D01*
X0196500Y0053450D01*
X0189017Y0045967D01*
X0188500Y0045450D01*
X0188500Y0056885D01*
X0204900Y0047030D02*
X0202440Y0049490D01*
X0202967Y0050017D01*
X0203500Y0051304D01*
X0203500Y0058005D01*
X0204493Y0058998D01*
X0205000Y0060222D01*
X0205500Y0059014D01*
X0205500Y0045950D01*
X0204900Y0045350D01*
X0204900Y0047030D01*
X0200696Y0079500D02*
X0199304Y0079500D01*
X0198017Y0078967D01*
X0191971Y0072920D01*
X0191054Y0073300D01*
X0190000Y0073300D01*
X0190000Y0090570D01*
X0192400Y0092970D01*
X0192400Y0097030D01*
X0189530Y0099900D01*
X0185470Y0099900D01*
X0184900Y0099330D01*
X0184900Y0101000D01*
X0216550Y0101000D01*
X0238050Y0079500D01*
X0200696Y0079500D01*
X0257257Y0079550D02*
X0259207Y0081500D01*
X0285520Y0081500D01*
X0285700Y0081064D01*
X0286765Y0080000D01*
X0286265Y0079500D01*
X0253450Y0079500D01*
X0253500Y0079550D01*
X0257257Y0079550D01*
X0195000Y0023485D02*
X0194500Y0023985D01*
X0194500Y0041550D01*
X0195510Y0042560D01*
X0197970Y0040100D01*
X0199650Y0040100D01*
X0198017Y0038467D01*
X0197033Y0037483D01*
X0196500Y0036196D01*
X0196500Y0024985D01*
X0195000Y0023485D01*
X0186601Y0025087D02*
X0185000Y0023485D01*
X0183399Y0025087D01*
X0181193Y0026000D01*
X0178807Y0026000D01*
X0176601Y0025087D01*
X0175000Y0023485D01*
X0173399Y0025087D01*
X0171375Y0025925D01*
X0187500Y0042050D01*
X0187500Y0025459D01*
X0186601Y0025087D01*
X0206998Y0072493D02*
X0205507Y0071002D01*
X0205000Y0069778D01*
X0204493Y0071002D01*
X0203002Y0072493D01*
X0202986Y0072500D01*
X0207014Y0072500D01*
X0206998Y0072493D01*
X0221193Y0026000D02*
X0218807Y0026000D01*
X0216601Y0025087D01*
X0215000Y0023485D01*
X0213399Y0025087D01*
X0211193Y0026000D01*
X0208807Y0026000D01*
X0206601Y0025087D01*
X0205000Y0023485D01*
X0203500Y0024985D01*
X0203500Y0034050D01*
X0208901Y0039451D01*
X0208901Y0038539D01*
X0209657Y0035716D01*
X0211118Y0033185D01*
X0213185Y0031118D01*
X0215716Y0029657D01*
X0218539Y0028901D01*
X0221461Y0028901D01*
X0224284Y0029657D01*
X0226469Y0030918D01*
X0221446Y0025895D01*
X0221193Y0026000D01*
X0336515Y0105000D02*
X0335000Y0103485D01*
X0333485Y0105000D01*
X0335000Y0106515D01*
X0336515Y0105000D01*
X0336515Y0095000D02*
X0335000Y0093485D01*
X0333485Y0095000D01*
X0335000Y0096515D01*
X0336515Y0095000D01*
X0336515Y0085000D02*
X0335000Y0083485D01*
X0333485Y0085000D01*
X0335000Y0086515D01*
X0336515Y0085000D01*
X0336515Y0075000D02*
X0335000Y0073485D01*
X0333485Y0075000D01*
X0335000Y0076515D01*
X0336515Y0075000D01*
X0336515Y0065000D02*
X0335000Y0063485D01*
X0333485Y0065000D01*
X0335000Y0066515D01*
X0336515Y0065000D01*
X0336515Y0055000D02*
X0335000Y0053485D01*
X0333485Y0055000D01*
X0335000Y0056515D01*
X0336515Y0055000D01*
X0182030Y0095100D02*
X0182600Y0095670D01*
X0182600Y0094330D01*
X0182030Y0094900D01*
X0178850Y0094900D01*
X0179050Y0095100D01*
X0182030Y0095100D01*
X0183000Y0086070D02*
X0183000Y0072950D01*
X0182678Y0072627D01*
X0182500Y0072701D01*
X0182500Y0084196D01*
X0182098Y0085168D01*
X0183000Y0086070D01*
X0008185Y0011118D02*
X0010716Y0009657D01*
X0013539Y0008901D01*
X0016461Y0008901D01*
X0018892Y0009552D01*
X0018822Y0009523D01*
X0018090Y0008792D01*
X0017804Y0008100D01*
X0008100Y0008100D01*
X0008100Y0011203D01*
X0008185Y0011118D01*
X0155000Y0087707D02*
X0154000Y0088707D01*
X0154000Y0096293D01*
X0155450Y0097743D01*
X0155450Y0102257D01*
X0154000Y0103707D01*
X0154000Y0107780D01*
X0154747Y0108528D01*
X0155000Y0109138D01*
X0155253Y0108528D01*
X0156828Y0106953D01*
X0157500Y0106674D01*
X0157500Y0090207D01*
X0155000Y0087707D01*
X0336515Y0135000D02*
X0335000Y0133485D01*
X0333485Y0135000D01*
X0335000Y0136515D01*
X0336515Y0135000D01*
X0336515Y0145000D02*
X0335000Y0143485D01*
X0333485Y0145000D01*
X0335000Y0146515D01*
X0336515Y0145000D01*
X0336515Y0155000D02*
X0335000Y0153485D01*
X0333485Y0155000D01*
X0335000Y0156515D01*
X0336515Y0155000D01*
X0336515Y0165000D02*
X0335000Y0163485D01*
X0333485Y0165000D01*
X0335000Y0166515D01*
X0336515Y0165000D01*
X0336515Y0175000D02*
X0335000Y0173485D01*
X0333485Y0175000D01*
X0335000Y0176515D01*
X0336515Y0175000D01*
X0336515Y0185000D02*
X0335000Y0183485D01*
X0333485Y0185000D01*
X0335000Y0186515D01*
X0336515Y0185000D01*
X0336515Y0195000D02*
X0335000Y0193485D01*
X0333485Y0195000D01*
X0335000Y0196515D01*
X0336515Y0195000D01*
X0335000Y0203485D02*
X0333485Y0205000D01*
X0335000Y0206515D01*
X0336515Y0205000D01*
X0335000Y0203485D01*
X0333485Y0045000D02*
X0335000Y0046515D01*
X0336515Y0045000D01*
X0335000Y0043485D01*
X0333485Y0045000D01*
X0335000Y0126515D02*
X0336515Y0125000D01*
X0335000Y0123485D01*
X0333485Y0125000D01*
X0335000Y0126515D01*
X0336515Y0115000D02*
X0335000Y0113485D01*
X0333485Y0115000D01*
X0335000Y0116515D01*
X0336515Y0115000D01*
X0250450Y0107743D02*
X0250450Y0112257D01*
X0248500Y0114207D01*
X0248500Y0117280D01*
X0249747Y0118528D01*
X0250000Y0119138D01*
X0250253Y0118528D01*
X0251828Y0116953D01*
X0252000Y0116881D01*
X0252000Y0089707D01*
X0250000Y0087707D01*
X0248500Y0089207D01*
X0248500Y0105793D01*
X0250450Y0107743D01*
X0240000Y0112707D02*
X0239500Y0113207D01*
X0239500Y0118280D01*
X0239747Y0118528D01*
X0240000Y0119138D01*
X0240253Y0118528D01*
X0241500Y0117280D01*
X0241500Y0114207D01*
X0240000Y0112707D01*
X0229550Y0112257D02*
X0229550Y0107743D01*
X0232743Y0104550D01*
X0237257Y0104550D01*
X0240000Y0107293D01*
X0241500Y0105793D01*
X0241500Y0089207D01*
X0239871Y0087579D01*
X0219983Y0107467D01*
X0218696Y0108000D01*
X0164500Y0108000D01*
X0164500Y0108280D01*
X0164747Y0108528D01*
X0165600Y0110586D01*
X0165600Y0119414D01*
X0165150Y0120500D01*
X0170696Y0120500D01*
X0171983Y0121033D01*
X0172967Y0122017D01*
X0174821Y0123872D01*
X0174821Y0122888D01*
X0177809Y0119900D01*
X0182034Y0119900D01*
X0185000Y0122866D01*
X0187966Y0119900D01*
X0192191Y0119900D01*
X0195179Y0122888D01*
X0195179Y0127112D01*
X0192191Y0130100D01*
X0190050Y0130100D01*
X0190950Y0131000D01*
X0230057Y0131000D01*
X0229400Y0129414D01*
X0229400Y0120586D01*
X0230253Y0118528D01*
X0231828Y0116953D01*
X0232500Y0116674D01*
X0232500Y0115207D01*
X0229550Y0112257D01*
X0240000Y0130862D02*
X0239943Y0131000D01*
X0240057Y0131000D01*
X0240000Y0130862D01*
X0250000Y0130862D02*
X0249943Y0131000D01*
X0250057Y0131000D01*
X0250000Y0130862D01*
X0212874Y0175702D02*
X0213576Y0175000D01*
X0212874Y0174298D01*
X0212172Y0175000D01*
X0212874Y0175702D01*
X0205000Y0175702D02*
X0205702Y0175000D01*
X0205000Y0174298D01*
X0204298Y0175000D01*
X0205000Y0175702D01*
X0197126Y0175702D02*
X0197828Y0175000D01*
X0197126Y0174298D01*
X0196424Y0175000D01*
X0197126Y0175702D01*
X0221050Y0183000D02*
X0219920Y0183000D01*
X0219684Y0183237D01*
X0217820Y0184009D01*
X0215802Y0184009D01*
X0213938Y0183237D01*
X0212874Y0182172D01*
X0211810Y0183237D01*
X0209946Y0184009D01*
X0207928Y0184009D01*
X0206064Y0183237D01*
X0205828Y0183000D01*
X0204172Y0183000D01*
X0203936Y0183237D01*
X0202072Y0184009D01*
X0200054Y0184009D01*
X0198190Y0183237D01*
X0197954Y0183000D01*
X0196298Y0183000D01*
X0196062Y0183237D01*
X0195443Y0183493D01*
X0211950Y0200000D01*
X0238050Y0200000D01*
X0221050Y0183000D01*
X0249550Y0204000D02*
X0249550Y0204000D01*
X0248950Y0204000D01*
X0248950Y0204000D01*
X0249550Y0204000D01*
X0184500Y0175804D02*
X0185033Y0174517D01*
X0186017Y0173533D01*
X0188117Y0171433D01*
X0188117Y0170054D01*
X0188889Y0168190D01*
X0190316Y0166763D01*
X0192180Y0165991D01*
X0194198Y0165991D01*
X0196062Y0166763D01*
X0197126Y0167828D01*
X0198190Y0166763D01*
X0200054Y0165991D01*
X0202072Y0165991D01*
X0203936Y0166763D01*
X0205000Y0167828D01*
X0206064Y0166763D01*
X0207301Y0166251D01*
X0168550Y0127500D01*
X0157950Y0127500D01*
X0119717Y0165733D01*
X0119717Y0165733D01*
X0119500Y0165950D01*
X0119500Y0169014D01*
X0120300Y0170946D01*
X0120300Y0179054D01*
X0119493Y0181002D01*
X0118002Y0182493D01*
X0116054Y0183300D01*
X0113946Y0183300D01*
X0111998Y0182493D01*
X0110507Y0181002D01*
X0110000Y0179778D01*
X0109493Y0181002D01*
X0108002Y0182493D01*
X0107607Y0182657D01*
X0124950Y0200000D01*
X0134696Y0200000D01*
X0135983Y0200533D01*
X0139450Y0204000D01*
X0141193Y0204000D01*
X0143399Y0204913D01*
X0145000Y0206515D01*
X0146601Y0204913D01*
X0148807Y0204000D01*
X0151193Y0204000D01*
X0153399Y0204913D01*
X0155000Y0206515D01*
X0156601Y0204913D01*
X0158807Y0204000D01*
X0161193Y0204000D01*
X0163399Y0204913D01*
X0165000Y0206515D01*
X0166601Y0204913D01*
X0168807Y0204000D01*
X0171193Y0204000D01*
X0173399Y0204913D01*
X0175000Y0206515D01*
X0176601Y0204913D01*
X0178807Y0204000D01*
X0181193Y0204000D01*
X0183399Y0204913D01*
X0185000Y0206515D01*
X0186601Y0204913D01*
X0188807Y0204000D01*
X0191193Y0204000D01*
X0193399Y0204913D01*
X0195000Y0206515D01*
X0196601Y0204913D01*
X0198807Y0204000D01*
X0201193Y0204000D01*
X0203399Y0204913D01*
X0205000Y0206515D01*
X0206601Y0204913D01*
X0206858Y0204807D01*
X0185033Y0182983D01*
X0184500Y0181696D01*
X0184500Y0180304D01*
X0184500Y0175804D01*
X0161300Y0172512D02*
X0161300Y0175488D01*
X0160530Y0178362D01*
X0159042Y0180938D01*
X0156938Y0183042D01*
X0154362Y0184530D01*
X0151488Y0185300D01*
X0148512Y0185300D01*
X0145638Y0184530D01*
X0143062Y0183042D01*
X0140958Y0180938D01*
X0139470Y0178362D01*
X0138700Y0175488D01*
X0138700Y0172512D01*
X0139470Y0169638D01*
X0140958Y0167062D01*
X0143062Y0164958D01*
X0145638Y0163470D01*
X0148512Y0162700D01*
X0151488Y0162700D01*
X0154362Y0163470D01*
X0156938Y0164958D01*
X0159042Y0167062D01*
X0160530Y0169638D01*
X0161300Y0172512D01*
X0027915Y0008100D02*
X0028173Y0008357D01*
X0028904Y0009089D01*
X0029300Y0010044D01*
X0029300Y0014281D01*
X0028904Y0015237D01*
X0028756Y0015386D01*
X0028904Y0015534D01*
X0029300Y0016490D01*
X0029300Y0020727D01*
X0029064Y0021297D01*
X0029300Y0021868D01*
X0029300Y0022902D01*
X0028904Y0023858D01*
X0028242Y0024520D01*
X0028904Y0025183D01*
X0029300Y0026138D01*
X0029300Y0027172D01*
X0028904Y0028128D01*
X0028173Y0028859D01*
X0027217Y0029255D01*
X0022980Y0029255D01*
X0022024Y0028859D01*
X0021931Y0028766D01*
X0021815Y0028882D01*
X0019284Y0030343D01*
X0016461Y0031099D01*
X0013539Y0031099D01*
X0010716Y0030343D01*
X0008185Y0028882D01*
X0008100Y0028797D01*
X0008100Y0221900D01*
X0351900Y0221900D01*
X0351900Y0008100D01*
X0027915Y0008100D01*
X0256300Y0182512D02*
X0256300Y0185488D01*
X0255530Y0188362D01*
X0254042Y0190938D01*
X0251938Y0193042D01*
X0249362Y0194530D01*
X0246488Y0195300D01*
X0243512Y0195300D01*
X0243154Y0195204D01*
X0244950Y0197000D01*
X0251696Y0197000D01*
X0252983Y0197533D01*
X0259450Y0204000D01*
X0261193Y0204000D01*
X0263399Y0204913D01*
X0265000Y0206515D01*
X0266601Y0204913D01*
X0268807Y0204000D01*
X0271193Y0204000D01*
X0273399Y0204913D01*
X0275000Y0206515D01*
X0276601Y0204913D01*
X0278807Y0204000D01*
X0281193Y0204000D01*
X0283399Y0204913D01*
X0285000Y0206515D01*
X0286601Y0204913D01*
X0288807Y0204000D01*
X0291193Y0204000D01*
X0293399Y0204913D01*
X0295000Y0206515D01*
X0296601Y0204913D01*
X0298807Y0204000D01*
X0301193Y0204000D01*
X0303399Y0204913D01*
X0304561Y0206076D01*
X0304657Y0205716D01*
X0306118Y0203185D01*
X0308185Y0201118D01*
X0310716Y0199657D01*
X0313539Y0198901D01*
X0316461Y0198901D01*
X0319284Y0199657D01*
X0321815Y0201118D01*
X0323882Y0203185D01*
X0325343Y0205716D01*
X0325439Y0206076D01*
X0326515Y0205000D01*
X0324000Y0202485D01*
X0324000Y0197515D01*
X0326515Y0195000D01*
X0324000Y0192485D01*
X0324000Y0187515D01*
X0326515Y0185000D01*
X0324000Y0182485D01*
X0324000Y0177515D01*
X0326515Y0175000D01*
X0324000Y0172485D01*
X0324000Y0167515D01*
X0326515Y0165000D01*
X0324000Y0162485D01*
X0324000Y0157515D01*
X0326515Y0155000D01*
X0324000Y0152485D01*
X0324000Y0147515D01*
X0326515Y0145000D01*
X0324000Y0142485D01*
X0324000Y0137515D01*
X0326515Y0135000D01*
X0324000Y0132485D01*
X0324000Y0127515D01*
X0326515Y0125000D01*
X0324000Y0122485D01*
X0324000Y0117515D01*
X0326515Y0115000D01*
X0324000Y0112485D01*
X0324000Y0107515D01*
X0326515Y0105000D01*
X0324000Y0102485D01*
X0324000Y0097515D01*
X0326515Y0095000D01*
X0324000Y0092485D01*
X0324000Y0087515D01*
X0326515Y0085000D01*
X0324000Y0082485D01*
X0324000Y0077515D01*
X0326515Y0075000D01*
X0324000Y0072485D01*
X0324000Y0067515D01*
X0326515Y0065000D01*
X0324000Y0062485D01*
X0324000Y0057515D01*
X0326515Y0055000D01*
X0324000Y0052485D01*
X0324000Y0047515D01*
X0326515Y0045000D01*
X0324913Y0043399D01*
X0324000Y0041193D01*
X0324000Y0038807D01*
X0324913Y0036601D01*
X0326601Y0034913D01*
X0328807Y0034000D01*
X0331193Y0034000D01*
X0333399Y0034913D01*
X0335000Y0036515D01*
X0336601Y0034913D01*
X0338807Y0034000D01*
X0341193Y0034000D01*
X0343399Y0034913D01*
X0345087Y0036601D01*
X0346000Y0038807D01*
X0346000Y0041193D01*
X0345087Y0043399D01*
X0343485Y0045000D01*
X0346000Y0047515D01*
X0346000Y0052485D01*
X0343485Y0055000D01*
X0346000Y0057515D01*
X0346000Y0062485D01*
X0343485Y0065000D01*
X0346000Y0067515D01*
X0346000Y0072485D01*
X0343485Y0075000D01*
X0346000Y0077515D01*
X0346000Y0082485D01*
X0343485Y0085000D01*
X0346000Y0087515D01*
X0346000Y0092485D01*
X0343485Y0095000D01*
X0346000Y0097515D01*
X0346000Y0102485D01*
X0343485Y0105000D01*
X0346000Y0107515D01*
X0346000Y0112485D01*
X0343485Y0115000D01*
X0346000Y0117515D01*
X0346000Y0122485D01*
X0343485Y0125000D01*
X0346000Y0127515D01*
X0346000Y0132485D01*
X0343485Y0135000D01*
X0346000Y0137515D01*
X0346000Y0142485D01*
X0343485Y0145000D01*
X0346000Y0147515D01*
X0346000Y0152485D01*
X0343485Y0155000D01*
X0346000Y0157515D01*
X0346000Y0162485D01*
X0343485Y0165000D01*
X0346000Y0167515D01*
X0346000Y0172485D01*
X0343485Y0175000D01*
X0346000Y0177515D01*
X0346000Y0182485D01*
X0343485Y0185000D01*
X0346000Y0187515D01*
X0346000Y0192485D01*
X0343485Y0195000D01*
X0346000Y0197515D01*
X0346000Y0202485D01*
X0343485Y0205000D01*
X0345087Y0206601D01*
X0346000Y0208807D01*
X0346000Y0211193D01*
X0345087Y0213399D01*
X0343399Y0215087D01*
X0341193Y0216000D01*
X0338807Y0216000D01*
X0336601Y0215087D01*
X0335000Y0213485D01*
X0333399Y0215087D01*
X0331193Y0216000D01*
X0328807Y0216000D01*
X0326601Y0215087D01*
X0325439Y0213924D01*
X0325343Y0214284D01*
X0323882Y0216815D01*
X0321815Y0218882D01*
X0319284Y0220343D01*
X0316461Y0221099D01*
X0313539Y0221099D01*
X0310716Y0220343D01*
X0308185Y0218882D01*
X0306118Y0216815D01*
X0304657Y0214284D01*
X0304561Y0213924D01*
X0303399Y0215087D01*
X0301193Y0216000D01*
X0298807Y0216000D01*
X0296601Y0215087D01*
X0295000Y0213485D01*
X0293399Y0215087D01*
X0291193Y0216000D01*
X0288807Y0216000D01*
X0286601Y0215087D01*
X0285000Y0213485D01*
X0283399Y0215087D01*
X0281193Y0216000D01*
X0278807Y0216000D01*
X0276601Y0215087D01*
X0275000Y0213485D01*
X0273399Y0215087D01*
X0271193Y0216000D01*
X0268807Y0216000D01*
X0266601Y0215087D01*
X0265000Y0213485D01*
X0263399Y0215087D01*
X0261193Y0216000D01*
X0258807Y0216000D01*
X0256601Y0215087D01*
X0255000Y0213485D01*
X0253399Y0215087D01*
X0251193Y0216000D01*
X0248807Y0216000D01*
X0246601Y0215087D01*
X0245000Y0213485D01*
X0243399Y0215087D01*
X0241193Y0216000D01*
X0238807Y0216000D01*
X0236601Y0215087D01*
X0235000Y0213485D01*
X0233399Y0215087D01*
X0231193Y0216000D01*
X0228807Y0216000D01*
X0226601Y0215087D01*
X0224913Y0213399D01*
X0224000Y0211193D01*
X0224000Y0208807D01*
X0224748Y0207000D01*
X0215252Y0207000D01*
X0216000Y0208807D01*
X0216000Y0211193D01*
X0215087Y0213399D01*
X0213399Y0215087D01*
X0211193Y0216000D01*
X0208807Y0216000D01*
X0206601Y0215087D01*
X0205000Y0213485D01*
X0203399Y0215087D01*
X0201193Y0216000D01*
X0198807Y0216000D01*
X0196601Y0215087D01*
X0195000Y0213485D01*
X0193399Y0215087D01*
X0191193Y0216000D01*
X0188807Y0216000D01*
X0186601Y0215087D01*
X0185000Y0213485D01*
X0183399Y0215087D01*
X0181193Y0216000D01*
X0178807Y0216000D01*
X0176601Y0215087D01*
X0175000Y0213485D01*
X0173399Y0215087D01*
X0171193Y0216000D01*
X0168807Y0216000D01*
X0166601Y0215087D01*
X0165000Y0213485D01*
X0163399Y0215087D01*
X0161193Y0216000D01*
X0158807Y0216000D01*
X0156601Y0215087D01*
X0155000Y0213485D01*
X0153399Y0215087D01*
X0151193Y0216000D01*
X0148807Y0216000D01*
X0146601Y0215087D01*
X0145000Y0213485D01*
X0143399Y0215087D01*
X0141193Y0216000D01*
X0138807Y0216000D01*
X0136601Y0215087D01*
X0134913Y0213399D01*
X0134000Y0211193D01*
X0134000Y0208807D01*
X0134105Y0208554D01*
X0132550Y0207000D01*
X0129252Y0207000D01*
X0130000Y0208807D01*
X0130000Y0211193D01*
X0129087Y0213399D01*
X0127399Y0215087D01*
X0125193Y0216000D01*
X0122807Y0216000D01*
X0120601Y0215087D01*
X0119000Y0213485D01*
X0117399Y0215087D01*
X0115193Y0216000D01*
X0112807Y0216000D01*
X0110601Y0215087D01*
X0109000Y0213485D01*
X0107399Y0215087D01*
X0105193Y0216000D01*
X0102807Y0216000D01*
X0100601Y0215087D01*
X0099000Y0213485D01*
X0097399Y0215087D01*
X0095193Y0216000D01*
X0092807Y0216000D01*
X0090601Y0215087D01*
X0089000Y0213485D01*
X0087399Y0215087D01*
X0085193Y0216000D01*
X0082807Y0216000D01*
X0080601Y0215087D01*
X0079000Y0213485D01*
X0077399Y0215087D01*
X0075193Y0216000D01*
X0072807Y0216000D01*
X0070601Y0215087D01*
X0069000Y0213485D01*
X0067399Y0215087D01*
X0065193Y0216000D01*
X0062807Y0216000D01*
X0060601Y0215087D01*
X0059000Y0213485D01*
X0057399Y0215087D01*
X0055193Y0216000D01*
X0052807Y0216000D01*
X0050601Y0215087D01*
X0048913Y0213399D01*
X0048000Y0211193D01*
X0048000Y0208807D01*
X0048913Y0206601D01*
X0050601Y0204913D01*
X0052807Y0204000D01*
X0055193Y0204000D01*
X0057399Y0204913D01*
X0059000Y0206515D01*
X0060601Y0204913D01*
X0062807Y0204000D01*
X0065193Y0204000D01*
X0067399Y0204913D01*
X0069000Y0206515D01*
X0070601Y0204913D01*
X0072807Y0204000D01*
X0075193Y0204000D01*
X0077399Y0204913D01*
X0079000Y0206515D01*
X0080601Y0204913D01*
X0082807Y0204000D01*
X0085193Y0204000D01*
X0087399Y0204913D01*
X0089000Y0206515D01*
X0090601Y0204913D01*
X0092807Y0204000D01*
X0095193Y0204000D01*
X0097399Y0204913D01*
X0099000Y0206515D01*
X0100601Y0204913D01*
X0102807Y0204000D01*
X0105193Y0204000D01*
X0107399Y0204913D01*
X0109000Y0206515D01*
X0110601Y0204913D01*
X0112807Y0204000D01*
X0115193Y0204000D01*
X0117399Y0204913D01*
X0119000Y0206515D01*
X0120282Y0205232D01*
X0097678Y0182627D01*
X0096054Y0183300D01*
X0093946Y0183300D01*
X0091998Y0182493D01*
X0090507Y0181002D01*
X0089700Y0179054D01*
X0089700Y0170946D01*
X0090507Y0168998D01*
X0091998Y0167507D01*
X0093946Y0166700D01*
X0096054Y0166700D01*
X0098002Y0167507D01*
X0099493Y0168998D01*
X0100000Y0170222D01*
X0100507Y0168998D01*
X0101998Y0167507D01*
X0103946Y0166700D01*
X0106054Y0166700D01*
X0108002Y0167507D01*
X0109493Y0168998D01*
X0110000Y0170222D01*
X0110507Y0168998D01*
X0111998Y0167507D01*
X0112500Y0167299D01*
X0112500Y0164450D01*
X0109900Y0161850D01*
X0109900Y0162030D01*
X0107030Y0164900D01*
X0102970Y0164900D01*
X0100100Y0162030D01*
X0100100Y0157970D01*
X0102970Y0155100D01*
X0103150Y0155100D01*
X0081550Y0133500D01*
X0063430Y0133500D01*
X0062776Y0134154D01*
X0060975Y0134900D01*
X0059050Y0134900D01*
X0049000Y0144950D01*
X0049000Y0157070D01*
X0049900Y0157970D01*
X0049900Y0162030D01*
X0047030Y0164900D01*
X0042970Y0164900D01*
X0040100Y0162030D01*
X0040100Y0157970D01*
X0042000Y0156070D01*
X0042000Y0142804D01*
X0042533Y0141517D01*
X0055153Y0128897D01*
X0055846Y0127224D01*
X0057224Y0125846D01*
X0059025Y0125100D01*
X0060975Y0125100D01*
X0062776Y0125846D01*
X0063430Y0126500D01*
X0083696Y0126500D01*
X0084983Y0127033D01*
X0085649Y0127699D01*
X0085846Y0127224D01*
X0087224Y0125846D01*
X0089025Y0125100D01*
X0090975Y0125100D01*
X0092776Y0125846D01*
X0094154Y0127224D01*
X0094900Y0129025D01*
X0094900Y0130975D01*
X0094154Y0132776D01*
X0092776Y0134154D01*
X0092301Y0134351D01*
X0116750Y0158800D01*
X0152030Y0123521D01*
X0151114Y0123900D01*
X0148886Y0123900D01*
X0146828Y0123047D01*
X0145253Y0121472D01*
X0145000Y0120862D01*
X0144747Y0121472D01*
X0143172Y0123047D01*
X0141114Y0123900D01*
X0138886Y0123900D01*
X0136828Y0123047D01*
X0135253Y0121472D01*
X0134400Y0119414D01*
X0134400Y0110586D01*
X0135253Y0108528D01*
X0136828Y0106953D01*
X0138886Y0106100D01*
X0141114Y0106100D01*
X0143172Y0106953D01*
X0144747Y0108528D01*
X0145000Y0109138D01*
X0145253Y0108528D01*
X0146828Y0106953D01*
X0147000Y0106881D01*
X0147000Y0104707D01*
X0145000Y0102707D01*
X0142257Y0105450D01*
X0137743Y0105450D01*
X0134550Y0102257D01*
X0134550Y0097743D01*
X0137743Y0094550D01*
X0142257Y0094550D01*
X0145000Y0097293D01*
X0147000Y0095293D01*
X0147000Y0089707D01*
X0144550Y0087257D01*
X0144550Y0082743D01*
X0147743Y0079550D01*
X0152257Y0079550D01*
X0155000Y0082293D01*
X0157743Y0079550D01*
X0162257Y0079550D01*
X0165450Y0082743D01*
X0165450Y0087257D01*
X0164500Y0088207D01*
X0164500Y0101000D01*
X0175050Y0101000D01*
X0171533Y0097483D01*
X0171000Y0096196D01*
X0171000Y0087304D01*
X0171533Y0086017D01*
X0172517Y0085033D01*
X0175500Y0082050D01*
X0175500Y0070986D01*
X0174700Y0069054D01*
X0174700Y0060946D01*
X0175507Y0058998D01*
X0176998Y0057507D01*
X0178946Y0056700D01*
X0181054Y0056700D01*
X0181500Y0056885D01*
X0181500Y0045950D01*
X0161446Y0025895D01*
X0161193Y0026000D01*
X0158807Y0026000D01*
X0156601Y0025087D01*
X0154913Y0023399D01*
X0154000Y0021193D01*
X0154000Y0018807D01*
X0154913Y0016601D01*
X0156601Y0014913D01*
X0158807Y0014000D01*
X0161193Y0014000D01*
X0163399Y0014913D01*
X0165000Y0016515D01*
X0166601Y0014913D01*
X0168807Y0014000D01*
X0171193Y0014000D01*
X0173399Y0014913D01*
X0175000Y0016515D01*
X0176601Y0014913D01*
X0178807Y0014000D01*
X0181193Y0014000D01*
X0183399Y0014913D01*
X0185000Y0016515D01*
X0186601Y0014913D01*
X0188807Y0014000D01*
X0191193Y0014000D01*
X0193399Y0014913D01*
X0195000Y0016515D01*
X0196601Y0014913D01*
X0198807Y0014000D01*
X0201193Y0014000D01*
X0203399Y0014913D01*
X0205000Y0016515D01*
X0206601Y0014913D01*
X0208807Y0014000D01*
X0211193Y0014000D01*
X0213399Y0014913D01*
X0215000Y0016515D01*
X0216601Y0014913D01*
X0218807Y0014000D01*
X0221193Y0014000D01*
X0223399Y0014913D01*
X0225000Y0016515D01*
X0226601Y0014913D01*
X0228807Y0014000D01*
X0231193Y0014000D01*
X0233399Y0014913D01*
X0235087Y0016601D01*
X0236000Y0018807D01*
X0236000Y0021193D01*
X0235087Y0023399D01*
X0233399Y0025087D01*
X0231375Y0025925D01*
X0246450Y0041000D01*
X0257169Y0041000D01*
X0257945Y0040215D01*
X0262004Y0040194D01*
X0264890Y0043049D01*
X0264911Y0047109D01*
X0262056Y0049994D01*
X0257996Y0050015D01*
X0255960Y0048000D01*
X0244304Y0048000D01*
X0243017Y0047467D01*
X0229082Y0033531D01*
X0230343Y0035716D01*
X0231099Y0038539D01*
X0231099Y0041461D01*
X0230343Y0044284D01*
X0228882Y0046815D01*
X0226815Y0048882D01*
X0224284Y0050343D01*
X0221461Y0051099D01*
X0218539Y0051099D01*
X0215716Y0050343D01*
X0213185Y0048882D01*
X0212500Y0048197D01*
X0212500Y0057299D01*
X0213002Y0057507D01*
X0214493Y0058998D01*
X0215300Y0060946D01*
X0215300Y0069054D01*
X0214493Y0071002D01*
X0213002Y0072493D01*
X0212986Y0072500D01*
X0286391Y0072500D01*
X0287127Y0071763D01*
X0288991Y0070991D01*
X0291009Y0070991D01*
X0292873Y0071763D01*
X0294300Y0073190D01*
X0295072Y0075054D01*
X0295072Y0076122D01*
X0297000Y0078050D01*
X0297000Y0048820D01*
X0295110Y0046951D01*
X0295089Y0042891D01*
X0297944Y0040006D01*
X0302004Y0039985D01*
X0304889Y0042840D01*
X0304910Y0046899D01*
X0304000Y0047819D01*
X0304000Y0097070D01*
X0304900Y0097970D01*
X0304900Y0102030D01*
X0302030Y0104900D01*
X0297970Y0104900D01*
X0295100Y0102030D01*
X0295100Y0097970D01*
X0297000Y0096070D01*
X0297000Y0088950D01*
X0293500Y0092450D01*
X0293500Y0096570D01*
X0294900Y0097970D01*
X0294900Y0102030D01*
X0292030Y0104900D01*
X0287970Y0104900D01*
X0285100Y0102030D01*
X0285100Y0097970D01*
X0286500Y0096570D01*
X0286500Y0090304D01*
X0287033Y0089017D01*
X0287550Y0088500D01*
X0259207Y0088500D01*
X0259000Y0088707D01*
X0259000Y0117780D01*
X0259747Y0118528D01*
X0260600Y0120586D01*
X0260600Y0128000D01*
X0269767Y0128000D01*
X0270253Y0126828D01*
X0271828Y0125253D01*
X0273886Y0124400D01*
X0276114Y0124400D01*
X0278172Y0125253D01*
X0279747Y0126828D01*
X0280600Y0128886D01*
X0280600Y0130650D01*
X0291983Y0142033D01*
X0291983Y0142033D01*
X0292967Y0143017D01*
X0293500Y0144304D01*
X0293500Y0150520D01*
X0293936Y0150700D01*
X0295000Y0151765D01*
X0295500Y0151265D01*
X0295500Y0142804D01*
X0296033Y0141517D01*
X0308300Y0129250D01*
X0297533Y0118483D01*
X0297000Y0117196D01*
X0297000Y0113930D01*
X0295100Y0112030D01*
X0295100Y0107970D01*
X0297970Y0105100D01*
X0302030Y0105100D01*
X0304900Y0107970D01*
X0304900Y0112030D01*
X0304000Y0112930D01*
X0304000Y0115050D01*
X0313507Y0124557D01*
X0313886Y0124400D01*
X0316114Y0124400D01*
X0318172Y0125253D01*
X0319747Y0126828D01*
X0320600Y0128886D01*
X0320600Y0131114D01*
X0319747Y0133172D01*
X0318172Y0134747D01*
X0316114Y0135600D01*
X0313886Y0135600D01*
X0312446Y0135004D01*
X0302500Y0144950D01*
X0302500Y0151391D01*
X0303237Y0152127D01*
X0304009Y0153991D01*
X0304009Y0156009D01*
X0303237Y0157873D01*
X0301810Y0159300D01*
X0299946Y0160072D01*
X0297928Y0160072D01*
X0296064Y0159300D01*
X0295000Y0158235D01*
X0293936Y0159300D01*
X0292072Y0160072D01*
X0290054Y0160072D01*
X0288190Y0159300D01*
X0286763Y0157873D01*
X0285991Y0156009D01*
X0285991Y0153991D01*
X0286500Y0152763D01*
X0286500Y0146450D01*
X0275650Y0135600D01*
X0273886Y0135600D01*
X0272438Y0135000D01*
X0261450Y0135000D01*
X0259967Y0136483D01*
X0258983Y0137467D01*
X0257696Y0138000D01*
X0188950Y0138000D01*
X0216941Y0165991D01*
X0217820Y0165991D01*
X0219684Y0166763D01*
X0221111Y0168190D01*
X0221883Y0170054D01*
X0221883Y0172072D01*
X0221111Y0173936D01*
X0220046Y0175000D01*
X0221046Y0176000D01*
X0223196Y0176000D01*
X0224483Y0176533D01*
X0225467Y0177517D01*
X0225467Y0177517D01*
X0233796Y0185846D01*
X0233700Y0185488D01*
X0233700Y0182512D01*
X0234470Y0179638D01*
X0235958Y0177062D01*
X0238062Y0174958D01*
X0240638Y0173470D01*
X0243512Y0172700D01*
X0246488Y0172700D01*
X0249362Y0173470D01*
X0251938Y0174958D01*
X0254042Y0177062D01*
X0255530Y0179638D01*
X0256300Y0182512D01*
X0231099Y0148539D02*
X0231099Y0151461D01*
X0230343Y0154284D01*
X0228882Y0156815D01*
X0226815Y0158882D01*
X0224284Y0160343D01*
X0221461Y0161099D01*
X0218539Y0161099D01*
X0215716Y0160343D01*
X0213185Y0158882D01*
X0211118Y0156815D01*
X0209657Y0154284D01*
X0208901Y0151461D01*
X0208901Y0148539D01*
X0209657Y0145716D01*
X0211118Y0143185D01*
X0213185Y0141118D01*
X0215716Y0139657D01*
X0218539Y0138901D01*
X0221461Y0138901D01*
X0224284Y0139657D01*
X0226815Y0141118D01*
X0228882Y0143185D01*
X0230343Y0145716D01*
X0231099Y0148539D01*
X0027217Y0032676D02*
X0028173Y0033072D01*
X0028904Y0033803D01*
X0029300Y0034759D01*
X0029300Y0035793D01*
X0028904Y0036749D01*
X0028242Y0037411D01*
X0028904Y0038074D01*
X0029300Y0039029D01*
X0029300Y0040063D01*
X0028904Y0041019D01*
X0028756Y0041168D01*
X0028904Y0041316D01*
X0029300Y0042272D01*
X0029300Y0046509D01*
X0029064Y0047079D01*
X0029300Y0047650D01*
X0029300Y0048684D01*
X0028904Y0049640D01*
X0028242Y0050302D01*
X0028904Y0050965D01*
X0029300Y0051920D01*
X0029300Y0052954D01*
X0028904Y0053910D01*
X0028756Y0054059D01*
X0028904Y0054207D01*
X0029300Y0055163D01*
X0029300Y0059400D01*
X0028904Y0060356D01*
X0028756Y0060504D01*
X0028904Y0060653D01*
X0029300Y0061608D01*
X0029300Y0064778D01*
X0028904Y0065733D01*
X0028756Y0065882D01*
X0028904Y0066031D01*
X0029300Y0066986D01*
X0029300Y0070156D01*
X0028904Y0071111D01*
X0028173Y0071843D01*
X0027217Y0072239D01*
X0026183Y0072239D01*
X0025227Y0071843D01*
X0024555Y0071171D01*
X0019777Y0071171D01*
X0018822Y0070775D01*
X0018090Y0070044D01*
X0017695Y0069088D01*
X0017695Y0066986D01*
X0018090Y0066031D01*
X0018822Y0065299D01*
X0019777Y0064903D01*
X0019882Y0064903D01*
X0019830Y0064778D01*
X0019830Y0061608D01*
X0020226Y0060653D01*
X0020374Y0060504D01*
X0020226Y0060356D01*
X0019830Y0059400D01*
X0019830Y0058366D01*
X0020226Y0057410D01*
X0020888Y0056748D01*
X0020226Y0056085D01*
X0019830Y0055130D01*
X0019830Y0054095D01*
X0020226Y0053140D01*
X0020374Y0052991D01*
X0020226Y0052842D01*
X0019830Y0051887D01*
X0019830Y0047650D01*
X0020226Y0046694D01*
X0020374Y0046546D01*
X0020226Y0046397D01*
X0019830Y0045441D01*
X0019830Y0042272D01*
X0019882Y0042146D01*
X0019777Y0042146D01*
X0019490Y0042027D01*
X0018822Y0041750D01*
X0018090Y0041019D01*
X0017706Y0040091D01*
X0017695Y0040063D01*
X0017695Y0039029D01*
X0017814Y0038741D01*
X0018090Y0038074D01*
X0018753Y0037411D01*
X0018090Y0036749D01*
X0017695Y0035793D01*
X0017695Y0034759D01*
X0018090Y0033803D01*
X0018822Y0033072D01*
X0019777Y0032676D01*
X0020812Y0032676D01*
X0027217Y0032676D01*
X0019777Y0080846D02*
X0018822Y0080450D01*
X0018090Y0079719D01*
X0017695Y0078763D01*
X0017695Y0077729D01*
X0018090Y0076773D01*
X0018822Y0076042D01*
X0019777Y0075646D01*
X0027217Y0075646D01*
X0028173Y0076042D01*
X0028904Y0076773D01*
X0029300Y0077729D01*
X0029300Y0083033D01*
X0028904Y0083989D01*
X0028756Y0084138D01*
X0028904Y0084286D01*
X0029300Y0085242D01*
X0029300Y0088411D01*
X0029071Y0088963D01*
X0028904Y0089367D01*
X0027504Y0090767D01*
X0027697Y0090864D01*
X0028013Y0090969D01*
X0028156Y0091093D01*
X0028325Y0091178D01*
X0028543Y0091429D01*
X0028794Y0091647D01*
X0028879Y0091816D01*
X0029003Y0091959D01*
X0029108Y0092275D01*
X0029257Y0092572D01*
X0029270Y0092761D01*
X0029330Y0092941D01*
X0029307Y0093272D01*
X0029330Y0093604D01*
X0029270Y0093783D01*
X0029257Y0093972D01*
X0029108Y0094270D01*
X0029003Y0094585D01*
X0028879Y0094728D01*
X0028794Y0094897D01*
X0028543Y0095115D01*
X0028325Y0095366D01*
X0028156Y0095451D01*
X0028013Y0095575D01*
X0027698Y0095680D01*
X0027504Y0095777D01*
X0027837Y0096110D01*
X0028904Y0097177D01*
X0029300Y0098133D01*
X0029300Y0101302D01*
X0028904Y0102258D01*
X0028756Y0102407D01*
X0028904Y0102555D01*
X0029300Y0103511D01*
X0029300Y0104545D01*
X0028904Y0105501D01*
X0028173Y0106232D01*
X0027217Y0106628D01*
X0025642Y0106628D01*
X0025471Y0106799D01*
X0026150Y0106799D01*
X0027105Y0107195D01*
X0027837Y0107926D01*
X0028904Y0108994D01*
X0029300Y0109950D01*
X0029300Y0114187D01*
X0028904Y0115142D01*
X0028173Y0115874D01*
X0027217Y0116270D01*
X0022980Y0116270D01*
X0022024Y0115874D01*
X0021293Y0115142D01*
X0020226Y0114075D01*
X0019830Y0113119D01*
X0019830Y0109950D01*
X0020226Y0108994D01*
X0020371Y0108849D01*
X0020226Y0108703D01*
X0019830Y0107748D01*
X0019830Y0105646D01*
X0019841Y0105619D01*
X0020058Y0105096D01*
X0019830Y0104545D01*
X0019830Y0103511D01*
X0020226Y0102555D01*
X0020374Y0102407D01*
X0020226Y0102258D01*
X0019830Y0101302D01*
X0019830Y0098133D01*
X0020226Y0097177D01*
X0020354Y0097049D01*
X0020335Y0097033D01*
X0019873Y0096107D01*
X0019800Y0095076D01*
X0020127Y0094094D01*
X0020804Y0093313D01*
X0020886Y0093272D01*
X0020804Y0093231D01*
X0020127Y0092450D01*
X0019800Y0091469D01*
X0019873Y0090437D01*
X0020335Y0089512D01*
X0020354Y0089496D01*
X0020226Y0089367D01*
X0019830Y0088411D01*
X0019830Y0085242D01*
X0020226Y0084286D01*
X0022011Y0082501D01*
X0022024Y0082487D01*
X0022024Y0082487D01*
X0022412Y0082327D01*
X0022980Y0082091D01*
X0024100Y0082091D01*
X0024100Y0080846D01*
X0019777Y0080846D01*
X0027217Y0142229D02*
X0028173Y0142625D01*
X0028904Y0143357D01*
X0029300Y0144312D01*
X0029300Y0145347D01*
X0028904Y0146302D01*
X0028756Y0146451D01*
X0028904Y0146599D01*
X0029300Y0147555D01*
X0029300Y0152860D01*
X0028904Y0153815D01*
X0028756Y0153964D01*
X0028904Y0154112D01*
X0029300Y0155068D01*
X0029300Y0158238D01*
X0029065Y0158805D01*
X0028904Y0159193D01*
X0028904Y0159193D01*
X0028890Y0159207D01*
X0028756Y0159342D01*
X0028904Y0159490D01*
X0029300Y0160446D01*
X0029300Y0161480D01*
X0028904Y0162436D01*
X0028173Y0163167D01*
X0027217Y0163563D01*
X0026709Y0163563D01*
X0025464Y0164809D01*
X0026150Y0164809D01*
X0027105Y0165205D01*
X0028173Y0166272D01*
X0028904Y0167003D01*
X0029300Y0167959D01*
X0029300Y0171129D01*
X0029071Y0171680D01*
X0028904Y0172084D01*
X0028222Y0172767D01*
X0028904Y0173449D01*
X0029300Y0174405D01*
X0029300Y0177574D01*
X0029065Y0178142D01*
X0028904Y0178530D01*
X0028904Y0178530D01*
X0028890Y0178544D01*
X0027105Y0180329D01*
X0026150Y0180724D01*
X0022980Y0180724D01*
X0022024Y0180329D01*
X0021896Y0180200D01*
X0021767Y0180329D01*
X0020812Y0180724D01*
X0019777Y0180724D01*
X0018822Y0180329D01*
X0018090Y0179597D01*
X0017695Y0178642D01*
X0017695Y0173337D01*
X0018090Y0172381D01*
X0018239Y0172233D01*
X0018104Y0172098D01*
X0018090Y0172084D01*
X0018090Y0172084D01*
X0017930Y0171696D01*
X0017695Y0171129D01*
X0017695Y0167959D01*
X0018090Y0167003D01*
X0018239Y0166855D01*
X0018090Y0166706D01*
X0017695Y0165751D01*
X0017695Y0160446D01*
X0018090Y0159490D01*
X0018239Y0159342D01*
X0018090Y0159193D01*
X0017923Y0158789D01*
X0017695Y0158238D01*
X0017695Y0155068D01*
X0018090Y0154112D01*
X0018773Y0153430D01*
X0018090Y0152748D01*
X0017811Y0152073D01*
X0017695Y0151792D01*
X0017695Y0148623D01*
X0018090Y0147667D01*
X0018773Y0146985D01*
X0018090Y0146302D01*
X0017695Y0145347D01*
X0017695Y0144312D01*
X0018090Y0143357D01*
X0021293Y0140154D01*
X0021531Y0139916D01*
X0019777Y0139916D01*
X0018822Y0139521D01*
X0018090Y0138789D01*
X0017695Y0137834D01*
X0017695Y0136799D01*
X0018090Y0135844D01*
X0018822Y0135112D01*
X0019307Y0134627D01*
X0019158Y0134479D01*
X0019158Y0134479D01*
X0018090Y0133411D01*
X0017923Y0133007D01*
X0017695Y0132456D01*
X0017695Y0129286D01*
X0018090Y0128330D01*
X0018773Y0127648D01*
X0018104Y0126980D01*
X0018090Y0126966D01*
X0018090Y0126966D01*
X0017930Y0126578D01*
X0017695Y0126010D01*
X0017695Y0122841D01*
X0018090Y0121885D01*
X0019889Y0120086D01*
X0020845Y0119690D01*
X0021879Y0119690D01*
X0022835Y0120086D01*
X0023566Y0120817D01*
X0023839Y0121475D01*
X0025227Y0120086D01*
X0026183Y0119690D01*
X0027217Y0119690D01*
X0028173Y0120086D01*
X0028904Y0120817D01*
X0029300Y0121773D01*
X0029300Y0127078D01*
X0028904Y0128033D01*
X0028756Y0128182D01*
X0028904Y0128330D01*
X0029300Y0129286D01*
X0029300Y0132456D01*
X0029065Y0133023D01*
X0028904Y0133411D01*
X0028904Y0133411D01*
X0028890Y0133425D01*
X0028756Y0133560D01*
X0028904Y0133708D01*
X0029300Y0134664D01*
X0029300Y0139969D01*
X0028904Y0140924D01*
X0028173Y0141656D01*
X0027217Y0142052D01*
X0026183Y0142052D01*
X0026097Y0142016D01*
X0026097Y0142229D01*
X0027217Y0142229D01*
X0263399Y0025087D02*
X0261193Y0026000D01*
X0258807Y0026000D01*
X0256601Y0025087D01*
X0255000Y0023485D01*
X0253399Y0025087D01*
X0251193Y0026000D01*
X0248807Y0026000D01*
X0246601Y0025087D01*
X0244913Y0023399D01*
X0244000Y0021193D01*
X0244000Y0018807D01*
X0244913Y0016601D01*
X0246601Y0014913D01*
X0248807Y0014000D01*
X0251193Y0014000D01*
X0253399Y0014913D01*
X0255000Y0016515D01*
X0256601Y0014913D01*
X0258807Y0014000D01*
X0261193Y0014000D01*
X0263399Y0014913D01*
X0265000Y0016515D01*
X0266601Y0014913D01*
X0268807Y0014000D01*
X0271193Y0014000D01*
X0273399Y0014913D01*
X0275000Y0016515D01*
X0276601Y0014913D01*
X0278807Y0014000D01*
X0281193Y0014000D01*
X0283399Y0014913D01*
X0285000Y0016515D01*
X0286601Y0014913D01*
X0288807Y0014000D01*
X0291193Y0014000D01*
X0293399Y0014913D01*
X0295000Y0016515D01*
X0296601Y0014913D01*
X0298807Y0014000D01*
X0301193Y0014000D01*
X0303399Y0014913D01*
X0305000Y0016515D01*
X0306601Y0014913D01*
X0308807Y0014000D01*
X0311193Y0014000D01*
X0313399Y0014913D01*
X0315000Y0016515D01*
X0316601Y0014913D01*
X0318807Y0014000D01*
X0321193Y0014000D01*
X0323399Y0014913D01*
X0325087Y0016601D01*
X0326000Y0018807D01*
X0326000Y0021193D01*
X0325087Y0023399D01*
X0323399Y0025087D01*
X0321193Y0026000D01*
X0318807Y0026000D01*
X0316601Y0025087D01*
X0315000Y0023485D01*
X0313399Y0025087D01*
X0311193Y0026000D01*
X0308807Y0026000D01*
X0306601Y0025087D01*
X0305000Y0023485D01*
X0303399Y0025087D01*
X0301193Y0026000D01*
X0298807Y0026000D01*
X0296601Y0025087D01*
X0295000Y0023485D01*
X0293399Y0025087D01*
X0291193Y0026000D01*
X0288807Y0026000D01*
X0286601Y0025087D01*
X0285000Y0023485D01*
X0283399Y0025087D01*
X0281193Y0026000D01*
X0278807Y0026000D01*
X0276601Y0025087D01*
X0275000Y0023485D01*
X0273399Y0025087D01*
X0271193Y0026000D01*
X0268807Y0026000D01*
X0266601Y0025087D01*
X0265000Y0023485D01*
X0263399Y0025087D01*
X0031099Y0208539D02*
X0031099Y0211461D01*
X0030343Y0214284D01*
X0028882Y0216815D01*
X0026815Y0218882D01*
X0024284Y0220343D01*
X0021461Y0221099D01*
X0018539Y0221099D01*
X0015716Y0220343D01*
X0013185Y0218882D01*
X0011118Y0216815D01*
X0009657Y0214284D01*
X0008901Y0211461D01*
X0008901Y0208539D01*
X0009657Y0205716D01*
X0011118Y0203185D01*
X0013185Y0201118D01*
X0015716Y0199657D01*
X0018539Y0198901D01*
X0021461Y0198901D01*
X0024284Y0199657D01*
X0026815Y0201118D01*
X0028882Y0203185D01*
X0030343Y0205716D01*
X0031099Y0208539D01*
X0351099Y0018539D02*
X0351099Y0021461D01*
X0350343Y0024284D01*
X0348882Y0026815D01*
X0346815Y0028882D01*
X0344284Y0030343D01*
X0341461Y0031099D01*
X0338539Y0031099D01*
X0335716Y0030343D01*
X0333185Y0028882D01*
X0331118Y0026815D01*
X0329657Y0024284D01*
X0328901Y0021461D01*
X0328901Y0018539D01*
X0329657Y0015716D01*
X0331118Y0013185D01*
X0333185Y0011118D01*
X0335716Y0009657D01*
X0338539Y0008901D01*
X0341461Y0008901D01*
X0344284Y0009657D01*
X0346815Y0011118D01*
X0348882Y0013185D01*
X0350343Y0015716D01*
X0351099Y0018539D01*
X0064900Y0099025D02*
X0064900Y0100975D01*
X0064154Y0102776D01*
X0062776Y0104154D01*
X0060975Y0104900D01*
X0059025Y0104900D01*
X0057224Y0104154D01*
X0055846Y0102776D01*
X0055100Y0100975D01*
X0055100Y0099025D01*
X0055846Y0097224D01*
X0057224Y0095846D01*
X0059025Y0095100D01*
X0060975Y0095100D01*
X0062776Y0095846D01*
X0064154Y0097224D01*
X0064900Y0099025D01*
X0094900Y0099025D02*
X0094900Y0100975D01*
X0094889Y0101000D01*
X0102070Y0101000D01*
X0102970Y0100100D01*
X0107030Y0100100D01*
X0109900Y0102970D01*
X0109900Y0107030D01*
X0109000Y0107930D01*
X0109000Y0117070D01*
X0109900Y0117970D01*
X0109900Y0122030D01*
X0107030Y0124900D01*
X0102970Y0124900D01*
X0100100Y0122030D01*
X0100100Y0117970D01*
X0102000Y0116070D01*
X0102000Y0108930D01*
X0101070Y0108000D01*
X0094475Y0108000D01*
X0094900Y0109025D01*
X0094900Y0110975D01*
X0094154Y0112776D01*
X0092776Y0114154D01*
X0090975Y0114900D01*
X0089025Y0114900D01*
X0087224Y0114154D01*
X0085846Y0112776D01*
X0085653Y0112311D01*
X0085196Y0112500D01*
X0064268Y0112500D01*
X0064154Y0112776D01*
X0062776Y0114154D01*
X0060975Y0114900D01*
X0059025Y0114900D01*
X0057224Y0114154D01*
X0055846Y0112776D01*
X0055100Y0110975D01*
X0055100Y0109025D01*
X0055846Y0107224D01*
X0057224Y0105846D01*
X0059025Y0105100D01*
X0060975Y0105100D01*
X0061940Y0105500D01*
X0083050Y0105500D01*
X0085825Y0102725D01*
X0085100Y0100975D01*
X0085100Y0099025D01*
X0085846Y0097224D01*
X0087224Y0095846D01*
X0089025Y0095100D01*
X0090975Y0095100D01*
X0092776Y0095846D01*
X0094154Y0097224D01*
X0094900Y0099025D01*
X0094900Y0119025D02*
X0094900Y0120975D01*
X0094154Y0122776D01*
X0092776Y0124154D01*
X0090975Y0124900D01*
X0089025Y0124900D01*
X0087224Y0124154D01*
X0085846Y0122776D01*
X0085100Y0120975D01*
X0085100Y0119025D01*
X0085846Y0117224D01*
X0087224Y0115846D01*
X0089025Y0115100D01*
X0090975Y0115100D01*
X0092776Y0115846D01*
X0094154Y0117224D01*
X0094900Y0119025D01*
X0049900Y0102970D02*
X0049900Y0107030D01*
X0049000Y0107930D01*
X0049000Y0117070D01*
X0049430Y0117500D01*
X0055732Y0117500D01*
X0055846Y0117224D01*
X0057224Y0115846D01*
X0059025Y0115100D01*
X0060975Y0115100D01*
X0062776Y0115846D01*
X0064154Y0117224D01*
X0064900Y0119025D01*
X0064900Y0120975D01*
X0064154Y0122776D01*
X0062776Y0124154D01*
X0060975Y0124900D01*
X0059025Y0124900D01*
X0058060Y0124500D01*
X0047430Y0124500D01*
X0047030Y0124900D01*
X0042970Y0124900D01*
X0040100Y0122030D01*
X0040100Y0117970D01*
X0042000Y0116070D01*
X0042000Y0108930D01*
X0040100Y0107030D01*
X0040100Y0102970D01*
X0042970Y0100100D01*
X0047030Y0100100D01*
X0049900Y0102970D01*
X0164900Y0042970D02*
X0164900Y0047030D01*
X0162030Y0049900D01*
X0157970Y0049900D01*
X0156070Y0048000D01*
X0143804Y0048000D01*
X0142517Y0047467D01*
X0141533Y0046483D01*
X0121050Y0026000D01*
X0118807Y0026000D01*
X0118554Y0025895D01*
X0113500Y0030950D01*
X0113500Y0043005D01*
X0114493Y0043998D01*
X0115000Y0045222D01*
X0115507Y0043998D01*
X0116998Y0042507D01*
X0118946Y0041700D01*
X0121054Y0041700D01*
X0123002Y0042507D01*
X0124493Y0043998D01*
X0125000Y0045222D01*
X0125507Y0043998D01*
X0126998Y0042507D01*
X0128946Y0041700D01*
X0131054Y0041700D01*
X0133002Y0042507D01*
X0134493Y0043998D01*
X0135300Y0045946D01*
X0135300Y0054054D01*
X0134493Y0056002D01*
X0133002Y0057493D01*
X0131054Y0058300D01*
X0128946Y0058300D01*
X0126998Y0057493D01*
X0125507Y0056002D01*
X0125000Y0054778D01*
X0124493Y0056002D01*
X0123002Y0057493D01*
X0121054Y0058300D01*
X0118946Y0058300D01*
X0116998Y0057493D01*
X0115507Y0056002D01*
X0115000Y0054778D01*
X0114493Y0056002D01*
X0113002Y0057493D01*
X0111054Y0058300D01*
X0108946Y0058300D01*
X0106998Y0057493D01*
X0105507Y0056002D01*
X0105000Y0054778D01*
X0104500Y0055986D01*
X0104500Y0060100D01*
X0107030Y0060100D01*
X0109900Y0062970D01*
X0109900Y0067030D01*
X0107030Y0069900D01*
X0102970Y0069900D01*
X0102070Y0069000D01*
X0047930Y0069000D01*
X0047030Y0069900D01*
X0042970Y0069900D01*
X0040100Y0067030D01*
X0040100Y0062970D01*
X0042970Y0060100D01*
X0047030Y0060100D01*
X0048930Y0062000D01*
X0097500Y0062000D01*
X0097500Y0057701D01*
X0096998Y0057493D01*
X0095507Y0056002D01*
X0094700Y0054054D01*
X0094700Y0045946D01*
X0095507Y0043998D01*
X0096998Y0042507D01*
X0098946Y0041700D01*
X0101054Y0041700D01*
X0103002Y0042507D01*
X0104493Y0043998D01*
X0105000Y0045222D01*
X0105507Y0043998D01*
X0106500Y0043005D01*
X0106500Y0028804D01*
X0107033Y0027517D01*
X0108625Y0025925D01*
X0106601Y0025087D01*
X0105000Y0023485D01*
X0103399Y0025087D01*
X0101193Y0026000D01*
X0098807Y0026000D01*
X0096601Y0025087D01*
X0095000Y0023485D01*
X0093399Y0025087D01*
X0091193Y0026000D01*
X0088807Y0026000D01*
X0086601Y0025087D01*
X0084913Y0023399D01*
X0084000Y0021193D01*
X0084000Y0018807D01*
X0084913Y0016601D01*
X0086601Y0014913D01*
X0088807Y0014000D01*
X0091193Y0014000D01*
X0093399Y0014913D01*
X0095000Y0016515D01*
X0096601Y0014913D01*
X0098807Y0014000D01*
X0101193Y0014000D01*
X0103399Y0014913D01*
X0105000Y0016515D01*
X0106601Y0014913D01*
X0108807Y0014000D01*
X0111193Y0014000D01*
X0113399Y0014913D01*
X0115000Y0016515D01*
X0116601Y0014913D01*
X0118807Y0014000D01*
X0121193Y0014000D01*
X0123399Y0014913D01*
X0125000Y0016515D01*
X0126601Y0014913D01*
X0128807Y0014000D01*
X0131193Y0014000D01*
X0133399Y0014913D01*
X0135000Y0016515D01*
X0136601Y0014913D01*
X0138807Y0014000D01*
X0141193Y0014000D01*
X0143399Y0014913D01*
X0145087Y0016601D01*
X0146000Y0018807D01*
X0146000Y0021193D01*
X0145087Y0023399D01*
X0143399Y0025087D01*
X0141193Y0026000D01*
X0138807Y0026000D01*
X0136601Y0025087D01*
X0135000Y0023485D01*
X0133399Y0025087D01*
X0131193Y0026000D01*
X0130950Y0026000D01*
X0145950Y0041000D01*
X0157070Y0041000D01*
X0157970Y0040100D01*
X0162030Y0040100D01*
X0164900Y0042970D01*
X0019830Y0009919D02*
X0019777Y0009919D01*
X0019635Y0009860D01*
X0019830Y0009972D01*
X0019830Y0009919D01*
X0010963Y0009591D02*
X0008100Y0009591D01*
X0029112Y0009591D02*
X0335963Y0009591D01*
X0344037Y0009591D02*
X0351900Y0009591D01*
X0008114Y0011190D02*
X0008100Y0011190D01*
X0029300Y0011190D02*
X0333114Y0011190D01*
X0346886Y0011190D02*
X0351900Y0011190D01*
X0331515Y0012788D02*
X0029300Y0012788D01*
X0348485Y0012788D02*
X0351900Y0012788D01*
X0087873Y0014387D02*
X0029256Y0014387D01*
X0092127Y0014387D02*
X0097873Y0014387D01*
X0102127Y0014387D02*
X0107873Y0014387D01*
X0112127Y0014387D02*
X0117873Y0014387D01*
X0122127Y0014387D02*
X0127873Y0014387D01*
X0132127Y0014387D02*
X0137873Y0014387D01*
X0142127Y0014387D02*
X0157873Y0014387D01*
X0162127Y0014387D02*
X0167873Y0014387D01*
X0172127Y0014387D02*
X0177873Y0014387D01*
X0182127Y0014387D02*
X0187873Y0014387D01*
X0192127Y0014387D02*
X0197873Y0014387D01*
X0202127Y0014387D02*
X0207873Y0014387D01*
X0212127Y0014387D02*
X0217873Y0014387D01*
X0222127Y0014387D02*
X0227873Y0014387D01*
X0232127Y0014387D02*
X0247873Y0014387D01*
X0252127Y0014387D02*
X0257873Y0014387D01*
X0262127Y0014387D02*
X0267873Y0014387D01*
X0272127Y0014387D02*
X0277873Y0014387D01*
X0282127Y0014387D02*
X0287873Y0014387D01*
X0292127Y0014387D02*
X0297873Y0014387D01*
X0302127Y0014387D02*
X0307873Y0014387D01*
X0312127Y0014387D02*
X0317873Y0014387D01*
X0322127Y0014387D02*
X0330425Y0014387D01*
X0349575Y0014387D02*
X0351900Y0014387D01*
X0085530Y0015985D02*
X0029091Y0015985D01*
X0094470Y0015985D02*
X0095530Y0015985D01*
X0104470Y0015985D02*
X0105530Y0015985D01*
X0114470Y0015985D02*
X0115530Y0015985D01*
X0124470Y0015985D02*
X0125530Y0015985D01*
X0134470Y0015985D02*
X0135530Y0015985D01*
X0144470Y0015985D02*
X0155530Y0015985D01*
X0164470Y0015985D02*
X0165530Y0015985D01*
X0174470Y0015985D02*
X0175530Y0015985D01*
X0184470Y0015985D02*
X0185530Y0015985D01*
X0194470Y0015985D02*
X0195530Y0015985D01*
X0204470Y0015985D02*
X0205530Y0015985D01*
X0214470Y0015985D02*
X0215530Y0015985D01*
X0224470Y0015985D02*
X0225530Y0015985D01*
X0234470Y0015985D02*
X0245530Y0015985D01*
X0254470Y0015985D02*
X0255530Y0015985D01*
X0264470Y0015985D02*
X0265530Y0015985D01*
X0274470Y0015985D02*
X0275530Y0015985D01*
X0284470Y0015985D02*
X0285530Y0015985D01*
X0294470Y0015985D02*
X0295530Y0015985D01*
X0304470Y0015985D02*
X0305530Y0015985D01*
X0314470Y0015985D02*
X0315530Y0015985D01*
X0324470Y0015985D02*
X0329585Y0015985D01*
X0350415Y0015985D02*
X0351900Y0015985D01*
X0084507Y0017584D02*
X0029300Y0017584D01*
X0145493Y0017584D02*
X0154507Y0017584D01*
X0235493Y0017584D02*
X0244507Y0017584D01*
X0325493Y0017584D02*
X0329157Y0017584D01*
X0350843Y0017584D02*
X0351900Y0017584D01*
X0084000Y0019182D02*
X0029300Y0019182D01*
X0146000Y0019182D02*
X0154000Y0019182D01*
X0236000Y0019182D02*
X0244000Y0019182D01*
X0326000Y0019182D02*
X0328901Y0019182D01*
X0351099Y0019182D02*
X0351900Y0019182D01*
X0084000Y0020781D02*
X0029278Y0020781D01*
X0146000Y0020781D02*
X0154000Y0020781D01*
X0236000Y0020781D02*
X0244000Y0020781D01*
X0326000Y0020781D02*
X0328901Y0020781D01*
X0351099Y0020781D02*
X0351900Y0020781D01*
X0084491Y0022379D02*
X0029300Y0022379D01*
X0145509Y0022379D02*
X0154491Y0022379D01*
X0235509Y0022379D02*
X0244491Y0022379D01*
X0325509Y0022379D02*
X0329147Y0022379D01*
X0350853Y0022379D02*
X0351900Y0022379D01*
X0085492Y0023978D02*
X0028784Y0023978D01*
X0094508Y0023978D02*
X0095492Y0023978D01*
X0104508Y0023978D02*
X0105492Y0023978D01*
X0134508Y0023978D02*
X0135492Y0023978D01*
X0144508Y0023978D02*
X0155492Y0023978D01*
X0174508Y0023978D02*
X0175492Y0023978D01*
X0184508Y0023978D02*
X0185492Y0023978D01*
X0194508Y0023978D02*
X0195492Y0023978D01*
X0204508Y0023978D02*
X0205492Y0023978D01*
X0214508Y0023978D02*
X0215492Y0023978D01*
X0234508Y0023978D02*
X0245492Y0023978D01*
X0254508Y0023978D02*
X0255492Y0023978D01*
X0264508Y0023978D02*
X0265492Y0023978D01*
X0274508Y0023978D02*
X0275492Y0023978D01*
X0284508Y0023978D02*
X0285492Y0023978D01*
X0294508Y0023978D02*
X0295492Y0023978D01*
X0304508Y0023978D02*
X0305492Y0023978D01*
X0314508Y0023978D02*
X0315492Y0023978D01*
X0324508Y0023978D02*
X0329575Y0023978D01*
X0350425Y0023978D02*
X0351900Y0023978D01*
X0087783Y0025576D02*
X0029067Y0025576D01*
X0092217Y0025576D02*
X0097783Y0025576D01*
X0102217Y0025576D02*
X0107783Y0025576D01*
X0132217Y0025576D02*
X0137783Y0025576D01*
X0142217Y0025576D02*
X0157783Y0025576D01*
X0172217Y0025576D02*
X0177783Y0025576D01*
X0182217Y0025576D02*
X0187500Y0025576D01*
X0194500Y0025576D02*
X0196500Y0025576D01*
X0203500Y0025576D02*
X0207783Y0025576D01*
X0212217Y0025576D02*
X0217783Y0025576D01*
X0232217Y0025576D02*
X0247783Y0025576D01*
X0252217Y0025576D02*
X0257783Y0025576D01*
X0262217Y0025576D02*
X0267783Y0025576D01*
X0272217Y0025576D02*
X0277783Y0025576D01*
X0282217Y0025576D02*
X0287783Y0025576D01*
X0292217Y0025576D02*
X0297783Y0025576D01*
X0302217Y0025576D02*
X0307783Y0025576D01*
X0312217Y0025576D02*
X0317783Y0025576D01*
X0322217Y0025576D02*
X0330403Y0025576D01*
X0349597Y0025576D02*
X0351900Y0025576D01*
X0107376Y0027175D02*
X0029299Y0027175D01*
X0117275Y0027175D02*
X0122225Y0027175D01*
X0132124Y0027175D02*
X0162725Y0027175D01*
X0172624Y0027175D02*
X0187500Y0027175D01*
X0194500Y0027175D02*
X0196500Y0027175D01*
X0203500Y0027175D02*
X0222725Y0027175D01*
X0232624Y0027175D02*
X0331478Y0027175D01*
X0348522Y0027175D02*
X0351900Y0027175D01*
X0021938Y0028773D02*
X0021923Y0028773D01*
X0028259Y0028773D02*
X0106513Y0028773D01*
X0115677Y0028773D02*
X0123823Y0028773D01*
X0133723Y0028773D02*
X0164323Y0028773D01*
X0174223Y0028773D02*
X0187500Y0028773D01*
X0194500Y0028773D02*
X0196500Y0028773D01*
X0203500Y0028773D02*
X0224323Y0028773D01*
X0234223Y0028773D02*
X0333077Y0028773D01*
X0346923Y0028773D02*
X0351900Y0028773D01*
X0010824Y0030372D02*
X0008100Y0030372D01*
X0019176Y0030372D02*
X0106500Y0030372D01*
X0114078Y0030372D02*
X0125422Y0030372D01*
X0135321Y0030372D02*
X0165922Y0030372D01*
X0175821Y0030372D02*
X0187500Y0030372D01*
X0194500Y0030372D02*
X0196500Y0030372D01*
X0203500Y0030372D02*
X0214478Y0030372D01*
X0225522Y0030372D02*
X0225922Y0030372D01*
X0235821Y0030372D02*
X0335824Y0030372D01*
X0344176Y0030372D02*
X0351900Y0030372D01*
X0106500Y0031970D02*
X0008100Y0031970D01*
X0113500Y0031970D02*
X0127020Y0031970D01*
X0136920Y0031970D02*
X0167520Y0031970D01*
X0177420Y0031970D02*
X0187500Y0031970D01*
X0194500Y0031970D02*
X0196500Y0031970D01*
X0203500Y0031970D02*
X0212333Y0031970D01*
X0237420Y0031970D02*
X0351900Y0031970D01*
X0018325Y0033569D02*
X0008100Y0033569D01*
X0028670Y0033569D02*
X0106500Y0033569D01*
X0113500Y0033569D02*
X0128619Y0033569D01*
X0138518Y0033569D02*
X0169119Y0033569D01*
X0179018Y0033569D02*
X0187500Y0033569D01*
X0194500Y0033569D02*
X0196500Y0033569D01*
X0203500Y0033569D02*
X0210897Y0033569D01*
X0229103Y0033569D02*
X0229119Y0033569D01*
X0239018Y0033569D02*
X0351900Y0033569D01*
X0017695Y0035167D02*
X0008100Y0035167D01*
X0029300Y0035167D02*
X0106500Y0035167D01*
X0113500Y0035167D02*
X0130218Y0035167D01*
X0140117Y0035167D02*
X0170718Y0035167D01*
X0180617Y0035167D02*
X0187500Y0035167D01*
X0194500Y0035167D02*
X0196500Y0035167D01*
X0204617Y0035167D02*
X0209974Y0035167D01*
X0230026Y0035167D02*
X0230718Y0035167D01*
X0240617Y0035167D02*
X0326347Y0035167D01*
X0333653Y0035167D02*
X0336347Y0035167D01*
X0343653Y0035167D02*
X0351900Y0035167D01*
X0018107Y0036766D02*
X0008100Y0036766D01*
X0028887Y0036766D02*
X0106500Y0036766D01*
X0113500Y0036766D02*
X0131816Y0036766D01*
X0141715Y0036766D02*
X0172316Y0036766D01*
X0182215Y0036766D02*
X0187500Y0036766D01*
X0194500Y0036766D02*
X0196736Y0036766D01*
X0206215Y0036766D02*
X0209376Y0036766D01*
X0230624Y0036766D02*
X0232316Y0036766D01*
X0242216Y0036766D02*
X0324845Y0036766D01*
X0345155Y0036766D02*
X0351900Y0036766D01*
X0017970Y0038364D02*
X0008100Y0038364D01*
X0029025Y0038364D02*
X0106500Y0038364D01*
X0113500Y0038364D02*
X0133415Y0038364D01*
X0143314Y0038364D02*
X0173915Y0038364D01*
X0183814Y0038364D02*
X0187500Y0038364D01*
X0194500Y0038364D02*
X0197915Y0038364D01*
X0207814Y0038364D02*
X0208948Y0038364D01*
X0231052Y0038364D02*
X0233915Y0038364D01*
X0243814Y0038364D02*
X0324183Y0038364D01*
X0345817Y0038364D02*
X0351900Y0038364D01*
X0017695Y0039963D02*
X0008100Y0039963D01*
X0029300Y0039963D02*
X0106500Y0039963D01*
X0113500Y0039963D02*
X0135013Y0039963D01*
X0144913Y0039963D02*
X0175513Y0039963D01*
X0185413Y0039963D02*
X0187500Y0039963D01*
X0194500Y0039963D02*
X0199513Y0039963D01*
X0231099Y0039963D02*
X0235513Y0039963D01*
X0245413Y0039963D02*
X0324000Y0039963D01*
X0346000Y0039963D02*
X0351900Y0039963D01*
X0018633Y0041561D02*
X0008100Y0041561D01*
X0029006Y0041561D02*
X0106500Y0041561D01*
X0113500Y0041561D02*
X0136612Y0041561D01*
X0163491Y0041561D02*
X0177112Y0041561D01*
X0187011Y0041561D02*
X0187500Y0041561D01*
X0194511Y0041561D02*
X0196509Y0041561D01*
X0231072Y0041561D02*
X0237112Y0041561D01*
X0263386Y0041561D02*
X0296405Y0041561D01*
X0303597Y0041561D02*
X0324152Y0041561D01*
X0345848Y0041561D02*
X0351900Y0041561D01*
X0019830Y0043160D02*
X0008100Y0043160D01*
X0029300Y0043160D02*
X0096345Y0043160D01*
X0103655Y0043160D02*
X0106345Y0043160D01*
X0113655Y0043160D02*
X0116345Y0043160D01*
X0123655Y0043160D02*
X0126345Y0043160D01*
X0133655Y0043160D02*
X0138210Y0043160D01*
X0164900Y0043160D02*
X0178710Y0043160D01*
X0230644Y0043160D02*
X0238710Y0043160D01*
X0264890Y0043160D02*
X0295091Y0043160D01*
X0304891Y0043160D02*
X0324814Y0043160D01*
X0345186Y0043160D02*
X0351900Y0043160D01*
X0019830Y0044758D02*
X0008100Y0044758D01*
X0029300Y0044758D02*
X0095192Y0044758D01*
X0104808Y0044758D02*
X0105192Y0044758D01*
X0114808Y0044758D02*
X0115192Y0044758D01*
X0124808Y0044758D02*
X0125192Y0044758D01*
X0134808Y0044758D02*
X0139809Y0044758D01*
X0164900Y0044758D02*
X0180309Y0044758D01*
X0230069Y0044758D02*
X0240309Y0044758D01*
X0264899Y0044758D02*
X0295099Y0044758D01*
X0304899Y0044758D02*
X0326273Y0044758D01*
X0333727Y0044758D02*
X0336273Y0044758D01*
X0343727Y0044758D02*
X0351900Y0044758D01*
X0020209Y0046357D02*
X0008100Y0046357D01*
X0029300Y0046357D02*
X0094700Y0046357D01*
X0135300Y0046357D02*
X0141407Y0046357D01*
X0164900Y0046357D02*
X0181500Y0046357D01*
X0188500Y0046357D02*
X0189407Y0046357D01*
X0204900Y0046357D02*
X0205500Y0046357D01*
X0229146Y0046357D02*
X0241907Y0046357D01*
X0264907Y0046357D02*
X0295107Y0046357D01*
X0304907Y0046357D02*
X0325158Y0046357D01*
X0334842Y0046357D02*
X0335158Y0046357D01*
X0344842Y0046357D02*
X0351900Y0046357D01*
X0019830Y0047955D02*
X0008100Y0047955D01*
X0029300Y0047955D02*
X0094700Y0047955D01*
X0135300Y0047955D02*
X0143696Y0047955D01*
X0163974Y0047955D02*
X0181500Y0047955D01*
X0188500Y0047955D02*
X0191006Y0047955D01*
X0203974Y0047955D02*
X0205500Y0047955D01*
X0227741Y0047955D02*
X0244196Y0047955D01*
X0264073Y0047955D02*
X0296126Y0047955D01*
X0304000Y0047955D02*
X0324000Y0047955D01*
X0346000Y0047955D02*
X0351900Y0047955D01*
X0019830Y0049554D02*
X0008100Y0049554D01*
X0028940Y0049554D02*
X0094700Y0049554D01*
X0135300Y0049554D02*
X0157624Y0049554D01*
X0162376Y0049554D02*
X0181500Y0049554D01*
X0188500Y0049554D02*
X0192604Y0049554D01*
X0202504Y0049554D02*
X0205500Y0049554D01*
X0212500Y0049554D02*
X0214349Y0049554D01*
X0225651Y0049554D02*
X0257530Y0049554D01*
X0262491Y0049554D02*
X0297000Y0049554D01*
X0304000Y0049554D02*
X0324000Y0049554D01*
X0346000Y0049554D02*
X0351900Y0049554D01*
X0019830Y0051152D02*
X0008100Y0051152D01*
X0028982Y0051152D02*
X0094700Y0051152D01*
X0135300Y0051152D02*
X0181500Y0051152D01*
X0188500Y0051152D02*
X0194203Y0051152D01*
X0203437Y0051152D02*
X0205500Y0051152D01*
X0212500Y0051152D02*
X0297000Y0051152D01*
X0304000Y0051152D02*
X0324000Y0051152D01*
X0346000Y0051152D02*
X0351900Y0051152D01*
X0020188Y0052751D02*
X0008100Y0052751D01*
X0029300Y0052751D02*
X0094700Y0052751D01*
X0135300Y0052751D02*
X0181500Y0052751D01*
X0188500Y0052751D02*
X0195801Y0052751D01*
X0203500Y0052751D02*
X0205500Y0052751D01*
X0212500Y0052751D02*
X0297000Y0052751D01*
X0304000Y0052751D02*
X0324266Y0052751D01*
X0345734Y0052751D02*
X0351900Y0052751D01*
X0019830Y0054349D02*
X0008100Y0054349D01*
X0028963Y0054349D02*
X0094822Y0054349D01*
X0135178Y0054349D02*
X0181500Y0054349D01*
X0188500Y0054349D02*
X0196500Y0054349D01*
X0203500Y0054349D02*
X0205500Y0054349D01*
X0212500Y0054349D02*
X0297000Y0054349D01*
X0304000Y0054349D02*
X0325864Y0054349D01*
X0334136Y0054349D02*
X0335864Y0054349D01*
X0344136Y0054349D02*
X0351900Y0054349D01*
X0020169Y0055948D02*
X0008100Y0055948D01*
X0029300Y0055948D02*
X0095484Y0055948D01*
X0104516Y0055948D02*
X0105484Y0055948D01*
X0114516Y0055948D02*
X0115484Y0055948D01*
X0124516Y0055948D02*
X0125484Y0055948D01*
X0134516Y0055948D02*
X0181500Y0055948D01*
X0188500Y0055948D02*
X0196500Y0055948D01*
X0203500Y0055948D02*
X0205500Y0055948D01*
X0212500Y0055948D02*
X0297000Y0055948D01*
X0304000Y0055948D02*
X0325567Y0055948D01*
X0334433Y0055948D02*
X0335567Y0055948D01*
X0344433Y0055948D02*
X0351900Y0055948D01*
X0020169Y0057546D02*
X0008100Y0057546D01*
X0029300Y0057546D02*
X0097126Y0057546D01*
X0104500Y0057546D02*
X0107126Y0057546D01*
X0112874Y0057546D02*
X0117126Y0057546D01*
X0122874Y0057546D02*
X0127126Y0057546D01*
X0132874Y0057546D02*
X0176958Y0057546D01*
X0193042Y0057546D02*
X0196500Y0057546D01*
X0203500Y0057546D02*
X0205500Y0057546D01*
X0213042Y0057546D02*
X0297000Y0057546D01*
X0304000Y0057546D02*
X0324000Y0057546D01*
X0346000Y0057546D02*
X0351900Y0057546D01*
X0019830Y0059145D02*
X0008100Y0059145D01*
X0029300Y0059145D02*
X0097500Y0059145D01*
X0104500Y0059145D02*
X0175446Y0059145D01*
X0194554Y0059145D02*
X0195446Y0059145D01*
X0204554Y0059145D02*
X0205446Y0059145D01*
X0214554Y0059145D02*
X0297000Y0059145D01*
X0304000Y0059145D02*
X0324000Y0059145D01*
X0346000Y0059145D02*
X0351900Y0059145D01*
X0020188Y0060743D02*
X0008100Y0060743D01*
X0028942Y0060743D02*
X0042327Y0060743D01*
X0047673Y0060743D02*
X0097500Y0060743D01*
X0107673Y0060743D02*
X0174784Y0060743D01*
X0215216Y0060743D02*
X0297000Y0060743D01*
X0304000Y0060743D02*
X0324000Y0060743D01*
X0346000Y0060743D02*
X0351900Y0060743D01*
X0019830Y0062342D02*
X0008100Y0062342D01*
X0029300Y0062342D02*
X0040728Y0062342D01*
X0109272Y0062342D02*
X0174700Y0062342D01*
X0215300Y0062342D02*
X0297000Y0062342D01*
X0304000Y0062342D02*
X0324000Y0062342D01*
X0346000Y0062342D02*
X0351900Y0062342D01*
X0019830Y0063940D02*
X0008100Y0063940D01*
X0029300Y0063940D02*
X0040100Y0063940D01*
X0109900Y0063940D02*
X0174700Y0063940D01*
X0215300Y0063940D02*
X0297000Y0063940D01*
X0304000Y0063940D02*
X0325455Y0063940D01*
X0334545Y0063940D02*
X0335455Y0063940D01*
X0344545Y0063940D02*
X0351900Y0063940D01*
X0018582Y0065539D02*
X0008100Y0065539D01*
X0028985Y0065539D02*
X0040100Y0065539D01*
X0109900Y0065539D02*
X0174700Y0065539D01*
X0215300Y0065539D02*
X0297000Y0065539D01*
X0304000Y0065539D02*
X0325976Y0065539D01*
X0334024Y0065539D02*
X0335976Y0065539D01*
X0344024Y0065539D02*
X0351900Y0065539D01*
X0017695Y0067137D02*
X0008100Y0067137D01*
X0029300Y0067137D02*
X0040208Y0067137D01*
X0109792Y0067137D02*
X0174700Y0067137D01*
X0215300Y0067137D02*
X0297000Y0067137D01*
X0304000Y0067137D02*
X0324377Y0067137D01*
X0345623Y0067137D02*
X0351900Y0067137D01*
X0017695Y0068736D02*
X0008100Y0068736D01*
X0029300Y0068736D02*
X0041806Y0068736D01*
X0108194Y0068736D02*
X0174700Y0068736D01*
X0215300Y0068736D02*
X0297000Y0068736D01*
X0304000Y0068736D02*
X0324000Y0068736D01*
X0346000Y0068736D02*
X0351900Y0068736D01*
X0018381Y0070334D02*
X0008100Y0070334D01*
X0029226Y0070334D02*
X0175230Y0070334D01*
X0204770Y0070334D02*
X0205230Y0070334D01*
X0214770Y0070334D02*
X0297000Y0070334D01*
X0304000Y0070334D02*
X0324000Y0070334D01*
X0346000Y0070334D02*
X0351900Y0070334D01*
X0025445Y0071933D02*
X0008100Y0071933D01*
X0027955Y0071933D02*
X0175500Y0071933D01*
X0203562Y0071933D02*
X0206438Y0071933D01*
X0213562Y0071933D02*
X0286958Y0071933D01*
X0293042Y0071933D02*
X0297000Y0071933D01*
X0304000Y0071933D02*
X0324000Y0071933D01*
X0346000Y0071933D02*
X0351900Y0071933D01*
X0175500Y0073532D02*
X0008100Y0073532D01*
X0182500Y0073532D02*
X0183000Y0073532D01*
X0190000Y0073532D02*
X0192582Y0073532D01*
X0294441Y0073532D02*
X0297000Y0073532D01*
X0304000Y0073532D02*
X0325046Y0073532D01*
X0334954Y0073532D02*
X0335046Y0073532D01*
X0344954Y0073532D02*
X0351900Y0073532D01*
X0175500Y0075130D02*
X0008100Y0075130D01*
X0182500Y0075130D02*
X0183000Y0075130D01*
X0190000Y0075130D02*
X0194180Y0075130D01*
X0295072Y0075130D02*
X0297000Y0075130D01*
X0304000Y0075130D02*
X0326385Y0075130D01*
X0333615Y0075130D02*
X0336385Y0075130D01*
X0343615Y0075130D02*
X0351900Y0075130D01*
X0018135Y0076729D02*
X0008100Y0076729D01*
X0028860Y0076729D02*
X0175500Y0076729D01*
X0182500Y0076729D02*
X0183000Y0076729D01*
X0190000Y0076729D02*
X0195779Y0076729D01*
X0295678Y0076729D02*
X0297000Y0076729D01*
X0304000Y0076729D02*
X0324786Y0076729D01*
X0345214Y0076729D02*
X0351900Y0076729D01*
X0017695Y0078327D02*
X0008100Y0078327D01*
X0029300Y0078327D02*
X0175500Y0078327D01*
X0182500Y0078327D02*
X0183000Y0078327D01*
X0190000Y0078327D02*
X0197377Y0078327D01*
X0304000Y0078327D02*
X0324000Y0078327D01*
X0346000Y0078327D02*
X0351900Y0078327D01*
X0018297Y0079926D02*
X0008100Y0079926D01*
X0029300Y0079926D02*
X0147367Y0079926D01*
X0152633Y0079926D02*
X0157367Y0079926D01*
X0162633Y0079926D02*
X0175500Y0079926D01*
X0182500Y0079926D02*
X0183000Y0079926D01*
X0190000Y0079926D02*
X0237625Y0079926D01*
X0257633Y0079926D02*
X0286690Y0079926D01*
X0304000Y0079926D02*
X0324000Y0079926D01*
X0346000Y0079926D02*
X0351900Y0079926D01*
X0024100Y0081524D02*
X0008100Y0081524D01*
X0029300Y0081524D02*
X0145768Y0081524D01*
X0154232Y0081524D02*
X0155768Y0081524D01*
X0164232Y0081524D02*
X0175500Y0081524D01*
X0182500Y0081524D02*
X0183000Y0081524D01*
X0190000Y0081524D02*
X0236026Y0081524D01*
X0304000Y0081524D02*
X0324000Y0081524D01*
X0346000Y0081524D02*
X0351900Y0081524D01*
X0021389Y0083123D02*
X0008100Y0083123D01*
X0029263Y0083123D02*
X0144550Y0083123D01*
X0165450Y0083123D02*
X0174428Y0083123D01*
X0182500Y0083123D02*
X0183000Y0083123D01*
X0190000Y0083123D02*
X0234428Y0083123D01*
X0304000Y0083123D02*
X0324637Y0083123D01*
X0345363Y0083123D02*
X0351900Y0083123D01*
X0020045Y0084721D02*
X0008100Y0084721D01*
X0029084Y0084721D02*
X0144550Y0084721D01*
X0165450Y0084721D02*
X0172829Y0084721D01*
X0182283Y0084721D02*
X0183000Y0084721D01*
X0190000Y0084721D02*
X0232829Y0084721D01*
X0304000Y0084721D02*
X0326236Y0084721D01*
X0333764Y0084721D02*
X0336236Y0084721D01*
X0343764Y0084721D02*
X0351900Y0084721D01*
X0019830Y0086320D02*
X0008100Y0086320D01*
X0029300Y0086320D02*
X0144550Y0086320D01*
X0165450Y0086320D02*
X0171408Y0086320D01*
X0190000Y0086320D02*
X0231231Y0086320D01*
X0304000Y0086320D02*
X0325195Y0086320D01*
X0334805Y0086320D02*
X0335195Y0086320D01*
X0344805Y0086320D02*
X0351900Y0086320D01*
X0019830Y0087918D02*
X0008100Y0087918D01*
X0029300Y0087918D02*
X0145211Y0087918D01*
X0154789Y0087918D02*
X0155211Y0087918D01*
X0164789Y0087918D02*
X0171000Y0087918D01*
X0190000Y0087918D02*
X0229632Y0087918D01*
X0239532Y0087918D02*
X0240211Y0087918D01*
X0249789Y0087918D02*
X0250211Y0087918D01*
X0304000Y0087918D02*
X0324000Y0087918D01*
X0346000Y0087918D02*
X0351900Y0087918D01*
X0020333Y0089517D02*
X0008100Y0089517D01*
X0028755Y0089517D02*
X0146809Y0089517D01*
X0154000Y0089517D02*
X0156809Y0089517D01*
X0164500Y0089517D02*
X0171000Y0089517D01*
X0190000Y0089517D02*
X0228034Y0089517D01*
X0237933Y0089517D02*
X0241500Y0089517D01*
X0248500Y0089517D02*
X0251809Y0089517D01*
X0259000Y0089517D02*
X0286826Y0089517D01*
X0296433Y0089517D02*
X0297000Y0089517D01*
X0304000Y0089517D02*
X0324000Y0089517D01*
X0346000Y0089517D02*
X0351900Y0089517D01*
X0019825Y0091115D02*
X0008100Y0091115D01*
X0028200Y0091115D02*
X0147000Y0091115D01*
X0154000Y0091115D02*
X0157500Y0091115D01*
X0164500Y0091115D02*
X0171000Y0091115D01*
X0190545Y0091115D02*
X0226435Y0091115D01*
X0236335Y0091115D02*
X0241500Y0091115D01*
X0248500Y0091115D02*
X0252000Y0091115D01*
X0259000Y0091115D02*
X0286500Y0091115D01*
X0294835Y0091115D02*
X0297000Y0091115D01*
X0304000Y0091115D02*
X0324000Y0091115D01*
X0346000Y0091115D02*
X0351900Y0091115D01*
X0020356Y0092714D02*
X0008100Y0092714D01*
X0029267Y0092714D02*
X0147000Y0092714D01*
X0154000Y0092714D02*
X0157500Y0092714D01*
X0164500Y0092714D02*
X0171000Y0092714D01*
X0192143Y0092714D02*
X0224837Y0092714D01*
X0234736Y0092714D02*
X0241500Y0092714D01*
X0248500Y0092714D02*
X0252000Y0092714D01*
X0259000Y0092714D02*
X0286500Y0092714D01*
X0293500Y0092714D02*
X0297000Y0092714D01*
X0304000Y0092714D02*
X0324228Y0092714D01*
X0345772Y0092714D02*
X0351900Y0092714D01*
X0020054Y0094312D02*
X0008100Y0094312D01*
X0029094Y0094312D02*
X0147000Y0094312D01*
X0154000Y0094312D02*
X0157500Y0094312D01*
X0164500Y0094312D02*
X0171000Y0094312D01*
X0192400Y0094312D02*
X0223238Y0094312D01*
X0233138Y0094312D02*
X0241500Y0094312D01*
X0248500Y0094312D02*
X0252000Y0094312D01*
X0259000Y0094312D02*
X0286500Y0094312D01*
X0293500Y0094312D02*
X0297000Y0094312D01*
X0304000Y0094312D02*
X0325827Y0094312D01*
X0334173Y0094312D02*
X0335827Y0094312D01*
X0344173Y0094312D02*
X0351900Y0094312D01*
X0019859Y0095911D02*
X0008100Y0095911D01*
X0027638Y0095911D02*
X0057160Y0095911D01*
X0062840Y0095911D02*
X0087160Y0095911D01*
X0092840Y0095911D02*
X0136382Y0095911D01*
X0143618Y0095911D02*
X0146382Y0095911D01*
X0154000Y0095911D02*
X0157500Y0095911D01*
X0164500Y0095911D02*
X0171000Y0095911D01*
X0192400Y0095911D02*
X0221640Y0095911D01*
X0231539Y0095911D02*
X0241500Y0095911D01*
X0248500Y0095911D02*
X0252000Y0095911D01*
X0259000Y0095911D02*
X0286500Y0095911D01*
X0293500Y0095911D02*
X0297000Y0095911D01*
X0304000Y0095911D02*
X0325604Y0095911D01*
X0334396Y0095911D02*
X0335604Y0095911D01*
X0344396Y0095911D02*
X0351900Y0095911D01*
X0020088Y0097509D02*
X0008100Y0097509D01*
X0029042Y0097509D02*
X0055728Y0097509D01*
X0064272Y0097509D02*
X0085728Y0097509D01*
X0094272Y0097509D02*
X0134783Y0097509D01*
X0155217Y0097509D02*
X0157500Y0097509D01*
X0164500Y0097509D02*
X0171559Y0097509D01*
X0191920Y0097509D02*
X0220041Y0097509D01*
X0229941Y0097509D02*
X0241500Y0097509D01*
X0248500Y0097509D02*
X0252000Y0097509D01*
X0259000Y0097509D02*
X0285561Y0097509D01*
X0294439Y0097509D02*
X0295561Y0097509D01*
X0304439Y0097509D02*
X0324006Y0097509D01*
X0345994Y0097509D02*
X0351900Y0097509D01*
X0019830Y0099108D02*
X0008100Y0099108D01*
X0029300Y0099108D02*
X0055100Y0099108D01*
X0064900Y0099108D02*
X0085100Y0099108D01*
X0094900Y0099108D02*
X0134550Y0099108D01*
X0155450Y0099108D02*
X0157500Y0099108D01*
X0164500Y0099108D02*
X0173158Y0099108D01*
X0190322Y0099108D02*
X0218443Y0099108D01*
X0228342Y0099108D02*
X0241500Y0099108D01*
X0248500Y0099108D02*
X0252000Y0099108D01*
X0259000Y0099108D02*
X0285100Y0099108D01*
X0294900Y0099108D02*
X0295100Y0099108D01*
X0304900Y0099108D02*
X0324000Y0099108D01*
X0346000Y0099108D02*
X0351900Y0099108D01*
X0019830Y0100706D02*
X0008100Y0100706D01*
X0029300Y0100706D02*
X0042364Y0100706D01*
X0047636Y0100706D02*
X0055100Y0100706D01*
X0064900Y0100706D02*
X0085100Y0100706D01*
X0094900Y0100706D02*
X0102364Y0100706D01*
X0107636Y0100706D02*
X0134550Y0100706D01*
X0155450Y0100706D02*
X0157500Y0100706D01*
X0164500Y0100706D02*
X0174756Y0100706D01*
X0184900Y0100706D02*
X0216844Y0100706D01*
X0226744Y0100706D02*
X0241500Y0100706D01*
X0248500Y0100706D02*
X0252000Y0100706D01*
X0259000Y0100706D02*
X0285100Y0100706D01*
X0294900Y0100706D02*
X0295100Y0100706D01*
X0304900Y0100706D02*
X0324000Y0100706D01*
X0346000Y0100706D02*
X0351900Y0100706D01*
X0020272Y0102305D02*
X0008100Y0102305D01*
X0028857Y0102305D02*
X0040766Y0102305D01*
X0049234Y0102305D02*
X0055651Y0102305D01*
X0064349Y0102305D02*
X0085651Y0102305D01*
X0109234Y0102305D02*
X0134597Y0102305D01*
X0155403Y0102305D02*
X0157500Y0102305D01*
X0225145Y0102305D02*
X0241500Y0102305D01*
X0248500Y0102305D02*
X0252000Y0102305D01*
X0259000Y0102305D02*
X0285375Y0102305D01*
X0294625Y0102305D02*
X0295375Y0102305D01*
X0304625Y0102305D02*
X0324000Y0102305D01*
X0346000Y0102305D02*
X0351900Y0102305D01*
X0019830Y0103903D02*
X0008100Y0103903D01*
X0029300Y0103903D02*
X0040100Y0103903D01*
X0049900Y0103903D02*
X0056974Y0103903D01*
X0063026Y0103903D02*
X0084647Y0103903D01*
X0109900Y0103903D02*
X0136196Y0103903D01*
X0143804Y0103903D02*
X0146196Y0103903D01*
X0154000Y0103903D02*
X0157500Y0103903D01*
X0223546Y0103903D02*
X0241500Y0103903D01*
X0248500Y0103903D02*
X0252000Y0103903D01*
X0259000Y0103903D02*
X0286974Y0103903D01*
X0293026Y0103903D02*
X0296974Y0103903D01*
X0303026Y0103903D02*
X0325418Y0103903D01*
X0334582Y0103903D02*
X0335418Y0103903D01*
X0344582Y0103903D02*
X0351900Y0103903D01*
X0019889Y0105502D02*
X0008100Y0105502D01*
X0028903Y0105502D02*
X0040100Y0105502D01*
X0049900Y0105502D02*
X0058055Y0105502D01*
X0109900Y0105502D02*
X0147000Y0105502D01*
X0154000Y0105502D02*
X0157500Y0105502D01*
X0221948Y0105502D02*
X0231791Y0105502D01*
X0238209Y0105502D02*
X0241500Y0105502D01*
X0248500Y0105502D02*
X0252000Y0105502D01*
X0259000Y0105502D02*
X0297569Y0105502D01*
X0302431Y0105502D02*
X0326013Y0105502D01*
X0333987Y0105502D02*
X0336013Y0105502D01*
X0343987Y0105502D02*
X0351900Y0105502D01*
X0019830Y0107100D02*
X0008100Y0107100D01*
X0026876Y0107100D02*
X0040171Y0107100D01*
X0049829Y0107100D02*
X0055970Y0107100D01*
X0109829Y0107100D02*
X0136680Y0107100D01*
X0143320Y0107100D02*
X0146680Y0107100D01*
X0154000Y0107100D02*
X0156680Y0107100D01*
X0220349Y0107100D02*
X0230192Y0107100D01*
X0239808Y0107100D02*
X0240192Y0107100D01*
X0249808Y0107100D02*
X0252000Y0107100D01*
X0259000Y0107100D02*
X0295970Y0107100D01*
X0304030Y0107100D02*
X0324414Y0107100D01*
X0345586Y0107100D02*
X0351900Y0107100D01*
X0020224Y0108699D02*
X0008100Y0108699D01*
X0028609Y0108699D02*
X0041769Y0108699D01*
X0049000Y0108699D02*
X0055235Y0108699D01*
X0094765Y0108699D02*
X0101769Y0108699D01*
X0109000Y0108699D02*
X0135182Y0108699D01*
X0144818Y0108699D02*
X0145182Y0108699D01*
X0154818Y0108699D02*
X0155182Y0108699D01*
X0164818Y0108699D02*
X0229550Y0108699D01*
X0250450Y0108699D02*
X0252000Y0108699D01*
X0259000Y0108699D02*
X0295100Y0108699D01*
X0304900Y0108699D02*
X0324000Y0108699D01*
X0346000Y0108699D02*
X0351900Y0108699D01*
X0019830Y0110297D02*
X0008100Y0110297D01*
X0029300Y0110297D02*
X0042000Y0110297D01*
X0049000Y0110297D02*
X0055100Y0110297D01*
X0094900Y0110297D02*
X0102000Y0110297D01*
X0109000Y0110297D02*
X0134520Y0110297D01*
X0165480Y0110297D02*
X0229550Y0110297D01*
X0250450Y0110297D02*
X0252000Y0110297D01*
X0259000Y0110297D02*
X0295100Y0110297D01*
X0304900Y0110297D02*
X0324000Y0110297D01*
X0346000Y0110297D02*
X0351900Y0110297D01*
X0019830Y0111896D02*
X0008100Y0111896D01*
X0029300Y0111896D02*
X0042000Y0111896D01*
X0049000Y0111896D02*
X0055482Y0111896D01*
X0094518Y0111896D02*
X0102000Y0111896D01*
X0109000Y0111896D02*
X0134400Y0111896D01*
X0165600Y0111896D02*
X0229550Y0111896D01*
X0250450Y0111896D02*
X0252000Y0111896D01*
X0259000Y0111896D02*
X0295100Y0111896D01*
X0304900Y0111896D02*
X0324000Y0111896D01*
X0346000Y0111896D02*
X0351900Y0111896D01*
X0019985Y0113494D02*
X0008100Y0113494D01*
X0029300Y0113494D02*
X0042000Y0113494D01*
X0049000Y0113494D02*
X0056565Y0113494D01*
X0063435Y0113494D02*
X0086565Y0113494D01*
X0093435Y0113494D02*
X0102000Y0113494D01*
X0109000Y0113494D02*
X0134400Y0113494D01*
X0165600Y0113494D02*
X0230787Y0113494D01*
X0239500Y0113494D02*
X0240787Y0113494D01*
X0249213Y0113494D02*
X0252000Y0113494D01*
X0259000Y0113494D02*
X0296565Y0113494D01*
X0304000Y0113494D02*
X0325009Y0113494D01*
X0334991Y0113494D02*
X0335009Y0113494D01*
X0344991Y0113494D02*
X0351900Y0113494D01*
X0021244Y0115093D02*
X0008100Y0115093D01*
X0028925Y0115093D02*
X0042000Y0115093D01*
X0049000Y0115093D02*
X0102000Y0115093D01*
X0109000Y0115093D02*
X0134400Y0115093D01*
X0165600Y0115093D02*
X0232385Y0115093D01*
X0239500Y0115093D02*
X0241500Y0115093D01*
X0248500Y0115093D02*
X0252000Y0115093D01*
X0259000Y0115093D02*
X0297000Y0115093D01*
X0304043Y0115093D02*
X0326422Y0115093D01*
X0333578Y0115093D02*
X0336422Y0115093D01*
X0343578Y0115093D02*
X0351900Y0115093D01*
X0041379Y0116691D02*
X0008100Y0116691D01*
X0049000Y0116691D02*
X0056379Y0116691D01*
X0063621Y0116691D02*
X0086379Y0116691D01*
X0093621Y0116691D02*
X0101379Y0116691D01*
X0109000Y0116691D02*
X0134400Y0116691D01*
X0165600Y0116691D02*
X0232459Y0116691D01*
X0239500Y0116691D02*
X0241500Y0116691D01*
X0248500Y0116691D02*
X0252000Y0116691D01*
X0259000Y0116691D02*
X0297000Y0116691D01*
X0305641Y0116691D02*
X0324823Y0116691D01*
X0345177Y0116691D02*
X0351900Y0116691D01*
X0040100Y0118290D02*
X0008100Y0118290D01*
X0064595Y0118290D02*
X0085405Y0118290D01*
X0094595Y0118290D02*
X0100100Y0118290D01*
X0109900Y0118290D02*
X0134400Y0118290D01*
X0165600Y0118290D02*
X0230491Y0118290D01*
X0239509Y0118290D02*
X0240491Y0118290D01*
X0249509Y0118290D02*
X0250491Y0118290D01*
X0259509Y0118290D02*
X0297453Y0118290D01*
X0307240Y0118290D02*
X0324000Y0118290D01*
X0346000Y0118290D02*
X0351900Y0118290D01*
X0020367Y0119888D02*
X0008100Y0119888D01*
X0022358Y0119888D02*
X0025704Y0119888D01*
X0027696Y0119888D02*
X0040100Y0119888D01*
X0064900Y0119888D02*
X0085100Y0119888D01*
X0094900Y0119888D02*
X0100100Y0119888D01*
X0109900Y0119888D02*
X0134597Y0119888D01*
X0165403Y0119888D02*
X0229689Y0119888D01*
X0260311Y0119888D02*
X0298939Y0119888D01*
X0308838Y0119888D02*
X0324000Y0119888D01*
X0346000Y0119888D02*
X0351900Y0119888D01*
X0018488Y0121487D02*
X0008100Y0121487D01*
X0029181Y0121487D02*
X0040100Y0121487D01*
X0064688Y0121487D02*
X0085312Y0121487D01*
X0094688Y0121487D02*
X0100100Y0121487D01*
X0109900Y0121487D02*
X0135267Y0121487D01*
X0144733Y0121487D02*
X0145267Y0121487D01*
X0172437Y0121487D02*
X0176222Y0121487D01*
X0183621Y0121487D02*
X0186379Y0121487D01*
X0193778Y0121487D02*
X0229400Y0121487D01*
X0260600Y0121487D02*
X0300537Y0121487D01*
X0310437Y0121487D02*
X0324000Y0121487D01*
X0346000Y0121487D02*
X0351900Y0121487D01*
X0017695Y0123085D02*
X0008100Y0123085D01*
X0029300Y0123085D02*
X0041156Y0123085D01*
X0063844Y0123085D02*
X0086156Y0123085D01*
X0093844Y0123085D02*
X0101156Y0123085D01*
X0108844Y0123085D02*
X0136919Y0123085D01*
X0143081Y0123085D02*
X0146919Y0123085D01*
X0174035Y0123085D02*
X0174821Y0123085D01*
X0195179Y0123085D02*
X0229400Y0123085D01*
X0260600Y0123085D02*
X0302136Y0123085D01*
X0312035Y0123085D02*
X0324600Y0123085D01*
X0345400Y0123085D02*
X0351900Y0123085D01*
X0017695Y0124684D02*
X0008100Y0124684D01*
X0029300Y0124684D02*
X0042754Y0124684D01*
X0047246Y0124684D02*
X0058504Y0124684D01*
X0061496Y0124684D02*
X0088504Y0124684D01*
X0091496Y0124684D02*
X0102754Y0124684D01*
X0107246Y0124684D02*
X0150866Y0124684D01*
X0195179Y0124684D02*
X0229400Y0124684D01*
X0260600Y0124684D02*
X0273201Y0124684D01*
X0276799Y0124684D02*
X0303734Y0124684D01*
X0316799Y0124684D02*
X0326199Y0124684D01*
X0333801Y0124684D02*
X0336199Y0124684D01*
X0343801Y0124684D02*
X0351900Y0124684D01*
X0017807Y0126282D02*
X0008100Y0126282D01*
X0029300Y0126282D02*
X0056788Y0126282D01*
X0063212Y0126282D02*
X0086788Y0126282D01*
X0093212Y0126282D02*
X0149268Y0126282D01*
X0195179Y0126282D02*
X0229400Y0126282D01*
X0260600Y0126282D02*
X0270798Y0126282D01*
X0279202Y0126282D02*
X0305333Y0126282D01*
X0319202Y0126282D02*
X0325232Y0126282D01*
X0334768Y0126282D02*
X0335232Y0126282D01*
X0344768Y0126282D02*
X0351900Y0126282D01*
X0018540Y0127881D02*
X0008100Y0127881D01*
X0028967Y0127881D02*
X0055574Y0127881D01*
X0094426Y0127881D02*
X0147669Y0127881D01*
X0157569Y0127881D02*
X0168931Y0127881D01*
X0194410Y0127881D02*
X0229400Y0127881D01*
X0260600Y0127881D02*
X0269816Y0127881D01*
X0280184Y0127881D02*
X0306931Y0127881D01*
X0320184Y0127881D02*
X0324000Y0127881D01*
X0346000Y0127881D02*
X0351900Y0127881D01*
X0017695Y0129479D02*
X0008100Y0129479D01*
X0029300Y0129479D02*
X0054571Y0129479D01*
X0094900Y0129479D02*
X0146071Y0129479D01*
X0155970Y0129479D02*
X0170530Y0129479D01*
X0192812Y0129479D02*
X0229427Y0129479D01*
X0280600Y0129479D02*
X0308071Y0129479D01*
X0320600Y0129479D02*
X0324000Y0129479D01*
X0346000Y0129479D02*
X0351900Y0129479D01*
X0017695Y0131078D02*
X0008100Y0131078D01*
X0029300Y0131078D02*
X0052972Y0131078D01*
X0094857Y0131078D02*
X0144472Y0131078D01*
X0154372Y0131078D02*
X0172128Y0131078D01*
X0281028Y0131078D02*
X0306472Y0131078D01*
X0320600Y0131078D02*
X0324000Y0131078D01*
X0346000Y0131078D02*
X0351900Y0131078D01*
X0017786Y0132676D02*
X0008100Y0132676D01*
X0029209Y0132676D02*
X0051374Y0132676D01*
X0094195Y0132676D02*
X0142874Y0132676D01*
X0152773Y0132676D02*
X0173727Y0132676D01*
X0282626Y0132676D02*
X0304874Y0132676D01*
X0319953Y0132676D02*
X0324191Y0132676D01*
X0345809Y0132676D02*
X0351900Y0132676D01*
X0018954Y0134275D02*
X0008100Y0134275D01*
X0029139Y0134275D02*
X0049775Y0134275D01*
X0062484Y0134275D02*
X0082325Y0134275D01*
X0092484Y0134275D02*
X0141275Y0134275D01*
X0151175Y0134275D02*
X0175325Y0134275D01*
X0284225Y0134275D02*
X0303275Y0134275D01*
X0318645Y0134275D02*
X0325790Y0134275D01*
X0334210Y0134275D02*
X0335790Y0134275D01*
X0344210Y0134275D02*
X0351900Y0134275D01*
X0018078Y0135873D02*
X0008100Y0135873D01*
X0029300Y0135873D02*
X0048177Y0135873D01*
X0058076Y0135873D02*
X0083924Y0135873D01*
X0093823Y0135873D02*
X0139677Y0135873D01*
X0149576Y0135873D02*
X0176924Y0135873D01*
X0260576Y0135873D02*
X0275924Y0135873D01*
X0285823Y0135873D02*
X0301677Y0135873D01*
X0311576Y0135873D02*
X0325641Y0135873D01*
X0334359Y0135873D02*
X0335641Y0135873D01*
X0344359Y0135873D02*
X0351900Y0135873D01*
X0017695Y0137472D02*
X0008100Y0137472D01*
X0029300Y0137472D02*
X0046578Y0137472D01*
X0056478Y0137472D02*
X0085522Y0137472D01*
X0095422Y0137472D02*
X0138078Y0137472D01*
X0147978Y0137472D02*
X0178522Y0137472D01*
X0258971Y0137472D02*
X0277522Y0137472D01*
X0287422Y0137472D02*
X0300078Y0137472D01*
X0309978Y0137472D02*
X0324043Y0137472D01*
X0345957Y0137472D02*
X0351900Y0137472D01*
X0018372Y0139070D02*
X0008100Y0139070D01*
X0029300Y0139070D02*
X0044980Y0139070D01*
X0054879Y0139070D02*
X0087121Y0139070D01*
X0097020Y0139070D02*
X0136480Y0139070D01*
X0146379Y0139070D02*
X0180121Y0139070D01*
X0190020Y0139070D02*
X0217905Y0139070D01*
X0222095Y0139070D02*
X0279121Y0139070D01*
X0289020Y0139070D02*
X0298480Y0139070D01*
X0308379Y0139070D02*
X0324000Y0139070D01*
X0346000Y0139070D02*
X0351900Y0139070D01*
X0020778Y0140669D02*
X0008100Y0140669D01*
X0029010Y0140669D02*
X0043381Y0140669D01*
X0053281Y0140669D02*
X0088719Y0140669D01*
X0098619Y0140669D02*
X0134881Y0140669D01*
X0144781Y0140669D02*
X0181719Y0140669D01*
X0191619Y0140669D02*
X0213963Y0140669D01*
X0226037Y0140669D02*
X0280719Y0140669D01*
X0290619Y0140669D02*
X0296881Y0140669D01*
X0306781Y0140669D02*
X0324000Y0140669D01*
X0346000Y0140669D02*
X0351900Y0140669D01*
X0019180Y0142268D02*
X0008100Y0142268D01*
X0027309Y0142268D02*
X0042222Y0142268D01*
X0051682Y0142268D02*
X0090318Y0142268D01*
X0100217Y0142268D02*
X0133283Y0142268D01*
X0143182Y0142268D02*
X0183318Y0142268D01*
X0193217Y0142268D02*
X0212036Y0142268D01*
X0227964Y0142268D02*
X0282318Y0142268D01*
X0292217Y0142268D02*
X0295722Y0142268D01*
X0305182Y0142268D02*
X0324000Y0142268D01*
X0346000Y0142268D02*
X0351900Y0142268D01*
X0017879Y0143866D02*
X0008100Y0143866D01*
X0029115Y0143866D02*
X0042000Y0143866D01*
X0050084Y0143866D02*
X0091916Y0143866D01*
X0101816Y0143866D02*
X0131684Y0143866D01*
X0141584Y0143866D02*
X0184916Y0143866D01*
X0194816Y0143866D02*
X0210725Y0143866D01*
X0229275Y0143866D02*
X0283916Y0143866D01*
X0293319Y0143866D02*
X0295500Y0143866D01*
X0303584Y0143866D02*
X0325381Y0143866D01*
X0334619Y0143866D02*
X0335381Y0143866D01*
X0344619Y0143866D02*
X0351900Y0143866D01*
X0017743Y0145465D02*
X0008100Y0145465D01*
X0029251Y0145465D02*
X0042000Y0145465D01*
X0049000Y0145465D02*
X0093515Y0145465D01*
X0103414Y0145465D02*
X0130086Y0145465D01*
X0139985Y0145465D02*
X0186515Y0145465D01*
X0196414Y0145465D02*
X0209802Y0145465D01*
X0230198Y0145465D02*
X0285515Y0145465D01*
X0293500Y0145465D02*
X0295500Y0145465D01*
X0302500Y0145465D02*
X0326050Y0145465D01*
X0333950Y0145465D02*
X0336050Y0145465D01*
X0343950Y0145465D02*
X0351900Y0145465D01*
X0018694Y0147063D02*
X0008100Y0147063D01*
X0029096Y0147063D02*
X0042000Y0147063D01*
X0049000Y0147063D02*
X0095113Y0147063D01*
X0105013Y0147063D02*
X0128487Y0147063D01*
X0138387Y0147063D02*
X0188113Y0147063D01*
X0198013Y0147063D02*
X0209296Y0147063D01*
X0230704Y0147063D02*
X0286500Y0147063D01*
X0293500Y0147063D02*
X0295500Y0147063D01*
X0302500Y0147063D02*
X0324452Y0147063D01*
X0345548Y0147063D02*
X0351900Y0147063D01*
X0017695Y0148662D02*
X0008100Y0148662D01*
X0029300Y0148662D02*
X0042000Y0148662D01*
X0049000Y0148662D02*
X0096712Y0148662D01*
X0106611Y0148662D02*
X0126889Y0148662D01*
X0136788Y0148662D02*
X0189712Y0148662D01*
X0199611Y0148662D02*
X0208901Y0148662D01*
X0231099Y0148662D02*
X0286500Y0148662D01*
X0293500Y0148662D02*
X0295500Y0148662D01*
X0302500Y0148662D02*
X0324000Y0148662D01*
X0346000Y0148662D02*
X0351900Y0148662D01*
X0017695Y0150260D02*
X0008100Y0150260D01*
X0029300Y0150260D02*
X0042000Y0150260D01*
X0049000Y0150260D02*
X0098310Y0150260D01*
X0108210Y0150260D02*
X0125290Y0150260D01*
X0135190Y0150260D02*
X0191310Y0150260D01*
X0201210Y0150260D02*
X0208901Y0150260D01*
X0231099Y0150260D02*
X0286500Y0150260D01*
X0293500Y0150260D02*
X0295500Y0150260D01*
X0302500Y0150260D02*
X0324000Y0150260D01*
X0346000Y0150260D02*
X0351900Y0150260D01*
X0017722Y0151859D02*
X0008100Y0151859D01*
X0029300Y0151859D02*
X0042000Y0151859D01*
X0049000Y0151859D02*
X0099909Y0151859D01*
X0109808Y0151859D02*
X0123692Y0151859D01*
X0133591Y0151859D02*
X0192909Y0151859D01*
X0202808Y0151859D02*
X0209007Y0151859D01*
X0230993Y0151859D02*
X0286500Y0151859D01*
X0302968Y0151859D02*
X0324000Y0151859D01*
X0346000Y0151859D02*
X0351900Y0151859D01*
X0018746Y0153457D02*
X0008100Y0153457D01*
X0029053Y0153457D02*
X0042000Y0153457D01*
X0049000Y0153457D02*
X0101507Y0153457D01*
X0111407Y0153457D02*
X0122093Y0153457D01*
X0131993Y0153457D02*
X0194507Y0153457D01*
X0204407Y0153457D02*
X0209436Y0153457D01*
X0230564Y0153457D02*
X0286213Y0153457D01*
X0303787Y0153457D02*
X0324972Y0153457D01*
X0345028Y0153457D02*
X0351900Y0153457D01*
X0017700Y0155056D02*
X0008100Y0155056D01*
X0029295Y0155056D02*
X0042000Y0155056D01*
X0049000Y0155056D02*
X0103106Y0155056D01*
X0113005Y0155056D02*
X0120495Y0155056D01*
X0130394Y0155056D02*
X0196106Y0155056D01*
X0206005Y0155056D02*
X0210103Y0155056D01*
X0229897Y0155056D02*
X0285991Y0155056D01*
X0304009Y0155056D02*
X0326459Y0155056D01*
X0333541Y0155056D02*
X0336459Y0155056D01*
X0343541Y0155056D02*
X0351900Y0155056D01*
X0017695Y0156654D02*
X0008100Y0156654D01*
X0029300Y0156654D02*
X0041416Y0156654D01*
X0049000Y0156654D02*
X0101416Y0156654D01*
X0114604Y0156654D02*
X0118896Y0156654D01*
X0128796Y0156654D02*
X0197704Y0156654D01*
X0207604Y0156654D02*
X0211025Y0156654D01*
X0228975Y0156654D02*
X0286259Y0156654D01*
X0303741Y0156654D02*
X0324861Y0156654D01*
X0345139Y0156654D02*
X0351900Y0156654D01*
X0017701Y0158253D02*
X0008100Y0158253D01*
X0029294Y0158253D02*
X0040100Y0158253D01*
X0049900Y0158253D02*
X0100100Y0158253D01*
X0116202Y0158253D02*
X0117298Y0158253D01*
X0127197Y0158253D02*
X0199303Y0158253D01*
X0209202Y0158253D02*
X0212556Y0158253D01*
X0227444Y0158253D02*
X0287143Y0158253D01*
X0294983Y0158253D02*
X0295017Y0158253D01*
X0302857Y0158253D02*
X0324000Y0158253D01*
X0346000Y0158253D02*
X0351900Y0158253D01*
X0017941Y0159851D02*
X0008100Y0159851D01*
X0029054Y0159851D02*
X0040100Y0159851D01*
X0049900Y0159851D02*
X0100100Y0159851D01*
X0125599Y0159851D02*
X0200901Y0159851D01*
X0210801Y0159851D02*
X0214864Y0159851D01*
X0225136Y0159851D02*
X0289522Y0159851D01*
X0292604Y0159851D02*
X0297396Y0159851D01*
X0300478Y0159851D02*
X0324000Y0159851D01*
X0346000Y0159851D02*
X0351900Y0159851D01*
X0017695Y0161450D02*
X0008100Y0161450D01*
X0029300Y0161450D02*
X0040100Y0161450D01*
X0049900Y0161450D02*
X0100100Y0161450D01*
X0124000Y0161450D02*
X0202500Y0161450D01*
X0212399Y0161450D02*
X0324000Y0161450D01*
X0346000Y0161450D02*
X0351900Y0161450D01*
X0017695Y0163048D02*
X0008100Y0163048D01*
X0028292Y0163048D02*
X0041119Y0163048D01*
X0048881Y0163048D02*
X0101119Y0163048D01*
X0108881Y0163048D02*
X0111098Y0163048D01*
X0122402Y0163048D02*
X0147213Y0163048D01*
X0152787Y0163048D02*
X0204098Y0163048D01*
X0213998Y0163048D02*
X0324563Y0163048D01*
X0345437Y0163048D02*
X0351900Y0163048D01*
X0017695Y0164647D02*
X0008100Y0164647D01*
X0025626Y0164647D02*
X0042717Y0164647D01*
X0047283Y0164647D02*
X0102717Y0164647D01*
X0107283Y0164647D02*
X0112500Y0164647D01*
X0120803Y0164647D02*
X0143600Y0164647D01*
X0156400Y0164647D02*
X0205697Y0164647D01*
X0215596Y0164647D02*
X0326161Y0164647D01*
X0333839Y0164647D02*
X0336161Y0164647D01*
X0343839Y0164647D02*
X0351900Y0164647D01*
X0017899Y0166245D02*
X0008100Y0166245D01*
X0028146Y0166245D02*
X0112500Y0166245D01*
X0119500Y0166245D02*
X0141774Y0166245D01*
X0158226Y0166245D02*
X0191567Y0166245D01*
X0194811Y0166245D02*
X0199441Y0166245D01*
X0202685Y0166245D02*
X0207295Y0166245D01*
X0218433Y0166245D02*
X0325270Y0166245D01*
X0334730Y0166245D02*
X0335270Y0166245D01*
X0344730Y0166245D02*
X0351900Y0166245D01*
X0017742Y0167844D02*
X0008100Y0167844D01*
X0029252Y0167844D02*
X0091661Y0167844D01*
X0098339Y0167844D02*
X0101661Y0167844D01*
X0108339Y0167844D02*
X0111661Y0167844D01*
X0119500Y0167844D02*
X0140506Y0167844D01*
X0159494Y0167844D02*
X0189236Y0167844D01*
X0220764Y0167844D02*
X0324000Y0167844D01*
X0346000Y0167844D02*
X0351900Y0167844D01*
X0017695Y0169442D02*
X0008100Y0169442D01*
X0029300Y0169442D02*
X0090323Y0169442D01*
X0099677Y0169442D02*
X0100323Y0169442D01*
X0109677Y0169442D02*
X0110323Y0169442D01*
X0119677Y0169442D02*
X0139583Y0169442D01*
X0160417Y0169442D02*
X0188371Y0169442D01*
X0221629Y0169442D02*
X0324000Y0169442D01*
X0346000Y0169442D02*
X0351900Y0169442D01*
X0017695Y0171041D02*
X0008100Y0171041D01*
X0029300Y0171041D02*
X0089700Y0171041D01*
X0120300Y0171041D02*
X0139094Y0171041D01*
X0160906Y0171041D02*
X0188117Y0171041D01*
X0221883Y0171041D02*
X0324000Y0171041D01*
X0346000Y0171041D02*
X0351900Y0171041D01*
X0017984Y0172639D02*
X0008100Y0172639D01*
X0028349Y0172639D02*
X0089700Y0172639D01*
X0120300Y0172639D02*
X0138700Y0172639D01*
X0161300Y0172639D02*
X0186911Y0172639D01*
X0221648Y0172639D02*
X0324154Y0172639D01*
X0345846Y0172639D02*
X0351900Y0172639D01*
X0017695Y0174238D02*
X0008100Y0174238D01*
X0029231Y0174238D02*
X0089700Y0174238D01*
X0120300Y0174238D02*
X0138700Y0174238D01*
X0161300Y0174238D02*
X0185313Y0174238D01*
X0220809Y0174238D02*
X0239309Y0174238D01*
X0250691Y0174238D02*
X0325752Y0174238D01*
X0334248Y0174238D02*
X0335752Y0174238D01*
X0344248Y0174238D02*
X0351900Y0174238D01*
X0017695Y0175836D02*
X0008100Y0175836D01*
X0029300Y0175836D02*
X0089700Y0175836D01*
X0120300Y0175836D02*
X0138793Y0175836D01*
X0161207Y0175836D02*
X0184500Y0175836D01*
X0220883Y0175836D02*
X0237183Y0175836D01*
X0252817Y0175836D02*
X0325678Y0175836D01*
X0334322Y0175836D02*
X0335678Y0175836D01*
X0344322Y0175836D02*
X0351900Y0175836D01*
X0017695Y0177435D02*
X0008100Y0177435D01*
X0029300Y0177435D02*
X0089700Y0177435D01*
X0120300Y0177435D02*
X0139222Y0177435D01*
X0160778Y0177435D02*
X0184500Y0177435D01*
X0225384Y0177435D02*
X0235742Y0177435D01*
X0254258Y0177435D02*
X0324080Y0177435D01*
X0345920Y0177435D02*
X0351900Y0177435D01*
X0017857Y0179033D02*
X0008100Y0179033D01*
X0028401Y0179033D02*
X0089700Y0179033D01*
X0120300Y0179033D02*
X0139858Y0179033D01*
X0160142Y0179033D02*
X0184500Y0179033D01*
X0226983Y0179033D02*
X0234819Y0179033D01*
X0255181Y0179033D02*
X0324000Y0179033D01*
X0346000Y0179033D02*
X0351900Y0179033D01*
X0019554Y0180632D02*
X0008100Y0180632D01*
X0021036Y0180632D02*
X0022756Y0180632D01*
X0026373Y0180632D02*
X0090353Y0180632D01*
X0109647Y0180632D02*
X0110353Y0180632D01*
X0119647Y0180632D02*
X0140781Y0180632D01*
X0159219Y0180632D02*
X0184500Y0180632D01*
X0228582Y0180632D02*
X0234204Y0180632D01*
X0255796Y0180632D02*
X0324000Y0180632D01*
X0346000Y0180632D02*
X0351900Y0180632D01*
X0091735Y0182230D02*
X0008100Y0182230D01*
X0108265Y0182230D02*
X0111735Y0182230D01*
X0118265Y0182230D02*
X0142250Y0182230D01*
X0157750Y0182230D02*
X0184721Y0182230D01*
X0212816Y0182230D02*
X0212932Y0182230D01*
X0230180Y0182230D02*
X0233776Y0182230D01*
X0256224Y0182230D02*
X0324000Y0182230D01*
X0346000Y0182230D02*
X0351900Y0182230D01*
X0098879Y0183829D02*
X0008100Y0183829D01*
X0108779Y0183829D02*
X0144424Y0183829D01*
X0155576Y0183829D02*
X0185879Y0183829D01*
X0195779Y0183829D02*
X0199620Y0183829D01*
X0202506Y0183829D02*
X0207494Y0183829D01*
X0210380Y0183829D02*
X0215368Y0183829D01*
X0218254Y0183829D02*
X0221879Y0183829D01*
X0231779Y0183829D02*
X0233700Y0183829D01*
X0256300Y0183829D02*
X0325344Y0183829D01*
X0334656Y0183829D02*
X0335344Y0183829D01*
X0344656Y0183829D02*
X0351900Y0183829D01*
X0100478Y0185427D02*
X0008100Y0185427D01*
X0110377Y0185427D02*
X0187478Y0185427D01*
X0197377Y0185427D02*
X0223478Y0185427D01*
X0233377Y0185427D02*
X0233700Y0185427D01*
X0256300Y0185427D02*
X0326087Y0185427D01*
X0333913Y0185427D02*
X0336087Y0185427D01*
X0343913Y0185427D02*
X0351900Y0185427D01*
X0102076Y0187026D02*
X0008100Y0187026D01*
X0111976Y0187026D02*
X0189076Y0187026D01*
X0198976Y0187026D02*
X0225076Y0187026D01*
X0255888Y0187026D02*
X0324489Y0187026D01*
X0345511Y0187026D02*
X0351900Y0187026D01*
X0103675Y0188624D02*
X0008100Y0188624D01*
X0113574Y0188624D02*
X0190675Y0188624D01*
X0200574Y0188624D02*
X0226675Y0188624D01*
X0255378Y0188624D02*
X0324000Y0188624D01*
X0346000Y0188624D02*
X0351900Y0188624D01*
X0105273Y0190223D02*
X0008100Y0190223D01*
X0115173Y0190223D02*
X0192273Y0190223D01*
X0202173Y0190223D02*
X0228273Y0190223D01*
X0254455Y0190223D02*
X0324000Y0190223D01*
X0346000Y0190223D02*
X0351900Y0190223D01*
X0106872Y0191821D02*
X0008100Y0191821D01*
X0116771Y0191821D02*
X0193872Y0191821D01*
X0203771Y0191821D02*
X0229872Y0191821D01*
X0253159Y0191821D02*
X0324000Y0191821D01*
X0346000Y0191821D02*
X0351900Y0191821D01*
X0108470Y0193420D02*
X0008100Y0193420D01*
X0118370Y0193420D02*
X0195470Y0193420D01*
X0205370Y0193420D02*
X0231470Y0193420D01*
X0251284Y0193420D02*
X0324935Y0193420D01*
X0345065Y0193420D02*
X0351900Y0193420D01*
X0110069Y0195018D02*
X0008100Y0195018D01*
X0119968Y0195018D02*
X0197069Y0195018D01*
X0206968Y0195018D02*
X0233069Y0195018D01*
X0247539Y0195018D02*
X0326496Y0195018D01*
X0333504Y0195018D02*
X0336496Y0195018D01*
X0343504Y0195018D02*
X0351900Y0195018D01*
X0111667Y0196617D02*
X0008100Y0196617D01*
X0121567Y0196617D02*
X0198667Y0196617D01*
X0208567Y0196617D02*
X0234667Y0196617D01*
X0244567Y0196617D02*
X0324898Y0196617D01*
X0345102Y0196617D02*
X0351900Y0196617D01*
X0113266Y0198215D02*
X0008100Y0198215D01*
X0123165Y0198215D02*
X0200266Y0198215D01*
X0210165Y0198215D02*
X0236266Y0198215D01*
X0253665Y0198215D02*
X0324000Y0198215D01*
X0346000Y0198215D02*
X0351900Y0198215D01*
X0015444Y0199814D02*
X0008100Y0199814D01*
X0024556Y0199814D02*
X0114864Y0199814D01*
X0124764Y0199814D02*
X0201864Y0199814D01*
X0211764Y0199814D02*
X0237864Y0199814D01*
X0255264Y0199814D02*
X0310444Y0199814D01*
X0319556Y0199814D02*
X0324000Y0199814D01*
X0346000Y0199814D02*
X0351900Y0199814D01*
X0012891Y0201412D02*
X0008100Y0201412D01*
X0027109Y0201412D02*
X0116463Y0201412D01*
X0136862Y0201412D02*
X0203463Y0201412D01*
X0256862Y0201412D02*
X0307891Y0201412D01*
X0322109Y0201412D02*
X0324000Y0201412D01*
X0346000Y0201412D02*
X0351900Y0201412D01*
X0011292Y0203011D02*
X0008100Y0203011D01*
X0028708Y0203011D02*
X0118061Y0203011D01*
X0138461Y0203011D02*
X0205061Y0203011D01*
X0258461Y0203011D02*
X0306292Y0203011D01*
X0323708Y0203011D02*
X0324526Y0203011D01*
X0345474Y0203011D02*
X0351900Y0203011D01*
X0010296Y0204609D02*
X0008100Y0204609D01*
X0029704Y0204609D02*
X0051335Y0204609D01*
X0056665Y0204609D02*
X0061335Y0204609D01*
X0066665Y0204609D02*
X0071335Y0204609D01*
X0076665Y0204609D02*
X0081335Y0204609D01*
X0086665Y0204609D02*
X0091335Y0204609D01*
X0096665Y0204609D02*
X0101335Y0204609D01*
X0106665Y0204609D02*
X0111335Y0204609D01*
X0116665Y0204609D02*
X0119660Y0204609D01*
X0142665Y0204609D02*
X0147335Y0204609D01*
X0152665Y0204609D02*
X0157335Y0204609D01*
X0162665Y0204609D02*
X0167335Y0204609D01*
X0172665Y0204609D02*
X0177335Y0204609D01*
X0182665Y0204609D02*
X0187335Y0204609D01*
X0192665Y0204609D02*
X0197335Y0204609D01*
X0202665Y0204609D02*
X0206660Y0204609D01*
X0262665Y0204609D02*
X0267335Y0204609D01*
X0272665Y0204609D02*
X0277335Y0204609D01*
X0282665Y0204609D02*
X0287335Y0204609D01*
X0292665Y0204609D02*
X0297335Y0204609D01*
X0302665Y0204609D02*
X0305296Y0204609D01*
X0324704Y0204609D02*
X0326124Y0204609D01*
X0333876Y0204609D02*
X0336124Y0204609D01*
X0343876Y0204609D02*
X0351900Y0204609D01*
X0009525Y0206208D02*
X0008100Y0206208D01*
X0030475Y0206208D02*
X0049307Y0206208D01*
X0058693Y0206208D02*
X0059307Y0206208D01*
X0068693Y0206208D02*
X0069307Y0206208D01*
X0078693Y0206208D02*
X0079307Y0206208D01*
X0088693Y0206208D02*
X0089307Y0206208D01*
X0098693Y0206208D02*
X0099307Y0206208D01*
X0108693Y0206208D02*
X0109307Y0206208D01*
X0118693Y0206208D02*
X0119307Y0206208D01*
X0144693Y0206208D02*
X0145307Y0206208D01*
X0154693Y0206208D02*
X0155307Y0206208D01*
X0164693Y0206208D02*
X0165307Y0206208D01*
X0174693Y0206208D02*
X0175307Y0206208D01*
X0184693Y0206208D02*
X0185307Y0206208D01*
X0194693Y0206208D02*
X0195307Y0206208D01*
X0204693Y0206208D02*
X0205307Y0206208D01*
X0264693Y0206208D02*
X0265307Y0206208D01*
X0274693Y0206208D02*
X0275307Y0206208D01*
X0284693Y0206208D02*
X0285307Y0206208D01*
X0294693Y0206208D02*
X0295307Y0206208D01*
X0334693Y0206208D02*
X0335307Y0206208D01*
X0344693Y0206208D02*
X0351900Y0206208D01*
X0009097Y0207806D02*
X0008100Y0207806D01*
X0030903Y0207806D02*
X0048414Y0207806D01*
X0129586Y0207806D02*
X0133357Y0207806D01*
X0215586Y0207806D02*
X0224414Y0207806D01*
X0345586Y0207806D02*
X0351900Y0207806D01*
X0008901Y0209405D02*
X0008100Y0209405D01*
X0031099Y0209405D02*
X0048000Y0209405D01*
X0130000Y0209405D02*
X0134000Y0209405D01*
X0216000Y0209405D02*
X0224000Y0209405D01*
X0346000Y0209405D02*
X0351900Y0209405D01*
X0008901Y0211003D02*
X0008100Y0211003D01*
X0031099Y0211003D02*
X0048000Y0211003D01*
X0130000Y0211003D02*
X0134000Y0211003D01*
X0216000Y0211003D02*
X0224000Y0211003D01*
X0346000Y0211003D02*
X0351900Y0211003D01*
X0009206Y0212602D02*
X0008100Y0212602D01*
X0030794Y0212602D02*
X0048583Y0212602D01*
X0129417Y0212602D02*
X0134583Y0212602D01*
X0215417Y0212602D02*
X0224583Y0212602D01*
X0345417Y0212602D02*
X0351900Y0212602D01*
X0009635Y0214201D02*
X0008100Y0214201D01*
X0030365Y0214201D02*
X0049715Y0214201D01*
X0058285Y0214201D02*
X0059715Y0214201D01*
X0068285Y0214201D02*
X0069715Y0214201D01*
X0078285Y0214201D02*
X0079715Y0214201D01*
X0088285Y0214201D02*
X0089715Y0214201D01*
X0098285Y0214201D02*
X0099715Y0214201D01*
X0108285Y0214201D02*
X0109715Y0214201D01*
X0118285Y0214201D02*
X0119715Y0214201D01*
X0128285Y0214201D02*
X0135715Y0214201D01*
X0144285Y0214201D02*
X0145715Y0214201D01*
X0154285Y0214201D02*
X0155715Y0214201D01*
X0164285Y0214201D02*
X0165715Y0214201D01*
X0174285Y0214201D02*
X0175715Y0214201D01*
X0184285Y0214201D02*
X0185715Y0214201D01*
X0194285Y0214201D02*
X0195715Y0214201D01*
X0204285Y0214201D02*
X0205715Y0214201D01*
X0214285Y0214201D02*
X0225715Y0214201D01*
X0234285Y0214201D02*
X0235715Y0214201D01*
X0244285Y0214201D02*
X0245715Y0214201D01*
X0254285Y0214201D02*
X0255715Y0214201D01*
X0264285Y0214201D02*
X0265715Y0214201D01*
X0274285Y0214201D02*
X0275715Y0214201D01*
X0284285Y0214201D02*
X0285715Y0214201D01*
X0294285Y0214201D02*
X0295715Y0214201D01*
X0304285Y0214201D02*
X0304635Y0214201D01*
X0325365Y0214201D02*
X0325715Y0214201D01*
X0334285Y0214201D02*
X0335715Y0214201D01*
X0344285Y0214201D02*
X0351900Y0214201D01*
X0010532Y0215799D02*
X0008100Y0215799D01*
X0029468Y0215799D02*
X0052321Y0215799D01*
X0055679Y0215799D02*
X0062321Y0215799D01*
X0065679Y0215799D02*
X0072321Y0215799D01*
X0075679Y0215799D02*
X0082321Y0215799D01*
X0085679Y0215799D02*
X0092321Y0215799D01*
X0095679Y0215799D02*
X0102321Y0215799D01*
X0105679Y0215799D02*
X0112321Y0215799D01*
X0115679Y0215799D02*
X0122321Y0215799D01*
X0125679Y0215799D02*
X0138321Y0215799D01*
X0141679Y0215799D02*
X0148321Y0215799D01*
X0151679Y0215799D02*
X0158321Y0215799D01*
X0161679Y0215799D02*
X0168321Y0215799D01*
X0171679Y0215799D02*
X0178321Y0215799D01*
X0181679Y0215799D02*
X0188321Y0215799D01*
X0191679Y0215799D02*
X0198321Y0215799D01*
X0201679Y0215799D02*
X0208321Y0215799D01*
X0211679Y0215799D02*
X0228321Y0215799D01*
X0231679Y0215799D02*
X0238321Y0215799D01*
X0241679Y0215799D02*
X0248321Y0215799D01*
X0251679Y0215799D02*
X0258321Y0215799D01*
X0261679Y0215799D02*
X0268321Y0215799D01*
X0271679Y0215799D02*
X0278321Y0215799D01*
X0281679Y0215799D02*
X0288321Y0215799D01*
X0291679Y0215799D02*
X0298321Y0215799D01*
X0301679Y0215799D02*
X0305532Y0215799D01*
X0324468Y0215799D02*
X0328321Y0215799D01*
X0331679Y0215799D02*
X0338321Y0215799D01*
X0341679Y0215799D02*
X0351900Y0215799D01*
X0011701Y0217398D02*
X0008100Y0217398D01*
X0028299Y0217398D02*
X0306701Y0217398D01*
X0323299Y0217398D02*
X0351900Y0217398D01*
X0013383Y0218996D02*
X0008100Y0218996D01*
X0026617Y0218996D02*
X0308383Y0218996D01*
X0321617Y0218996D02*
X0351900Y0218996D01*
X0016655Y0220595D02*
X0008100Y0220595D01*
X0023345Y0220595D02*
X0311655Y0220595D01*
X0318345Y0220595D02*
X0351900Y0220595D01*
M02*
