%
M48
M72
T01C0.03200
T02C0.03543
T03C0.04000
T04C0.04400
T05C0.12598
T06C0.13000
%
T01
X255000Y85000
X245000Y85000
X160000Y85000
X150000Y85000
X235000Y110000
X245000Y110000
X140000Y100000
X150000Y100000
X180000Y100000
X187500Y95000
X180000Y90000
X60000Y100000
X60000Y110000
X90000Y110000
X90000Y100000
X60000Y120000
X60000Y130000
X90000Y120000
X90000Y130000
X179921Y125000
X190079Y125000
X45000Y65000
X45000Y105000
X105000Y65000
X105000Y105000
X45000Y120000
X45000Y160000
X105000Y120000
X105000Y160000
X160000Y45000
X200000Y45000
X260000Y45105
X300000Y44895
X290000Y100000
X300000Y100000
X300000Y110000
T02
X216811Y178937
X216811Y171063
X208937Y178937
X208937Y171063
X201063Y178937
X201063Y171063
X193189Y178937
X193189Y171063
X291063Y155000
X298937Y155000
X290000Y83937
X290000Y76063
T03
X260000Y20000
X270000Y20000
X280000Y20000
X290000Y20000
X300000Y20000
X310000Y20000
X320000Y20000
X250000Y20000
X240000Y210000
X250000Y210000
X260000Y210000
X270000Y210000
X280000Y210000
X290000Y210000
X300000Y210000
X230000Y210000
X170000Y20000
X180000Y20000
X190000Y20000
X200000Y20000
X210000Y20000
X220000Y20000
X230000Y20000
X160000Y20000
X150000Y210000
X160000Y210000
X170000Y210000
X180000Y210000
X190000Y210000
X200000Y210000
X210000Y210000
X140000Y210000
X64000Y210000
X74000Y210000
X84000Y210000
X94000Y210000
X104000Y210000
X114000Y210000
X124000Y210000
X54000Y210000
X340000Y130000
X330000Y130000
X340000Y140000
X330000Y140000
X340000Y150000
X330000Y150000
X340000Y160000
X330000Y160000
X340000Y170000
X330000Y170000
X340000Y180000
X330000Y180000
X340000Y190000
X330000Y190000
X340000Y200000
X330000Y200000
X340000Y50000
X330000Y50000
X340000Y60000
X330000Y60000
X340000Y70000
X330000Y70000
X340000Y80000
X330000Y80000
X340000Y90000
X330000Y90000
X340000Y100000
X330000Y100000
X340000Y110000
X330000Y110000
X340000Y120000
X330000Y120000
X330000Y40000
X340000Y40000
X330000Y210000
X340000Y210000
X90000Y20000
X100000Y20000
X110000Y20000
X120000Y20000
X130000Y20000
X140000Y20000
X210000Y65000
X200000Y65000
X190000Y65000
X180000Y65000
X95000Y175000
X105000Y175000
X115000Y175000
X130000Y50000
X120000Y50000
X110000Y50000
X100000Y50000
T04
X315000Y130000
X275000Y130000
X255000Y125000
X245000Y125000
X235000Y125000
X160000Y115000
X150000Y115000
X140000Y115000
T05
X20000Y210000
X15000Y20000
X220000Y150000
X220000Y40000
X315000Y210000
X340000Y20000
T06
X245000Y184000
X150000Y174000
M30
